<svg width="611" height="315" viewBox="0 0 611 315" fill="none" xmlns="http://www.w3.org/2000/svg">
<path opacity="0.42" d="M87.2771 273.078C117.903 273.078 142.731 267.963 142.731 261.654C142.731 255.345 117.903 250.231 87.2771 250.231C56.6508 250.231 31.8232 255.345 31.8232 261.654C31.8232 267.963 56.6508 273.078 87.2771 273.078Z" fill="#B7B7B7"/>
<path opacity="0.42" d="M600.552 255.785C600.552 262.094 575.724 267.208 545.098 267.208C514.471 267.208 489.643 262.094 489.643 255.785C489.643 249.475 514.471 244.361 545.098 244.361C575.724 244.361 600.552 249.475 600.552 255.785Z" fill="#B7B7B7"/>
<path d="M223.599 237.031V208.77L161.938 208.599V190.786L219.145 110.285H243.638V191.642H264.877V208.77H243.638V237.031H223.599ZM182.149 191.642H223.599V132.893L182.149 191.642ZM323.607 238.572C315.499 238.572 308.306 236.86 302.026 233.434C295.859 230.008 290.664 225.27 286.439 219.218C282.214 213.166 279.017 206.258 276.848 198.493C274.678 190.614 273.593 182.279 273.593 173.487C273.593 164.694 274.678 156.416 276.848 148.651C279.017 140.772 282.214 133.807 286.439 127.755C290.664 121.703 295.859 116.965 302.026 113.539C308.306 110.113 315.499 108.401 323.607 108.401C331.714 108.401 338.85 110.113 345.016 113.539C351.297 116.965 356.549 121.703 360.774 127.755C364.999 133.807 368.196 140.772 370.366 148.651C372.535 156.416 373.62 164.694 373.62 173.487C373.62 182.279 372.535 190.614 370.366 198.493C368.196 206.258 364.999 213.166 360.774 219.218C356.549 225.27 351.297 230.008 345.016 233.434C338.85 236.86 331.714 238.572 323.607 238.572ZM323.607 220.588C332.056 220.588 339.079 216.649 344.674 208.77C350.269 200.777 353.067 189.016 353.067 173.487C353.067 158.071 350.269 146.424 344.674 138.546C339.079 130.667 332.056 126.727 323.607 126.727C315.157 126.727 308.134 130.667 302.539 138.546C296.944 146.424 294.147 158.071 294.147 173.487C294.147 188.902 296.887 200.606 302.368 208.599C307.963 216.592 315.043 220.588 323.607 220.588ZM442.233 237.031V208.77L380.573 208.599V190.786L437.78 110.285H462.273V191.642H483.511V208.77H462.273V237.031H442.233ZM400.784 191.642H442.233V132.893L400.784 191.642Z" fill="#899FFF"/>
<path d="M262.484 73.5404C260.008 73.5404 257.832 72.9995 255.957 71.9177C254.106 70.8119 252.652 69.2734 251.594 67.3022C250.56 65.331 250.043 63.0593 250.043 60.4871C250.043 57.9149 250.56 55.6553 251.594 53.7081C252.652 51.7369 254.106 50.1984 255.957 49.0926C257.832 47.9868 260.008 47.4339 262.484 47.4339C264.984 47.4339 267.159 47.9868 269.01 49.0926C270.885 50.1984 272.34 51.7369 273.373 53.7081C274.407 55.6553 274.924 57.9149 274.924 60.4871C274.924 63.0593 274.407 65.331 273.373 67.3022C272.34 69.2734 270.885 70.8119 269.01 71.9177C267.159 72.9995 264.984 73.5404 262.484 73.5404ZM262.484 70.872C264.335 70.872 265.957 70.4634 267.352 69.646C268.77 68.8047 269.864 67.6147 270.633 66.0762C271.426 64.5137 271.823 62.6506 271.823 60.4871C271.823 58.3236 271.426 56.4726 270.633 54.9341C269.864 53.3956 268.77 52.2177 267.352 51.4003C265.957 50.559 264.335 50.1383 262.484 50.1383C260.633 50.1383 258.998 50.559 257.58 51.4003C256.185 52.2177 255.092 53.3956 254.298 54.9341C253.529 56.4726 253.144 58.3236 253.144 60.4871C253.144 62.6506 253.529 64.5137 254.298 66.0762C255.092 67.6147 256.185 68.8047 257.58 69.646C258.998 70.4634 260.633 70.872 262.484 70.872ZM290.76 73.5404C288.284 73.5404 286.109 72.9995 284.234 71.9177C282.383 70.8119 280.928 69.2734 279.87 67.3022C278.837 65.331 278.32 63.0593 278.32 60.4871C278.32 57.9149 278.837 55.6553 279.87 53.7081C280.928 51.7369 282.383 50.1984 284.234 49.0926C286.109 47.9868 288.284 47.4339 290.76 47.4339C293.26 47.4339 295.436 47.9868 297.287 49.0926C299.162 50.1984 300.616 51.7369 301.65 53.7081C302.684 55.6553 303.2 57.9149 303.2 60.4871C303.2 63.0593 302.684 65.331 301.65 67.3022C300.616 69.2734 299.162 70.8119 297.287 71.9177C295.436 72.9995 293.26 73.5404 290.76 73.5404ZM290.76 70.872C292.611 70.872 294.234 70.4634 295.628 69.646C297.046 68.8047 298.14 67.6147 298.909 66.0762C299.703 64.5137 300.099 62.6506 300.099 60.4871C300.099 58.3236 299.703 56.4726 298.909 54.9341C298.14 53.3956 297.046 52.2177 295.628 51.4003C294.234 50.559 292.611 50.1383 290.76 50.1383C288.909 50.1383 287.274 50.559 285.856 51.4003C284.462 52.2177 283.368 53.3956 282.575 54.9341C281.806 56.4726 281.421 58.3236 281.421 60.4871C281.421 62.6506 281.806 64.5137 282.575 66.0762C283.368 67.6147 284.462 68.8047 285.856 69.646C287.274 70.4634 288.909 70.872 290.76 70.872ZM307.57 73.1077V47.8666H315.863C317.835 47.8666 319.457 48.1911 320.731 48.8402C322.005 49.4892 322.943 50.3666 323.544 51.4724C324.169 52.5782 324.482 53.8283 324.482 55.2226C324.482 56.5928 324.181 57.8308 323.58 58.9366C322.979 60.0424 322.042 60.9318 320.767 61.6049C319.493 62.254 317.859 62.5785 315.863 62.5785H310.599V73.1077H307.57ZM310.599 60.0184H315.791C317.811 60.0184 319.241 59.5977 320.082 58.7563C320.948 57.8909 321.38 56.713 321.38 55.2226C321.38 53.7081 320.948 52.5302 320.082 51.6888C319.241 50.8234 317.811 50.3907 315.791 50.3907H310.599V60.0184ZM336.493 73.5404C334.642 73.5404 333.031 73.2038 331.661 72.5307C330.291 71.8576 329.233 70.9201 328.488 69.7181C327.742 68.5162 327.37 67.1219 327.37 65.5353H330.543C330.543 66.5209 330.771 67.4344 331.228 68.2758C331.685 69.0931 332.346 69.7542 333.211 70.259C334.101 70.7398 335.195 70.9802 336.493 70.9802C338.199 70.9802 339.522 70.5715 340.459 69.7542C341.397 68.9369 341.865 67.9152 341.865 66.6892C341.865 65.6796 341.649 64.8743 341.216 64.2733C340.784 63.6483 340.195 63.1434 339.45 62.7588C338.728 62.3742 337.887 62.0376 336.925 61.7492C335.988 61.4607 335.002 61.1362 333.969 60.7756C332.021 60.1025 330.579 59.2731 329.642 58.2875C328.704 57.2779 328.235 55.9678 328.235 54.3571C328.211 53.011 328.524 51.821 329.173 50.7873C329.822 49.7296 330.735 48.9123 331.913 48.3353C333.115 47.7344 334.534 47.4339 336.168 47.4339C337.779 47.4339 339.173 47.7344 340.351 48.3353C341.553 48.9363 342.478 49.7657 343.128 50.8234C343.801 51.8811 344.149 53.0831 344.173 54.4293H341C341 53.7321 340.82 53.047 340.459 52.3739C340.099 51.6768 339.546 51.1119 338.8 50.6792C338.079 50.2465 337.166 50.0301 336.06 50.0301C334.69 50.0061 333.56 50.3546 332.67 51.0758C331.805 51.797 331.372 52.7946 331.372 54.0687C331.372 55.1504 331.673 55.9798 332.274 56.5567C332.899 57.1337 333.764 57.6144 334.87 57.9991C335.976 58.3597 337.25 58.7803 338.692 59.2611C339.894 59.6938 340.976 60.1987 341.938 60.7756C342.899 61.3525 343.644 62.0977 344.173 63.0112C344.726 63.9247 345.003 65.0906 345.003 66.5089C345.003 67.7109 344.69 68.8527 344.065 69.9345C343.44 70.9922 342.49 71.8576 341.216 72.5307C339.966 73.2038 338.392 73.5404 336.493 73.5404ZM359.706 73.288C359.105 73.288 358.601 73.0956 358.192 72.711C357.807 72.3024 357.615 71.8096 357.615 71.2326C357.615 70.6557 357.807 70.1749 358.192 69.7903C358.601 69.3816 359.105 69.1773 359.706 69.1773C360.283 69.1773 360.764 69.3816 361.149 69.7903C361.557 70.1749 361.762 70.6557 361.762 71.2326C361.762 71.8096 361.557 72.3024 361.149 72.711C360.764 73.0956 360.283 73.288 359.706 73.288ZM366.749 73.288C366.148 73.288 365.643 73.0956 365.235 72.711C364.85 72.3024 364.658 71.8096 364.658 71.2326C364.658 70.6557 364.85 70.1749 365.235 69.7903C365.643 69.3816 366.148 69.1773 366.749 69.1773C367.326 69.1773 367.807 69.3816 368.191 69.7903C368.6 70.1749 368.804 70.6557 368.804 71.2326C368.804 71.8096 368.6 72.3024 368.191 72.711C367.807 73.0956 367.326 73.288 366.749 73.288ZM373.792 73.288C373.191 73.288 372.686 73.0956 372.277 72.711C371.893 72.3024 371.7 71.8096 371.7 71.2326C371.7 70.6557 371.893 70.1749 372.277 69.7903C372.686 69.3816 373.191 69.1773 373.792 69.1773C374.369 69.1773 374.849 69.3816 375.234 69.7903C375.643 70.1749 375.847 70.6557 375.847 71.2326C375.847 71.8096 375.643 72.3024 375.234 72.711C374.849 73.0956 374.369 73.288 373.792 73.288Z" fill="#666666"/>
<path d="M170.861 303.056V277.815H179.154C181.125 277.815 182.748 278.14 184.022 278.789C185.296 279.438 186.234 280.315 186.835 281.421C187.46 282.527 187.772 283.777 187.772 285.171C187.772 286.541 187.472 287.779 186.871 288.885C186.27 289.991 185.332 290.88 184.058 291.553C182.784 292.202 181.149 292.527 179.154 292.527H173.89V303.056H170.861ZM173.89 289.967H179.082C181.101 289.967 182.532 289.546 183.373 288.705C184.239 287.839 184.671 286.661 184.671 285.171C184.671 283.657 184.239 282.479 183.373 281.637C182.532 280.772 181.101 280.339 179.082 280.339H173.89V289.967ZM186.987 303.056L196.29 277.815H199.499L208.766 303.056H205.557L203.249 296.566H192.504L190.16 303.056H186.987ZM193.405 294.114H202.348L197.876 281.637L193.405 294.114ZM221.928 303.489C219.572 303.489 217.505 302.948 215.726 301.866C213.947 300.76 212.565 299.234 211.579 297.287C210.594 295.316 210.101 293.044 210.101 290.472C210.101 287.899 210.594 285.628 211.579 283.657C212.589 281.685 214.007 280.147 215.834 279.041C217.685 277.935 219.861 277.382 222.361 277.382C225.198 277.382 227.553 278.067 229.429 279.438C231.328 280.808 232.554 282.695 233.106 285.099H229.609C229.272 283.584 228.467 282.382 227.193 281.493C225.943 280.604 224.332 280.159 222.361 280.159C220.51 280.159 218.899 280.58 217.529 281.421C216.159 282.238 215.089 283.416 214.32 284.955C213.575 286.493 213.202 288.332 213.202 290.472C213.202 292.611 213.575 294.45 214.32 295.989C215.065 297.527 216.099 298.717 217.421 299.558C218.743 300.376 220.282 300.784 222.036 300.784C224.729 300.784 226.76 300.003 228.13 298.441C229.501 296.854 230.282 294.691 230.474 291.95H223.19V289.57H233.575V303.056H230.799L230.546 298.909C229.633 300.376 228.515 301.506 227.193 302.299C225.871 303.092 224.116 303.489 221.928 303.489ZM238.365 303.056V277.815H253.979V280.303H241.394V289.101H252.897V291.553H241.394V300.568H253.979V303.056H238.365ZM268.261 303.056V277.815H271.29L284.74 298.044V277.815H287.769V303.056H284.74L271.29 282.827V303.056H268.261ZM304.589 303.489C302.113 303.489 299.937 302.948 298.062 301.866C296.211 300.76 294.757 299.222 293.699 297.251C292.666 295.279 292.149 293.008 292.149 290.436C292.149 287.863 292.666 285.604 293.699 283.657C294.757 281.685 296.211 280.147 298.062 279.041C299.937 277.935 302.113 277.382 304.589 277.382C307.089 277.382 309.265 277.935 311.116 279.041C312.991 280.147 314.445 281.685 315.479 283.657C316.512 285.604 317.029 287.863 317.029 290.436C317.029 293.008 316.512 295.279 315.479 297.251C314.445 299.222 312.991 300.76 311.116 301.866C309.265 302.948 307.089 303.489 304.589 303.489ZM304.589 300.821C306.44 300.821 308.063 300.412 309.457 299.595C310.875 298.753 311.969 297.563 312.738 296.025C313.531 294.462 313.928 292.599 313.928 290.436C313.928 288.272 313.531 286.421 312.738 284.883C311.969 283.344 310.875 282.166 309.457 281.349C308.063 280.507 306.44 280.087 304.589 280.087C302.738 280.087 301.103 280.507 299.685 281.349C298.291 282.166 297.197 283.344 296.404 284.883C295.634 286.421 295.25 288.272 295.25 290.436C295.25 292.599 295.634 294.462 296.404 296.025C297.197 297.563 298.291 298.753 299.685 299.595C301.103 300.412 302.738 300.821 304.589 300.821ZM326.009 303.056V280.303H318.473V277.815H336.575V280.303H329.038V303.056H326.009ZM349.816 303.056V277.815H365.177V280.303H352.845V289.174H363.338V291.626H352.845V303.056H349.816ZM380.545 303.489C378.069 303.489 375.893 302.948 374.018 301.866C372.167 300.76 370.713 299.222 369.655 297.251C368.621 295.279 368.104 293.008 368.104 290.436C368.104 287.863 368.621 285.604 369.655 283.657C370.713 281.685 372.167 280.147 374.018 279.041C375.893 277.935 378.069 277.382 380.545 277.382C383.045 277.382 385.22 277.935 387.071 279.041C388.946 280.147 390.401 281.685 391.434 283.657C392.468 285.604 392.985 287.863 392.985 290.436C392.985 293.008 392.468 295.279 391.434 297.251C390.401 299.222 388.946 300.76 387.071 301.866C385.22 302.948 383.045 303.489 380.545 303.489ZM380.545 300.821C382.396 300.821 384.018 300.412 385.413 299.595C386.831 298.753 387.925 297.563 388.694 296.025C389.487 294.462 389.884 292.599 389.884 290.436C389.884 288.272 389.487 286.421 388.694 284.883C387.925 283.344 386.831 282.166 385.413 281.349C384.018 280.507 382.396 280.087 380.545 280.087C378.694 280.087 377.059 280.507 375.641 281.349C374.246 282.166 373.153 283.344 372.359 284.883C371.59 286.421 371.205 288.272 371.205 290.436C371.205 292.599 371.59 294.462 372.359 296.025C373.153 297.563 374.246 298.753 375.641 299.595C377.059 300.412 378.694 300.821 380.545 300.821ZM406.477 303.489C404.746 303.489 403.172 303.152 401.754 302.479C400.359 301.782 399.241 300.712 398.4 299.27C397.559 297.828 397.138 295.989 397.138 293.753V277.815H400.167V293.789C400.167 296.241 400.756 298.02 401.934 299.126C403.112 300.232 404.65 300.784 406.549 300.784C408.448 300.784 409.975 300.232 411.129 299.126C412.283 298.02 412.86 296.241 412.86 293.789V277.815H415.889V293.753C415.889 295.989 415.468 297.828 414.627 299.27C413.785 300.712 412.655 301.782 411.237 302.479C409.819 303.152 408.232 303.489 406.477 303.489ZM421.018 303.056V277.815H424.047L437.497 298.044V277.815H440.526V303.056H437.497L424.047 282.827V303.056H421.018ZM445.879 303.056V277.815H453.631C458.079 277.815 461.348 278.945 463.439 281.205C465.555 283.464 466.612 286.565 466.612 290.508C466.612 294.378 465.555 297.443 463.439 299.703C461.348 301.938 458.079 303.056 453.631 303.056H445.879ZM448.908 300.532H453.559C456.011 300.532 457.958 300.135 459.401 299.342C460.867 298.525 461.913 297.371 462.538 295.88C463.163 294.366 463.475 292.575 463.475 290.508C463.475 288.392 463.163 286.577 462.538 285.063C461.913 283.548 460.867 282.382 459.401 281.565C457.958 280.748 456.011 280.339 453.559 280.339H448.908V300.532Z" fill="#666666"/>
<path d="M6.30722 181.843C6.30722 181.843 1.93804 179.141 0.830588 182.739C-0.276863 186.337 -0.276863 191.595 0.830588 192.011C1.93804 192.426 8.3033 192.011 8.3033 192.011C8.3033 192.011 10.5374 183.989 6.30722 181.843Z" fill="#C6D1FF"/>
<path d="M114.488 183.973C114.488 183.973 104.664 177.055 102.288 188.146C102.288 188.146 104.589 194.31 105.76 205.578C109.855 206.413 113.887 207.383 117.829 208.461C117.828 198.03 117.012 188.496 114.488 183.973Z" fill="#4A6CFF"/>
<path d="M121.143 252.165L115.122 249.509C115.122 249.509 117.832 227.494 117.83 208.461C113.888 207.383 109.856 206.414 105.76 205.578C106.783 215.424 106.944 229.164 103.952 246.109C103.952 246.109 100.09 256.478 104.358 260.792C108.625 265.105 112.428 263.612 117.815 265.769C123.203 267.927 132.234 268.423 135.877 262.286C139.523 256.145 132.076 245.693 121.143 252.165Z" fill="#4A6CFF"/>
<path d="M54.9145 176.978C54.9145 176.978 45.0894 169.714 42.7148 181.359C42.7148 181.359 45.7075 189.793 46.602 204.994C50.4256 204.123 54.3172 203.459 58.2561 202.997C58.2694 191.926 57.4621 181.772 54.9145 176.978Z" fill="#4A6CFF"/>
<path d="M61.5696 248.575L55.5488 245.788C55.5488 245.788 58.231 222.909 58.2576 202.998C54.3187 203.461 50.4271 204.125 46.6035 204.996C47.1772 214.757 46.8888 227.3 44.3797 242.219C44.3797 242.219 40.5192 253.105 44.7863 257.636C49.0535 262.166 52.8564 260.597 58.2443 262.861C63.6322 265.126 72.6633 265.648 76.3065 259.203C79.9483 252.756 72.5022 241.781 61.5696 248.575Z" fill="#4A6CFF"/>
<path d="M98.3785 66.9219C102.53 59.4492 104.191 50.3176 100.87 42.0154C100.624 41.4757 100.351 40.9804 100.057 40.519C83.3163 46.315 58.5073 61.7706 46.2012 102.927C67.1348 97.5313 86.1818 86.7437 98.3785 66.9219Z" fill="#4A6CFF"/>
<path d="M123.694 30.5387C123.708 31.5426 123.916 32.4283 123.916 32.4283C123.916 32.4283 123.854 31.7053 123.694 30.5387Z" fill="#4A6CFF"/>
<path d="M130.652 43.3372C130.652 43.3372 140.318 44.1253 139.129 40.0193C137.94 35.9133 134.137 37.0326 134.137 37.0326C134.137 37.0326 144.119 29.069 138.177 25.584C132.236 22.1005 128.433 32.9251 128.433 32.9251C128.433 32.9251 128.908 27.9483 125.819 27.6984C124.031 27.5535 123.678 29.1577 123.696 30.5372C123.855 31.7038 123.917 32.4269 123.917 32.4269C123.917 32.4269 123.709 31.5412 123.696 30.5372C123.005 25.4746 120.489 12.0728 113.341 13.3888C104.548 15.0063 117.5 34.0444 117.5 34.0444C117.5 34.0444 114.886 31.9286 113.936 34.1686C112.985 36.4086 117.026 37.0311 117.026 37.0311C117.026 37.0311 109.951 37.0917 100.058 40.5161C100.353 40.9774 100.626 41.4742 100.871 42.0124C104.192 50.3146 102.531 59.4463 98.3796 66.919C86.1828 86.7408 67.1358 97.5284 46.2007 102.924C44.0346 110.167 42.25 118.196 40.971 127.121C40.971 127.121 34.7492 177.917 36.2174 180.379C39.2322 185.428 73.2054 191.679 111.147 190.279C114.682 190.149 117.79 187.786 118.995 184.304L137.111 137.4C143.14 121.786 146.532 105.167 146.835 88.3272C147.162 70.2931 144.119 50.4714 130.652 43.3372Z" fill="#4A6CFF"/>
<path d="M66.6633 105.452C65.1758 102.504 61.8076 100.007 54.3852 101.095C43.9006 102.632 35.3737 117.012 30.833 126.479C44.7774 122.185 57.6248 115.511 66.6633 105.452Z" fill="#4A6CFF"/>
<path d="M34.4513 135.831C40.274 125.642 51.8379 118.007 64.6689 117.955C65.7098 117.022 66.8365 115.424 67.6305 112.651C67.6305 112.651 68.3358 108.769 66.6635 105.452C57.625 115.512 44.7762 122.187 30.8333 126.479C28.5459 131.247 27.267 134.775 27.267 134.775C27.267 134.775 21.5907 134.114 20.3295 141.379C20.3295 141.379 19.6981 145.011 21.9057 146.332C21.9057 146.332 0.146974 178.031 4.87693 190.578C4.87693 190.578 4.03562 194.43 7.71431 195.752C7.71431 195.752 10.1318 201.034 13.7055 199.163C13.7055 199.163 10.7631 206.427 14.5468 207.858C18.3319 209.289 22.5355 208.739 24.0067 202.575C24.3808 201.009 25.1437 195.666 26.5454 188.366C23.2186 170.733 24.4843 152.248 34.4513 135.831Z" fill="#4A6CFF"/>
<path d="M34.4513 135.831C24.4843 152.247 23.2186 170.733 26.5469 188.365C30.6647 166.934 40.3139 128.614 61.9543 119.255C61.9543 119.255 63.2288 119.246 64.6689 117.955C51.8379 118.007 40.274 125.642 34.4513 135.831Z" fill="#4A6CFF"/>
<path d="M45.4346 105.551C45.4346 105.551 58.6131 95.3091 66.6669 105.451C66.6669 105.451 61.2908 98.4156 45.4346 105.551Z" fill="#4A6CFF"/>
<path d="M113.342 13.3903C113.342 13.3903 121.628 9.90969 123.807 31.8251C123.807 31.8251 122.435 27.1868 125.819 27.6999C129.204 28.2129 128.434 32.9266 128.434 32.9266C128.434 32.9266 130.776 22.8694 137.462 25.2292C144.148 27.5905 136.27 35.4742 134.138 37.0326C134.138 37.0326 138.748 36.2209 139.217 40.5176C139.217 40.5176 136.625 36.3066 132.94 38.1741C132.94 38.1741 141.282 28.102 136.677 27.1735C132.071 26.245 128.218 35.0617 128.218 35.0617C128.218 35.0617 127.555 29.0143 125.573 29.8734C123.588 30.7324 123.918 34.9064 123.918 34.9064C123.918 34.9064 120.052 14.1872 113.342 13.3903Z" fill="#607EFF"/>
<path d="M32.3577 190.488C28.3612 185.779 22.4957 186.201 22.4957 186.201C20.2113 192.57 20.6267 197.891 20.6267 197.891C20.6267 197.891 -1.9969 240.233 9.62616 234.007C18.4887 229.259 28.5105 232.596 32.7732 234.449C33.4386 234.739 34.1542 234.543 34.6022 234.07C26.9403 220.402 24.7446 204.085 32.3577 190.488Z" fill="#C6D1FF"/>
<path d="M35.9865 202.25C35.9171 196.541 34.3749 192.864 32.3581 190.488C24.745 204.085 26.9406 220.402 34.6026 234.07C34.848 233.81 35.0181 233.467 35.0447 233.068C35.3981 227.953 36.1462 215.347 35.9865 202.25Z" fill="#DAE1FF"/>
<path d="M106.345 87.6441C105.2 90.375 105.082 92.9418 106.079 93.378C107.077 93.8142 108.814 91.9556 109.958 89.2247C111.103 86.4938 111.221 83.9255 110.223 83.4893C109.226 83.0546 107.489 84.9132 106.345 87.6441Z" fill="#181818"/>
<path d="M129.154 93.1429C128.219 95.9522 128.296 98.522 129.324 98.8813C130.353 99.242 131.942 97.2563 132.878 94.447C133.813 91.6378 133.737 89.068 132.708 88.7087C131.679 88.3479 130.088 90.3336 129.154 93.1429Z" fill="#181818"/>
<path d="M124.067 76.5371C123.133 79.3464 123.208 81.9162 124.237 82.2754C125.266 82.6362 126.856 80.6505 127.792 77.8412C128.726 75.0319 128.651 72.4621 127.622 72.1014C126.593 71.7436 125.002 73.7293 124.067 76.5371Z" fill="#181818"/>
<path d="M116.533 116.898C113.922 114.553 110.483 113.293 106.984 113.561C106.93 113.565 106.873 113.569 106.819 113.574C101.281 114.028 99.581 105.607 106.928 103.873C114.277 102.139 122.845 106.116 125.012 112.057C126.911 117.254 121.612 121.462 116.533 116.898Z" fill="#181818"/>
<mask id="mask0_404_2296" style="mask-type:luminance" maskUnits="userSpaceOnUse" x="102" y="103" width="24" height="16">
<path d="M116.538 116.898C113.927 114.553 110.487 113.293 106.989 113.561C106.934 113.565 106.878 113.569 106.823 113.574C101.286 114.028 99.5859 105.607 106.933 103.873C114.281 102.139 122.85 106.116 125.017 112.057C126.916 117.254 121.617 121.462 116.538 116.898Z" fill="white"/>
</mask>
<g mask="url(#mask0_404_2296)">
<path d="M121.877 119.048C120.891 121.576 116.051 122.046 111.069 120.1C106.086 118.154 102.845 114.529 103.832 112.002C104.819 109.475 109.658 109.004 114.642 110.949C119.624 112.895 122.863 116.521 121.877 119.048Z" fill="#C6D1FF"/>
</g>
<path d="M152.391 135.049C158.18 110.828 141.921 100.833 141.921 100.833L140.166 105.894L132.377 128.367C129.652 144.395 120.006 135.998 120.006 135.998C119.218 133.521 118.272 135.998 118.272 135.998C118.272 135.998 118.272 126.257 118.272 119.901C118.272 113.544 116.696 110.902 113.7 112.554C110.704 114.205 111.651 127.248 111.651 127.248C109.522 124.029 107.787 127.331 107.787 127.331C107.787 127.331 107.157 125.927 105.659 126.093C104.162 126.259 104.083 127.91 104.083 127.91C103.61 127.084 101.561 124.443 99.6683 127.91C97.7757 131.377 102.979 150.198 111.509 155.812C113.199 156.924 115.588 157.746 118.374 158.166C132.423 155.005 145.031 147.473 152.391 135.049Z" fill="#4A6CFF"/>
<path d="M118.372 158.165C127.209 159.497 140.073 156.751 147.549 146.086C149.619 143.134 151.285 139.588 152.326 135.339C152.351 135.239 152.367 135.146 152.39 135.047C145.031 147.473 132.423 155.005 118.372 158.165Z" fill="#4A6CFF"/>
<path d="M134.393 139.152C134.393 139.152 125.985 141.964 118.272 135.999C118.272 135.999 121.059 111.984 115.116 112.085C115.116 112.085 110.002 110.947 111.594 126.303C111.594 126.303 109.201 124.768 107.786 127.332C107.786 127.332 105.229 124.388 104.114 127.662C104.114 127.662 100.487 124.345 99.2779 128.496C99.2779 128.496 94.6455 152.827 120.745 158.486C120.745 158.486 99.1079 153.248 99.9373 129.068C99.9373 129.068 100.144 127.616 101.701 127.538C103.258 127.459 104.139 129.276 104.139 129.276C104.139 129.276 104.658 126.888 105.852 127.175C107.045 127.461 107.876 129.121 107.876 129.121C107.876 129.121 108.291 126.423 110.082 126.865C111.871 127.305 111.924 129.381 111.924 129.381C111.924 129.381 110.991 112.103 114.935 112.725C118.878 113.348 117.685 137.321 117.685 137.321C117.685 137.321 126.713 144.859 134.393 139.152Z" fill="#4A6CFF"/>
<path d="M145.466 105.452C145.466 105.452 142.383 123.378 135.117 139.152C135.117 139.152 145.228 123.019 145.466 105.452Z" fill="#4A6CFF"/>
<path d="M35.0757 233.702C35.0757 238.91 28.6365 243.134 20.6907 243.134C12.7448 243.134 6.30566 238.91 6.30566 233.702C6.30566 228.493 12.7448 224.27 20.6907 224.27C28.6365 224.272 35.0757 228.493 35.0757 233.702Z" fill="#B1C0FF"/>
<path d="M18.124 234.064V253.586L22.5893 234.715C22.7505 234.03 22.4355 233.319 21.8131 232.992C21.2157 232.68 20.3951 232.408 19.4562 232.529C18.6933 232.629 18.124 233.294 18.124 234.064Z" fill="#C6D1FF"/>
<path d="M22.0684 250.714C22.0684 252.721 20.442 254.346 18.4356 254.346C16.4306 254.346 14.8027 252.719 14.8027 250.714C14.8027 248.708 16.4292 247.082 18.4356 247.082C20.4435 247.082 22.0684 248.708 22.0684 250.714Z" fill="#C6D1FF"/>
<path d="M474.767 80.2588C470.868 77.343 466.136 75.0084 460.444 74.0414C448.856 72.0734 440.943 75.9842 436.066 80.0872C448.957 81.2967 461.9 81.5244 474.767 80.2588Z" fill="#4A6CFF"/>
<path d="M474.765 80.2588C461.899 81.5259 448.955 81.2982 436.065 80.0887C431.751 83.7201 429.814 87.5038 429.814 87.5038C429.814 87.5038 419.373 94.7148 419.787 97.8745C420.198 101.034 422.122 99.9356 422.122 99.9356C422.122 103.026 423.769 102.408 423.769 102.408C423.769 102.408 421.366 114.563 424.662 114.701C427.959 114.838 430.398 104.896 430.398 104.896C430.398 104.896 430.269 107.368 434.236 106.622C438.202 105.875 437.782 96.8439 437.782 96.8439C441.902 85.1691 453.99 86.6107 453.99 86.6107C465.282 87.5969 473.792 97.7961 479.804 109.005C482.031 102.579 483.449 95.8932 483.515 89.2337C481.261 86.1479 478.368 82.9542 474.765 80.2588Z" fill="#4A6CFF"/>
<path d="M490.114 101.512C490.114 101.512 488.168 95.6122 483.515 89.2336C483.448 95.8917 482.03 102.578 479.804 109.005C487.615 123.568 491.212 139.835 491.212 139.835C493.135 116.209 490.114 101.512 490.114 101.512Z" fill="#4A6CFF"/>
<path d="M576.656 99.4551C576.656 99.4551 571.987 111.461 577.755 126.021C577.755 126.021 579.63 126.259 582.188 127.524C583.474 119.612 585.481 111.838 588.111 104.207C584.812 102.186 581.023 100.56 576.656 99.4551Z" fill="#4A6CFF"/>
<path d="M592.739 107.578C595.757 124.288 600.636 141.486 608.748 156.893C609.376 141.271 607.142 119.88 592.739 107.578Z" fill="#4A6CFF"/>
<path d="M592.74 107.578C591.317 106.363 589.782 105.23 588.112 104.207C585.481 111.838 583.475 119.612 582.188 127.524C589.178 130.983 601.277 142.124 594.237 177.116C594.237 177.116 587.059 182.61 587.06 186.936C587.062 191.263 589.43 192.395 589.43 192.395C589.43 192.395 587.575 196.721 591.285 196.721C594.993 196.721 598.085 197.546 599.114 198.061C600.143 198.576 602.822 197.339 604.264 198.061C605.707 198.781 609.104 198.781 610.342 197.649C611.578 196.516 610.753 180.856 606.427 176.118C606.427 176.118 608.303 167.951 608.747 156.892C600.637 141.486 595.757 124.288 592.74 107.578Z" fill="#4A6CFF"/>
<path d="M515.004 245.151C515.004 245.151 513.246 242.241 511.555 244.068C511.555 244.068 499.178 236.02 493.293 249.412C487.408 262.803 513.786 263.412 520.28 257.123C526.774 250.831 528.803 250.629 528.803 250.629C528.803 250.629 531.44 246.368 528.803 244.541C526.851 243.19 521.562 223.265 520.428 201.976C516.771 202.367 513.143 202.892 509.553 203.595L515.004 245.151Z" fill="#4A6CFF"/>
<path d="M521.092 179.814C521.092 179.814 509.12 169.263 505.873 175.553L509.552 203.595C513.143 202.892 516.772 202.367 520.427 201.976C520.03 194.51 520.143 186.874 521.092 179.814Z" fill="#4A6CFF"/>
<path d="M560.982 239.013C560.982 239.013 562.742 236.105 564.432 237.932C564.432 237.932 576.809 229.884 582.695 243.276C588.578 256.667 562.2 257.276 555.708 250.986C549.214 244.695 547.184 244.493 547.184 244.493C547.184 244.493 544.546 240.231 547.184 238.405C549.137 237.054 554.425 217.129 555.559 195.839C559.217 196.229 562.844 196.755 566.434 197.458L560.982 239.013Z" fill="#4A6CFF"/>
<path d="M554.894 173.676C554.894 173.676 566.867 163.125 570.113 169.415L566.434 197.458C562.842 196.754 559.215 196.228 555.559 195.839C555.955 188.372 555.843 180.738 554.894 173.676Z" fill="#4A6CFF"/>
<path d="M521.864 26.5791C522.027 26.9798 522.184 27.2149 522.184 27.2149C522.184 27.2149 522.074 26.9857 521.864 26.5791Z" fill="#4A6CFF"/>
<path d="M569.776 83.9656C572.998 85.9483 576.289 87.7211 579.647 89.315C576.902 68.6771 570.625 49.0742 557.8 37.5384C555.387 35.3693 552.736 33.496 549.841 31.9435C543.558 49.5326 553.874 74.4243 569.776 83.9656Z" fill="#4A6CFF"/>
<path d="M569.779 83.9656C553.875 74.4229 543.56 49.5326 549.843 31.9435C547.566 30.7207 545.14 29.6916 542.54 28.9035C542.54 28.9035 562.764 9.55936 550.995 1.44348C539.225 -6.67241 531.921 25.1834 531.921 25.1834C531.921 25.1834 528.269 17.0675 524.008 20.313C520.823 22.7394 521.379 25.3904 521.862 26.5763C522.072 26.9829 522.182 27.212 522.182 27.212C522.182 27.212 522.027 26.9769 521.862 26.5763C519.825 22.5974 508.4 1.43608 498.644 7.32671C487.891 13.8191 513.455 33.0968 513.455 33.0968C513.455 33.0968 507.034 37.7424 500.463 49.6597C489.9 68.8132 478.951 106.755 493.65 174.402C510.631 178.092 528.59 177.947 546.55 173.956C561.027 170.739 572.328 161.622 580.069 149.806C581.521 133.969 582.546 111.066 579.649 89.315C576.293 87.7211 573 85.9483 569.779 83.9656Z" fill="#4A6CFF"/>
<path d="M546.553 173.957C528.593 177.948 510.634 178.093 493.652 174.404C494.139 176.644 494.653 178.917 495.197 181.223C495.197 181.223 506.967 183.658 538.011 181.223C569.057 178.789 577.579 170.063 577.579 170.063C577.579 170.063 578.951 162.043 580.072 149.806C572.329 161.623 561.029 170.74 546.553 173.957Z" fill="#4A6CFF"/>
<path d="M530.619 65.8042C530.72 68.3444 531.559 70.3863 532.492 70.3642C533.428 70.342 534.105 68.2646 534.005 65.7244C533.906 63.1842 533.065 61.1423 532.129 61.1645C531.197 61.1881 530.52 63.2641 530.619 65.8042Z" fill="#181818"/>
<path d="M517.192 83.4614C517.291 86.0015 518.133 88.0434 519.067 88.0213C520.003 87.9991 520.68 85.9217 520.58 83.3815C520.479 80.8413 519.639 78.7994 518.705 78.8216C517.77 78.8438 517.093 80.9212 517.192 83.4614Z" fill="#181818"/>
<path d="M546.428 78.8216C545.494 78.8438 544.817 80.9212 544.916 83.4614C545.015 86.0015 545.856 88.0434 546.791 88.0213C547.727 87.9991 548.404 85.9217 548.302 83.3815C548.203 80.8413 547.363 78.7994 546.428 78.8216Z" fill="#181818"/>
<path d="M521.094 101.32C521.094 101.32 531.936 93.8366 546.611 99.7154C546.611 99.7154 532.704 91.1633 521.094 101.32Z" fill="#4A6CFF"/>
<path d="M518.886 99.4033C518.886 99.4033 522.252 99.7005 522.016 104.096C522.016 104.096 521.457 101.067 518.886 99.4033Z" fill="#4A6CFF"/>
<path d="M546.013 102.924C546.013 102.924 546.57 99.8942 549.143 98.2308C549.143 98.2308 545.775 98.5265 546.013 102.924Z" fill="#4A6CFF"/>
<path d="M528.965 102.924C528.965 102.924 533.718 101.039 539.065 102.924C539.065 102.924 533.955 99.492 528.965 102.924Z" fill="#4A6CFF"/>
<path d="M498.646 7.32962C498.646 7.32962 509.044 -1.01398 522.184 27.2149C522.184 27.2149 511.69 7.51296 498.646 7.32962Z" fill="#607EFF"/>
<path d="M553.244 14.2908C555.985 9.29318 555.194 -1.40873 546.197 0.213264C537.201 1.83674 531.921 25.1849 531.921 25.1849C528.254 18.4973 525.699 18.24 522.942 21.277C520.184 24.3155 522.182 27.2135 522.182 27.2135C522.14 23.4002 524.986 22.2928 524.986 22.2928C530.528 21.8063 532.561 31.6492 532.561 31.6492C532.561 31.6492 538.443 4.56027 546.373 2.6884C554.304 0.819484 553.244 14.2908 553.244 14.2908Z" fill="#607EFF"/>
</svg>
