<svg width="18" height="17" viewBox="0 0 18 17" fill="none" xmlns="http://www.w3.org/2000/svg">
<path id="Star 5" d="M7.97119 0.927049C8.27054 0.00573802 9.57395 0.00574017 9.8733 0.927051L11.1674 4.90983C11.3013 5.32185 11.6852 5.60081 12.1184 5.60081H16.3062C17.2749 5.60081 17.6777 6.84043 16.894 7.40983L13.506 9.87132C13.1555 10.126 13.0089 10.5773 13.1427 10.9894L14.4368 14.9721C14.7362 15.8934 13.6817 16.6596 12.898 16.0902L9.51003 13.6287C9.15954 13.374 8.68494 13.374 8.33446 13.6287L4.9465 16.0902C4.16279 16.6596 3.10831 15.8934 3.40766 14.9721L4.70174 10.9894C4.83562 10.5773 4.68896 10.126 4.33847 9.87132L0.950516 7.40983C0.166802 6.84043 0.56958 5.60081 1.5383 5.60081H5.72605C6.15927 5.60081 6.54323 5.32185 6.6771 4.90983L7.97119 0.927049Z" fill="#FFC700"/>
</svg>
