<svg width="108" height="32" viewBox="0 0 108 32" fill="none" xmlns="http://www.w3.org/2000/svg">
<path id="Vector" d="M103.002 32C103.585 32.0006 104.162 31.8864 104.7 31.664C105.239 31.4415 105.728 31.1152 106.141 30.7036C106.553 30.292 106.88 29.8032 107.104 29.2651C107.327 28.727 107.443 28.1501 107.443 27.5674C107.444 26.9848 107.33 26.4077 107.107 25.8691C106.885 25.3306 106.559 24.8411 106.147 24.4287C105.735 24.0163 105.246 23.6889 104.708 23.4654C104.17 23.2419 103.593 23.1266 103.011 23.126C101.834 23.1248 100.705 23.5911 99.872 24.4224C99.0391 25.2537 98.5705 26.3818 98.5693 27.5585C98.5681 28.7353 99.0344 29.8643 99.8657 30.6973C100.697 31.5302 101.825 31.9988 103.002 32ZM98.5604 15.4783H94.77C92.3352 15.4783 91.0241 17.3066 91.0241 20.3478V31.3445H83.8447V15.4783H80.7945C78.3552 15.4783 77.0487 17.3066 77.0487 20.3478V31.3445H69.8692V9.60981H77.0487V12.9097C78.2259 10.3501 79.8402 9.60981 82.2348 9.60981H91.0286V12.9097C92.2059 10.3501 93.8157 9.60981 96.2103 9.60981H98.5604V15.4783ZM68.2995 22.1717H53.3207C53.7131 24.6065 55.2382 25.9978 57.8068 25.9978C59.7243 25.9978 61.071 25.2174 61.508 23.8261L67.8625 25.6098C66.2973 29.3913 62.4221 31.6923 57.8068 31.6923C50.0119 31.6923 46.44 25.6499 46.44 20.4771C46.44 15.3935 49.5749 9.30658 57.3653 9.30658C65.6418 9.30658 68.3842 15.4783 68.3842 20.0446C68.3842 21.0435 68.3396 21.6945 68.295 22.1717H68.2995ZM61.3341 17.9576C61.1557 16.0847 59.809 14.3456 57.3697 14.3456C55.1044 14.3456 53.7577 15.3489 53.3207 17.9576H61.3341ZM33.9004 31.34H40.2148L48.0944 9.60535H40.8703L37.0353 22.2564L33.12 9.60535H25.9272L33.9004 31.34ZM4.46897 31.34H11.6128V15.4738H18.4088V31.34H25.5035V9.60535H11.6128V8.25864C11.6128 6.77815 12.6607 5.86845 14.3151 5.86845H18.4088V0H13.1289C7.94723 0 4.46451 3.17503 4.46451 7.82609V9.60981H0.419922V15.4783H4.46897V31.3445V31.34Z" fill="#C0C2CC"/>
</svg>
