<svg width="129" height="32" viewBox="0 0 129 32" fill="none" xmlns="http://www.w3.org/2000/svg">
<g id="logos:linkedin" clip-path="url(#clip0_2057_1426)">
<path id="Vector" d="M50.9029 18.7428L57.9659 27.4285H52.3887L46.1029 19.4515V27.4285H41.5314V4.5715H46.1029V18.0115L51.9087 11.4285H57.7372L50.9029 18.7428ZM32.6172 10.9715C31.6163 10.9866 30.6339 11.2439 29.7542 11.7216C28.8745 12.1993 28.1236 12.883 27.5659 13.7142V11.4285H23.2459V27.4285H27.8172V19.9543C27.7572 19.4117 27.8095 18.8627 27.9708 18.3413C28.1322 17.8199 28.3991 17.3372 28.755 16.9234C29.1109 16.5096 29.5482 16.1735 30.0396 15.936C30.531 15.6984 31.066 15.5646 31.6114 15.5428C34.2629 15.5428 34.6744 18.1485 34.6744 19.9543V27.4285H39.2459V18.9485C39.2459 13.92 37.5772 10.9715 32.7087 10.9715H32.6172ZM73.5314 19.7943C73.5489 20.1294 73.5489 20.4647 73.5314 20.8H61.5314V20.96C61.7262 21.9132 62.2543 22.7657 63.0209 23.3647C63.7875 23.9637 64.7424 24.27 65.7144 24.2285C66.4855 24.262 67.2554 24.1396 67.978 23.8687C68.7007 23.5977 69.3612 23.1837 69.9202 22.6515L72.9602 24.9373C71.9967 25.9206 70.8378 26.691 69.5583 27.1988C68.2788 27.7067 66.907 27.9407 65.5314 27.8857C64.3923 27.9577 63.251 27.7844 62.1846 27.3774C61.1182 26.9705 60.1515 26.3395 59.3498 25.527C58.5482 24.7145 57.9302 23.7394 57.5377 22.6676C57.1451 21.5959 56.9872 20.4523 57.0744 19.3143C57.051 18.1908 57.2592 17.0745 57.6861 16.035C58.113 14.9955 58.7495 14.0551 59.5558 13.2724C60.3621 12.4897 61.321 11.8814 62.3727 11.4856C63.4244 11.0897 64.5464 10.9147 65.6687 10.9715C69.9659 10.9715 73.5314 14.0115 73.5314 19.7943ZM69.2802 17.8285C69.2633 17.3758 69.1545 16.9312 68.9603 16.5219C68.7661 16.1126 68.4906 15.7471 68.1505 15.4477C67.8105 15.1483 67.4131 14.9213 66.9825 14.7804C66.5519 14.6396 66.0971 14.5879 65.6459 14.6285C63.6359 14.4113 61.8157 15.827 61.5314 17.8285H69.2802ZM4.96017 4.5715H0.388672V27.4285H14.1029V22.8575H4.96017V4.5715ZM87.2459 4.5715H91.8172V27.4285H87.4972V25.8285C86.9486 26.5043 86.2495 27.0424 85.4557 27.3996C84.6619 27.7568 83.7956 27.9233 82.9259 27.8857C81.8635 27.8585 80.8178 27.6142 79.8532 27.1679C78.8887 26.7217 78.0255 26.0829 77.3169 25.2908C76.6083 24.4986 76.0692 23.57 75.7327 22.5619C75.3962 21.5537 75.2694 20.4874 75.3602 19.4285C75.2522 18.3681 75.3662 17.2968 75.6949 16.2828C76.0236 15.2689 76.5597 14.3344 77.2692 13.5389C77.9786 12.7435 78.8459 12.1044 79.8159 11.6624C80.7858 11.2204 81.8371 10.9851 82.9029 10.9715C83.6968 10.9367 84.4896 11.0602 85.2353 11.3349C85.9809 11.6096 86.6644 12.03 87.2459 12.5715V4.5715ZM87.5887 19.4285C87.6606 18.9007 87.6184 18.3636 87.4651 17.8535C87.3118 17.3433 87.0509 16.872 86.7 16.4713C86.3491 16.0705 85.9163 15.7497 85.4309 15.5304C84.9454 15.3111 84.4186 15.1984 83.8859 15.2C81.6992 15.3587 80.0422 17.2393 80.1602 19.4285C80.0422 21.6177 81.6992 23.4985 83.8859 23.6572C84.4186 23.6588 84.9455 23.5462 85.4309 23.3269C85.9164 23.1076 86.3492 22.7867 86.7001 22.3859C87.051 21.9851 87.3119 21.5138 87.4652 21.0036C87.6185 20.4934 87.6606 19.9563 87.5887 19.4285ZM18.6744 4.11425C17.9393 4.12461 17.2355 4.41356 16.7051 4.92274C16.1748 5.43192 15.8574 6.1234 15.8172 6.8575C15.8172 8.43525 17.0964 9.7145 18.6744 9.7145C20.2524 9.7145 21.5312 8.435 21.5312 6.8575C21.4908 6.12348 21.1735 5.43211 20.6432 4.92298C20.1129 4.41386 19.4092 4.12492 18.6742 4.1145M16.3887 27.4285H20.9602V11.4285H16.3887V27.4285ZM128.389 2.28575V29.7143C128.389 30.3205 128.148 30.9019 127.719 31.3305C127.291 31.7592 126.709 32 126.103 32H98.6744C98.0682 32 97.4868 31.7592 97.0582 31.3305C96.6295 30.9019 96.3887 30.3205 96.3887 29.7143V2.28575C96.3887 1.67953 96.6295 1.09814 97.0582 0.669481C97.4868 0.240819 98.0682 0 98.6744 0L126.103 0C126.709 0 127.291 0.240819 127.719 0.669481C128.148 1.09814 128.389 1.67953 128.389 2.28575ZM105.531 11.4285H100.96V27.4285H105.531V11.4285ZM106.103 6.85725C106.103 5.27925 104.824 4 103.246 4C101.668 4 100.389 5.27925 100.389 6.85725C100.389 8.435 101.668 9.71425 103.246 9.71425C104.824 9.71425 106.103 8.435 106.103 6.85725ZM123.817 18.9485C123.817 13.92 122.149 10.9715 117.28 10.9715C116.264 10.9717 115.263 11.2219 114.366 11.7002C113.469 12.1786 112.704 12.8702 112.137 13.7142V11.4285H107.817V27.4285H112.389V19.9543C112.329 19.4117 112.381 18.8627 112.542 18.3413C112.704 17.8199 112.971 17.3372 113.327 16.9234C113.682 16.5096 114.12 16.1735 114.611 15.936C115.103 15.6984 115.638 15.5646 116.183 15.5428C118.834 15.5428 119.246 18.1485 119.246 19.9543V27.4285H123.817V18.9485Z" fill="#C0C2CC"/>
</g>
<defs>
<clipPath id="clip0_2057_1426">
<rect width="128" height="32" fill="white" transform="translate(0.388672)"/>
</clipPath>
</defs>
</svg>
