<svg width="99" height="32" viewBox="0 0 99 32" fill="none" xmlns="http://www.w3.org/2000/svg">
<g id="logos:google" clip-path="url(#clip0_2057_1416)">
<path id="Vector" d="M95.2648 19.5565L97.9703 21.3602C97.0922 22.6535 94.992 24.8725 91.361 24.8725C86.852 24.8725 83.4941 21.384 83.4941 16.9461C83.4941 12.2236 86.8877 9.01978 90.9814 9.01978C95.0987 9.01978 97.1159 12.2946 97.7686 14.0626L98.1246 14.9645L87.5166 19.3548C88.3235 20.9449 89.5814 21.7518 91.361 21.7518C93.141 21.7518 94.3749 20.8737 95.2648 19.5565ZM86.9471 16.6971L94.0309 13.7543C93.6393 12.7695 92.4766 12.0695 91.088 12.0695C89.3202 12.0695 86.864 13.6358 86.9471 16.6971Z" fill="#C0C2CC"/>
<path id="Vector_2" d="M78.3809 0.939209H81.798V24.1487H78.3809V0.939209Z" fill="#C0C2CC"/>
<path id="Vector_3" d="M72.9932 9.63682H76.2919V23.7334C76.2919 29.5831 72.8389 31.9919 68.757 31.9919C64.9127 31.9919 62.5989 29.4052 61.7327 27.305L64.7584 26.0471C65.3041 27.3404 66.6212 28.8713 68.757 28.8713C71.3793 28.8713 72.9932 27.2456 72.9932 24.2081V23.069H72.8746C72.0913 24.0182 70.5963 24.8724 68.6978 24.8724C64.7346 24.8724 61.1035 21.4195 61.1035 16.97C61.1035 12.4964 64.7346 9.00806 68.6978 9.00806C70.5845 9.00806 72.0913 9.85053 72.8746 10.7761H72.9932V9.63682ZM73.2304 16.97C73.2304 14.1696 71.3675 12.1286 68.9944 12.1286C66.5974 12.1286 64.5803 14.1696 64.5803 16.97C64.5803 19.7345 66.5974 21.7399 68.9944 21.7399C71.3677 21.7519 73.2306 19.7345 73.2306 16.97" fill="#C0C2CC"/>
<path id="Vector_4" d="M42.3448 16.9105C42.3448 21.4789 38.7851 24.8368 34.4185 24.8368C30.052 24.8368 26.4922 21.4671 26.4922 16.9105C26.4922 12.3185 30.052 8.97241 34.4185 8.97241C38.7851 8.97241 42.3448 12.3185 42.3448 16.9105ZM38.88 16.9105C38.88 14.0629 36.8152 12.1048 34.4185 12.1048C32.0217 12.1048 29.9569 14.0629 29.9569 16.9105C29.9569 19.7345 32.0217 21.7162 34.4185 21.7162C36.8154 21.7162 38.88 19.7345 38.88 16.9105Z" fill="#C0C2CC"/>
<path id="Vector_5" d="M59.6573 16.9461C59.6573 21.5144 56.0975 24.8723 51.731 24.8723C47.3643 24.8723 43.8047 21.5143 43.8047 16.9461C43.8047 12.3541 47.3643 9.01978 51.731 9.01978C56.0975 9.01978 59.6573 12.3423 59.6573 16.9461ZM56.1805 16.9461C56.1805 14.0984 54.1159 12.1403 51.719 12.1403C49.322 12.1403 47.2574 14.0984 47.2574 16.9461C47.2574 19.7701 49.3222 21.7518 51.719 21.7518C54.1277 21.7518 56.1805 19.7583 56.1805 16.9461Z" fill="#C0C2CC"/>
<path id="Vector_6" d="M13.464 21.3959C8.49216 21.3959 4.60035 17.3852 4.60035 12.4134C4.60035 7.44176 8.49216 3.4311 13.464 3.4311C16.1457 3.4311 18.1034 4.4871 19.551 5.83986L21.9362 3.45491C19.919 1.52081 17.2255 0.0491943 13.464 0.0491943C6.65311 0.0493848 0.921875 5.60272 0.921875 12.4134C0.921875 19.2241 6.65311 24.7776 13.464 24.7776C17.1424 24.7776 19.919 23.5673 22.0904 21.3128C24.3211 19.082 25.0093 15.9494 25.0093 13.4101C25.0093 12.6151 24.9144 11.7964 24.8076 11.1913H13.464V14.49H21.5445C21.3072 16.5547 20.6546 17.9667 19.6935 18.9277C18.5306 20.1025 16.6916 21.3959 13.464 21.3959Z" fill="#C0C2CC"/>
</g>
<defs>
<clipPath id="clip0_2057_1416">
<rect width="97.5238" height="32" fill="white" transform="translate(0.779297)"/>
</clipPath>
</defs>
</svg>
