<svg width="131" height="32" viewBox="0 0 131 32" fill="none" xmlns="http://www.w3.org/2000/svg">
<g id="logos:dribbble" clip-path="url(#clip0_2057_1428)">
<path id="Vector" d="M40.1179 12.7802C41.6062 12.7802 42.8125 11.5733 42.8125 10.0848C42.8125 8.59604 41.6062 7.38944 40.1179 7.38944C38.6297 7.38944 37.4233 8.59604 37.4233 10.0848C37.4233 11.5736 38.6297 12.7802 40.1179 12.7802ZM129.047 21.9893C128.638 21.7011 128.321 21.6533 128.059 22.2131C123.533 32.0152 115.906 27.1238 116.664 27.5543C118.355 26.7804 122.805 23.2122 122.132 18.2852C121.724 15.2741 119.139 13.9385 116.396 14.4167C111.608 15.2515 109.846 20.4162 110.743 24.9887C110.9 25.7739 111.181 26.4216 111.461 27.056C106.05 31.4562 103.901 23.1169 103.657 22.1204C103.647 22.067 107.835 18.5765 109 10.2588C110.221 1.54131 107.44 -0.0459941 104.596 0.00352969C99.3337 0.0952122 97.9117 11.0898 99.8221 20.2529C99.6621 20.2946 98.9174 20.707 97.721 20.7532C96.86 18.0442 93.1813 15.6696 92.2185 16.5846C89.8089 18.8736 92.8029 23.3488 94.9096 23.6998C93.644 31.4943 85.7296 29.5639 87.2029 19.7986C89.7802 15.0125 91.7403 7.8961 91.3906 3.59997C91.2666 2.07896 90.1421 0.041117 87.5988 0.142196C82.7072 0.33572 82.1753 11.3333 82.7488 19.1388C82.7204 18.9465 82.4481 20.0871 80.4435 20.6542C79.9694 18.0223 75.7317 15.3805 74.7341 16.6506C72.8666 19.0278 76.103 23.2663 77.6359 23.5619C76.3704 31.3562 68.4562 29.4258 69.9295 19.6604C72.5068 14.8746 74.4666 7.7582 74.1169 3.46207C73.993 1.9408 72.8687 -0.0970417 70.3252 0.00378366C65.4335 0.197561 64.9017 11.1952 65.4752 19.0006C65.4465 18.8053 65.1678 19.9835 63.0815 20.5412C63.0117 17.1266 58.7585 15.5609 57.7367 16.6504C55.9158 18.5925 58.1538 22.5772 60.2241 23.5619C58.9586 31.3562 51.0444 29.4258 52.5177 19.6604C55.095 14.8746 57.0551 7.7582 56.7051 3.46207C56.5814 1.9408 55.4569 -0.0970417 52.9134 0.00378366C48.0219 0.197561 47.6283 11.748 48.2018 19.5532C46.5906 26.4564 41.1874 35.0771 41.8894 17.808C41.9587 16.5965 42.0344 16.1366 41.4305 15.683C40.9779 15.3305 39.9488 15.5002 39.3863 15.5141C38.7026 15.5416 38.5312 15.9416 38.38 16.5463C38.028 18.1077 37.9648 19.6213 37.9145 21.6866C37.8815 22.6527 37.804 23.1035 37.432 24.4208C37.0604 25.7379 34.9405 28.1452 33.7799 27.7427C32.1698 27.1891 32.698 22.6435 32.9997 19.5205C33.2512 17.0524 32.4461 15.9441 30.3833 15.5411C29.1757 15.2894 28.442 15.328 27.1844 14.9315C25.995 14.5567 25.7261 12.307 23.1894 13.0567C21.802 13.4671 22.6939 16.4068 22.3605 18.5856C20.7211 29.3033 17.3101 29.5977 15.7276 24.3913C22.8547 6.93585 17.7893 0.0543233 14.8242 0.0543233C11.736 0.0543233 8.20582 2.18156 9.70067 15.7922C8.97381 15.5802 8.75032 15.4659 7.95464 15.4659C3.45458 15.4659 0.388672 19.1037 0.388672 23.5913C0.388672 28.079 3.45483 31.7171 7.95489 31.7171C10.6114 31.7171 12.4765 30.5089 13.8891 28.64C14.8108 29.9598 15.9331 31.7374 17.9854 31.6574C24.1027 31.4192 25.8818 18.8708 26.0918 18.1709C26.7458 18.2717 27.3644 18.4625 27.9684 18.5633C28.9746 18.7144 29.0477 19.1126 29.0249 20.1247C28.7582 28.659 30.3331 31.6472 33.9054 31.6472C35.8957 31.6472 37.6697 29.6917 38.8918 28.2933C39.8045 30.1772 41.259 31.5896 43.2103 31.647C47.9384 31.7645 49.7487 24.2285 49.5836 25.2203C49.4541 25.9985 51.1176 31.6045 55.9851 31.6249C62.0146 31.6503 63.1353 25.0197 63.2689 23.9091C63.2857 23.6881 63.2931 23.711 63.2689 23.9091L63.2644 23.9764C65.1785 23.6203 66.1662 22.594 66.1662 22.594C66.1662 22.594 67.7032 31.728 73.3967 31.6251C79.3091 31.5179 80.424 25.5243 80.5703 24.3555C80.5896 24.0782 80.601 24.1107 80.5703 24.3555L80.568 24.3898C82.8418 23.5626 83.4398 22.7324 83.4398 22.7324C83.4398 22.7324 84.6614 31.6848 90.6703 31.763C96.025 31.8331 98.0095 26.3497 98.0212 24.0546C98.9243 24.0642 100.595 23.5187 100.556 23.4877C100.556 23.4877 102.517 31.315 107.995 31.7171C110.566 31.9058 112.495 30.2699 113.595 29.5238C116.179 31.6167 124.785 34.29 130.219 25.0773C130.986 23.7551 129.337 22.1932 129.047 21.9893ZM7.73775 28.6781C5.11223 28.6781 3.42867 26.2504 3.42867 23.6327C3.42867 21.0153 4.97407 18.5877 7.59959 18.5877C8.78105 18.5877 9.43832 18.7177 10.3584 19.5179C10.5253 20.1755 10.9982 21.6922 11.2283 22.3809C11.5366 23.3026 11.9033 24.0871 12.2731 24.9409C11.7449 27.1309 10.0131 28.6781 7.73775 28.6781ZM14.1357 19.5949C14.0265 19.4209 14.0494 19.5278 13.9272 19.3635C13.4459 18.0543 12.5185 15.1322 12.411 11.8131C12.2896 8.05839 12.9154 3.65737 14.7602 3.65737C16.0103 3.65737 17.3388 12.5767 14.1355 19.5949M51.1036 15.6828C50.8075 13.4547 50.792 3.52201 53.1765 3.79553C54.4931 4.32886 52.3417 13.7016 51.1036 15.6828ZM68.5154 15.6828C68.2193 13.4547 68.2038 3.52201 70.5883 3.79553C71.9049 4.32886 69.7535 13.7016 68.5154 15.6828ZM85.7891 15.8212C85.4927 13.5929 85.4774 3.66016 87.8617 3.93369C89.1783 4.46702 87.0269 13.84 85.7891 15.8212ZM104.859 3.2142C107.039 2.98816 106.949 12.5084 102.573 18.5188C102.009 16.3464 101.144 3.9601 104.859 3.21394M114.022 23.6995C113.322 20.1625 115.131 17.8395 116.996 17.5847C117.648 17.4806 118.593 17.903 118.782 18.6925C119.091 20.1805 118.737 22.3878 114.562 25.1883C114.568 25.2122 114.178 24.4873 114.022 23.6995" fill="#C0C2CC"/>
</g>
<defs>
<clipPath id="clip0_2057_1428">
<rect width="130.032" height="32" fill="white" transform="translate(0.388672)"/>
</clipPath>
</defs>
</svg>
