<svg width="108" height="32" viewBox="0 0 108 32" fill="none" xmlns="http://www.w3.org/2000/svg">
<g id="logos:upwork" clip-path="url(#clip0_2057_1423)">
<path id="Vector" d="M29.6064 20.2098C27.866 20.2098 26.2353 19.4729 24.7537 18.2734L25.1144 16.5802L25.1301 16.5174C25.4514 14.7145 26.4706 11.6883 29.6064 11.6883C31.9581 11.6883 33.8709 13.6012 33.8709 15.9529C33.863 18.2969 31.9503 20.2098 29.6064 20.2098ZM29.6064 7.36897C25.6003 7.36897 22.4961 9.97164 21.2341 14.2519C19.3055 11.3591 17.8473 7.88641 16.9929 4.96228H12.6813V16.1803C12.6813 18.391 10.8782 20.1939 8.66749 20.1939C6.45677 20.1939 4.6539 18.391 4.6539 16.1803V4.96228H0.341846V16.1803C0.32616 20.7743 4.06556 24.5448 8.65934 24.5448C13.2531 24.5448 16.9931 20.7743 16.9931 16.1803V14.299C17.8318 16.047 18.8588 17.8108 20.1053 19.3788L17.4633 31.7961H21.877L23.7897 22.7888C25.4673 23.8628 27.3959 24.5371 29.6066 24.5371C34.3336 24.5371 38.1828 20.6644 38.1828 15.9372C38.1828 11.218 34.3336 7.36897 29.6066 7.36897" fill="#C0C2CC"/>
<path id="Vector_2" d="M51.3435 7.85506L54.1264 19.073L57.1917 7.85506H60.8448L56.1334 24.0667H52.4802L49.5877 12.778L46.7026 24.0588H43.0496L38.3379 7.84732H41.9911L45.0562 19.0653L47.8392 7.84732H51.3433L51.3435 7.85506ZM69.5856 7.36899C64.8429 7.36899 61.0016 11.218 61.0016 15.9529C61.0016 20.6958 64.8506 24.5371 69.5856 24.5371C74.3285 24.5371 78.1775 20.6958 78.1775 15.9529C78.1775 11.2102 74.3285 7.36899 69.5856 7.36899ZM69.5856 21.0094C66.7949 21.0094 64.5371 18.7516 64.5371 15.9609C64.5371 13.1702 66.8026 10.9124 69.5856 10.9124C72.3765 10.9124 74.634 13.17 74.634 15.9609C74.634 18.7438 72.3765 21.0094 69.5856 21.0094ZM88.6116 11.4847C86.158 11.4847 84.1746 13.4758 84.1746 15.9216V24.0588H80.4978V7.85506H84.1746V10.3479C84.1746 10.3479 85.7424 7.84711 88.9644 7.84711H90.0932V11.4847H88.6116ZM100.951 15.3259C103.561 13.852 105.333 11.0534 105.333 7.84711H101.656C101.656 10.5516 99.4612 12.7467 96.7567 12.7467H96.2627V0.0313721H92.5863V24.0586H96.2627V16.4233H96.7019C97.0625 16.4233 97.5329 16.6586 97.7445 16.9485L102.965 24.0588H107.371L100.951 15.3259Z" fill="#C0C2CC"/>
</g>
<defs>
<clipPath id="clip0_2057_1423">
<rect width="107.085" height="32" fill="white" transform="translate(0.302734)"/>
</clipPath>
</defs>
</svg>
