<svg width="110" height="36" viewBox="0 0 110 36" fill="none" xmlns="http://www.w3.org/2000/svg">
<g id="logos:google" clip-path="url(#clip0_285_7778)">
<path id="Vector" d="M106.583 22.0013L109.626 24.0304C108.638 25.4854 106.276 27.9818 102.191 27.9818C97.1182 27.9818 93.3406 24.0572 93.3406 19.0645C93.3406 13.7517 97.1583 10.1475 101.764 10.1475C106.396 10.1475 108.665 13.8317 109.399 15.8207L109.8 16.8353L97.8659 21.7744C98.7736 23.5632 100.189 24.471 102.191 24.471C104.193 24.471 105.581 23.4831 106.583 22.0013ZM97.2251 18.7845L105.194 15.4737C104.754 14.3659 103.446 13.5784 101.884 13.5784C99.8949 13.5784 97.1317 15.3405 97.2251 18.7845Z" fill="#FF302F"/>
<path id="Vector_2" d="M87.5872 1.05664H91.4314V27.1674H87.5872V1.05664Z" fill="#20B15A"/>
<path id="Vector_3" d="M81.5268 10.8411H85.2378V26.6998C85.2378 33.2807 81.3532 35.9906 76.7611 35.9906C72.4362 35.9906 69.8332 33.0806 68.8587 30.7179L72.2626 29.3027C72.8765 30.7577 74.3583 32.4799 76.7611 32.4799C79.7112 32.4799 81.5268 30.651 81.5268 27.2338V25.9524H81.3933C80.5122 27.0201 78.8302 27.9812 76.6944 27.9812C72.2358 27.9812 68.1509 24.0966 68.1509 19.0909C68.1509 14.0582 72.2358 10.1338 76.6944 10.1338C78.8169 10.1338 80.5122 11.0816 81.3933 12.1228H81.5268V10.8411ZM81.7936 19.0909C81.7936 15.9405 79.6979 13.6444 77.0281 13.6444C74.3315 13.6444 72.0622 15.9405 72.0622 19.0909C72.0622 22.2011 74.3315 24.4571 77.0281 24.4571C79.6981 24.4706 81.7938 22.2011 81.7938 19.0909" fill="#3686F7"/>
<path id="Vector_4" d="M47.0463 19.0241C47.0463 24.1635 43.0417 27.9412 38.1292 27.9412C33.2169 27.9412 29.2122 24.1503 29.2122 19.0241C29.2122 13.8581 33.2169 10.0938 38.1292 10.0938C43.0417 10.0938 47.0463 13.8581 47.0463 19.0241ZM43.1484 19.0241C43.1484 15.8205 40.8256 13.6177 38.1292 13.6177C35.4329 13.6177 33.11 15.8205 33.11 19.0241C33.11 22.2011 35.4329 24.4305 38.1292 24.4305C40.8258 24.4305 43.1484 22.2011 43.1484 19.0241Z" fill="#FF302F"/>
<path id="Vector_5" d="M66.5224 19.0645C66.5224 24.204 62.5176 27.9816 57.6053 27.9816C52.6928 27.9816 48.6882 24.2037 48.6882 19.0645C48.6882 13.8985 52.6928 10.1475 57.6053 10.1475C62.5176 10.1475 66.5224 13.8852 66.5224 19.0645ZM62.611 19.0645C62.611 15.861 60.2884 13.6581 57.5918 13.6581C54.8952 13.6581 52.5726 15.861 52.5726 19.0645C52.5726 22.2415 54.8954 24.471 57.5918 24.471C60.3017 24.471 62.611 22.2282 62.611 19.0645Z" fill="#FFBA40"/>
<path id="Vector_6" d="M14.5549 24.0702C8.96164 24.0702 4.58335 19.5582 4.58335 13.9649C4.58335 8.37182 8.96164 3.85982 14.5549 3.85982C17.5719 3.85982 19.7743 5.04782 21.4029 6.56968L24.0861 3.8866C21.8169 1.71075 18.7866 0.0551758 14.5549 0.0551758C6.89271 0.0553901 0.445068 6.30289 0.445068 13.9649C0.445068 21.6269 6.89271 27.8746 14.5549 27.8746C18.6932 27.8746 21.8169 26.513 24.2597 23.9767C26.7692 21.467 27.5434 17.9429 27.5434 15.0862C27.5434 14.1918 27.4367 13.2708 27.3165 12.59H14.5549V16.301H23.6456C23.3786 18.6239 22.6444 20.2124 21.5631 21.2935C20.2549 22.6152 18.186 24.0702 14.5549 24.0702Z" fill="#3686F7"/>
</g>
<defs>
<clipPath id="clip0_285_7778">
<rect width="109.714" height="36" fill="white" transform="translate(0.285645)"/>
</clipPath>
</defs>
</svg>
