<svg width="33" height="30" viewBox="0 0 33 30" fill="none" xmlns="http://www.w3.org/2000/svg">
<g id="content">
<g id="Group">
<path id="Vector" d="M16.1547 29.999C11.9965 29.999 7.8384 29.999 3.68124 29.999C1.46633 29.999 0 28.5337 0 26.3207C0 18.7742 0 11.2268 0 3.68027C0 1.4644 1.46344 0 3.67931 0C11.9956 0 20.3109 0 28.6271 0C30.844 0 32.3074 1.46247 32.3074 3.67835C32.3074 11.2248 32.3074 18.7723 32.3074 26.3188C32.3074 28.5356 30.844 29.999 28.6291 30C24.4709 30 20.3128 30 16.1556 30L16.1547 29.999ZM2.3074 6.92219C2.3074 7.08308 2.3074 7.20158 2.3074 7.31912C2.3074 13.6527 2.3074 19.9862 2.3074 26.3197C2.3074 26.4035 2.30547 26.4883 2.30932 26.5721C2.3363 27.1146 2.70818 27.6213 3.23902 27.656C4.07142 27.7099 4.9096 27.6704 5.76897 27.6704C5.76897 27.5028 5.76897 27.3612 5.76897 27.2186C5.76897 23.204 5.76801 19.1904 5.76897 15.1758C5.76994 13.0129 7.24879 11.5389 9.41842 11.5379C13.9012 11.537 18.384 11.537 22.8668 11.5379C25.0779 11.5379 26.5375 13.0052 26.5375 15.2269C26.5375 19.2289 26.5375 23.231 26.5375 27.2331V27.6916C27.2764 27.6916 27.9826 27.6926 28.6878 27.6916C29.5462 27.6897 29.9981 27.2388 29.999 26.3785C29.999 18.7954 29.999 11.2113 29.999 3.62825C29.999 2.76695 29.5462 2.30836 28.6946 2.30836C24.0913 2.30836 19.4881 2.31029 14.8858 2.30162C14.6276 2.30162 14.5101 2.39121 14.4012 2.61376C13.8386 3.76794 13.2442 4.90671 12.6892 6.06474C12.4002 6.66688 11.9724 6.93568 11.2981 6.93086C8.61781 6.91352 5.93757 6.92315 3.25829 6.92315H2.30836L2.3074 6.92219ZM24.231 27.6782V27.2832C24.231 23.257 24.231 19.2318 24.231 15.2057C24.231 14.2808 23.7907 13.8453 22.8591 13.8453C18.3888 13.8453 13.9186 13.8453 9.44828 13.8453C8.50895 13.8453 8.0783 14.2731 8.0783 15.2057C8.0783 19.2318 8.0783 23.257 8.0783 27.2832V27.6782H24.232H24.231ZM2.30932 4.61383C2.98372 4.61383 3.61669 4.61672 4.24966 4.61286C4.60709 4.60997 5.04544 4.71884 5.29882 4.55217C5.5522 4.38453 5.6235 3.93751 5.76705 3.60994C5.95106 3.18989 6.1264 2.76695 6.32101 2.30932C5.29786 2.30932 4.34022 2.29391 3.38258 2.3151C2.80549 2.32859 2.34401 2.80356 2.31414 3.38065C2.29391 3.77372 2.31029 4.16873 2.31029 4.61383H2.30932ZM11.9753 2.30643C11.4069 2.30643 10.8953 2.30258 10.3838 2.3074C9.8693 2.31221 9.23633 2.14554 8.87504 2.38543C8.51472 2.62533 8.42513 3.27467 8.21992 3.74482C8.09949 4.02229 7.98388 4.30168 7.85285 4.61383C8.81242 4.61383 9.7113 4.61672 10.6102 4.60901C10.7017 4.60901 10.8404 4.56084 10.8751 4.49244C11.2431 3.78432 11.5948 3.0685 11.9753 2.30643Z" fill="#607EFF"/>
<path id="Vector_2" d="M24.8264 3.46062C25.3794 3.46062 25.9314 3.4558 26.4844 3.46159C27.182 3.46929 27.6964 3.96931 27.6906 4.62444C27.6849 5.26511 27.1781 5.76127 26.4999 5.76609C25.3707 5.7738 24.2406 5.7738 23.1115 5.76609C22.4352 5.76127 21.9275 5.26126 21.9236 4.62058C21.9198 3.9616 22.4294 3.46833 23.1317 3.46159C23.6963 3.4558 24.2609 3.46062 24.8254 3.46062H24.8264Z" fill="#607EFF"/>
<path id="Vector_3" d="M16.1489 21.9217C14.6585 21.9217 13.169 21.9226 11.6786 21.9217C10.9127 21.9217 10.3876 21.4515 10.3847 20.7733C10.3818 20.0902 10.903 19.6162 11.667 19.6152C14.6594 19.6143 17.6508 19.6133 20.6432 19.6152C21.4014 19.6152 21.9265 20.0998 21.9198 20.781C21.913 21.4477 21.3928 21.9207 20.6548 21.9217C19.1528 21.9246 17.6508 21.9217 16.1489 21.9217Z" fill="#607EFF"/>
<path id="Vector_4" d="M16.1171 25.3832C14.6508 25.3832 13.1854 25.3832 11.7191 25.3832C10.9185 25.3832 10.3896 24.9275 10.3847 24.2377C10.3799 23.5421 10.905 23.0758 11.6998 23.0758C14.7038 23.0758 17.7077 23.0739 20.7126 23.0768C21.2926 23.0768 21.7184 23.3938 21.8745 23.9188C22.0152 24.389 21.8427 24.9198 21.4044 25.1722C21.1876 25.2975 20.9101 25.3707 20.6587 25.3736C19.1451 25.3919 17.6306 25.3823 16.1161 25.3823L16.1171 25.3832Z" fill="#607EFF"/>
<path id="Vector_5" d="M12.7075 18.4592C12.3231 18.4592 11.9387 18.4659 11.5543 18.4582C10.8847 18.4438 10.3789 17.936 10.3857 17.2944C10.3915 16.6643 10.8857 16.1653 11.5399 16.1556C12.3087 16.1441 13.0775 16.1441 13.8463 16.1556C14.4956 16.1653 14.9947 16.672 14.9976 17.2992C15.0014 17.9274 14.5072 18.437 13.8608 18.4573C13.4763 18.4688 13.0919 18.4592 12.7075 18.4592Z" fill="#607EFF"/>
</g>
</g>
</svg>
