<svg width="30" height="30" viewBox="0 0 30 30" fill="none" xmlns="http://www.w3.org/2000/svg">
<g id="ui">
<g id="Group">
<path id="Vector" d="M18.9511 25.1029V26.9343C19.199 26.9343 19.4435 26.9316 19.6888 26.9343C20.6232 26.9473 21.2052 27.5319 21.2157 28.4689C21.2183 28.729 21.2174 28.99 21.2157 29.2502C21.2113 29.8009 21.0182 29.9984 20.471 29.9992C17.8558 30.001 15.2397 29.9992 12.6245 29.9992C11.4196 29.9992 10.2155 30.0001 9.01061 29.9992C8.40075 29.9992 8.22327 29.8165 8.22153 29.1971C8.22153 28.9257 8.21457 28.6542 8.22327 28.3828C8.25111 27.5398 8.8253 26.9656 9.67093 26.936C9.93019 26.9264 10.1894 26.9343 10.4757 26.9343V25.1021C10.3469 25.1021 10.2208 25.1021 10.0946 25.1021C7.85874 25.1021 5.62287 25.1038 3.387 25.1021C1.35036 25.1003 0.00100458 23.7518 0.00100458 21.7178C0.000134588 15.5096 -0.000735401 9.30219 0.00100458 3.09395C0.00100458 1.56712 0.945812 0.370889 2.39347 0.0646534C2.64577 0.0115841 2.91025 0.00288229 3.1695 0.00288229C10.8646 -0.000597666 18.5587 -0.00059671 26.2538 0.00114327C28.1747 0.00114327 29.4327 1.26176 29.4327 3.18095C29.4336 9.35613 29.4127 15.5322 29.4449 21.7074C29.4553 23.6544 27.9711 25.1603 26.0241 25.1142C23.8004 25.062 21.575 25.1021 19.3496 25.1021C19.2225 25.1021 19.0955 25.1021 18.9494 25.1021L18.9511 25.1029ZM0.958863 20.3728H28.4749V19.9343C28.4749 14.389 28.4749 8.84458 28.4749 3.29927C28.4749 3.16877 28.4749 3.03914 28.4696 2.90864C28.427 1.93687 27.7458 1.15388 26.7906 0.989449C26.5887 0.95465 26.3808 0.945082 26.1755 0.945082C18.5361 0.943342 10.8967 0.941602 3.25737 0.950301C2.91721 0.950301 2.55703 0.993801 2.24036 1.11038C1.40604 1.41749 0.959734 2.15437 0.959734 3.13832C0.957994 8.76976 0.959734 14.4021 0.959734 20.0335C0.959734 20.1396 0.959734 20.2458 0.959734 20.3737L0.958863 20.3728ZM14.7247 23.5491C15.1762 23.5465 15.5242 23.1994 15.5268 22.7487C15.5294 22.2929 15.1562 21.9136 14.7099 21.9196C14.2601 21.9257 13.8965 22.3085 13.9069 22.7635C13.9182 23.2124 14.2714 23.5517 14.7247 23.5491Z" fill="#607EFF"/>
<path id="Vector_2" d="M18.6249 6.58436C21.2609 8.15556 22.6816 10.4175 22.9357 13.4225C23.0401 13.4277 23.1349 13.4303 23.2297 13.4373C23.5333 13.4616 23.7091 13.6287 23.716 13.9366C23.7273 14.4465 23.7273 14.9571 23.716 15.4661C23.7091 15.7688 23.5272 15.955 23.2245 15.9637C22.7147 15.9776 22.204 15.9776 21.695 15.9637C21.3914 15.9559 21.2026 15.7732 21.1922 15.4713C21.1739 14.9624 21.1722 14.4508 21.1905 13.9419C21.2035 13.5721 21.3888 13.4538 21.9804 13.419C21.9178 13.004 21.8934 12.5847 21.7881 12.1862C21.033 9.34136 19.2278 7.53353 16.3873 6.75663C16.1915 6.70269 16.0697 6.73052 15.9218 6.90539C15.7339 7.12811 15.4642 7.28296 15.2075 7.48567C15.2354 7.5457 15.2824 7.65271 15.3346 7.75798C16.3951 9.88075 17.4565 12.0035 18.517 14.1254C18.5457 14.1837 18.5761 14.2411 18.6066 14.2986C18.7145 14.5039 18.7501 14.7083 18.5909 14.9067C18.4291 15.1085 18.2168 15.1042 17.9976 15.0424C17.2259 14.8249 16.4421 14.6413 15.6886 14.3725C15.0335 14.1385 14.4246 14.1376 13.7695 14.3664C13.0343 14.6222 12.2713 14.7988 11.5223 15.0163C11.2708 15.0894 11.029 15.1398 10.8393 14.9006C10.661 14.6761 10.7489 14.4586 10.8611 14.2342C11.9442 12.074 13.0239 9.91207 14.1035 7.75015C14.1653 7.62574 14.2245 7.49959 14.2619 7.42303C14.0348 7.17944 13.8469 6.9602 13.6363 6.76358C13.5754 6.70616 13.4476 6.68094 13.3597 6.6966C10.5479 7.1951 8.1963 9.48317 7.6195 12.2828C7.54381 12.6491 7.50553 13.0232 7.44637 13.419C7.56643 13.426 7.6282 13.4294 7.69084 13.4338C8.0719 13.4573 8.23981 13.62 8.24764 14.0062C8.25721 14.4726 8.25895 14.9397 8.24677 15.4061C8.2372 15.7819 8.04928 15.9602 7.67344 15.9663C7.20713 15.9733 6.73994 15.9742 6.27363 15.9663C5.89605 15.9602 5.72119 15.7819 5.71423 15.4008C5.7064 15.0102 5.71162 14.6196 5.71249 14.229C5.71249 13.5486 5.79166 13.4642 6.5007 13.4199C6.5964 12.0122 6.98963 10.6872 7.74652 9.47969C8.50341 8.27389 9.5126 7.33169 10.8237 6.58524C10.6706 6.57306 10.6097 6.56349 10.5496 6.56349C9.60569 6.56262 8.66175 6.55565 7.71781 6.57218C7.59862 6.57392 7.43854 6.6705 7.37155 6.77141C7.00703 7.32386 6.40065 7.57963 5.79949 7.40303C5.19397 7.22555 4.80422 6.70182 4.80944 6.0702C4.81379 5.45773 5.20789 4.93835 5.79688 4.76783C6.40587 4.59122 7.02704 4.83308 7.35503 5.40553C7.45334 5.57692 7.56121 5.61868 7.73956 5.61781C9.58394 5.61259 11.4292 5.61259 13.2736 5.61781C13.451 5.61781 13.558 5.57779 13.659 5.40814C14.2071 4.48248 15.4625 4.47377 16.0114 5.39422C16.1193 5.57518 16.2315 5.61868 16.4229 5.61781C18.1812 5.61172 19.9385 5.61172 21.6968 5.61781C21.8786 5.61781 21.9821 5.57083 22.0796 5.40118C22.3997 4.84091 23.0105 4.59818 23.6082 4.76087C24.218 4.92704 24.62 5.44642 24.6243 6.07368C24.6287 6.70355 24.2363 7.22816 23.6299 7.4039C23.0401 7.57529 22.4084 7.33604 22.0883 6.78794C21.9839 6.60873 21.8725 6.5574 21.6785 6.55914C20.7668 6.56784 19.8559 6.56262 18.9441 6.56349C18.8624 6.56349 18.7797 6.57392 18.624 6.58349L18.6249 6.58436Z" fill="#607EFF"/>
</g>
</g>
</svg>
