<svg width="32" height="30" viewBox="0 0 32 30" fill="none" xmlns="http://www.w3.org/2000/svg">
<g id="ux">
<g id="Group">
<path id="Vector" d="M0 27.4353C0 19.1444 0 10.8536 0 2.56267C0.0183316 2.52684 0.0449958 2.49351 0.0533283 2.45602C0.392463 0.930328 1.54152 0.00208314 3.10804 0.00124988C11.6822 -0.000416627 20.2564 -0.000416627 28.8306 0.00124988C30.6421 0.00124988 31.9328 1.29446 31.9337 3.11179C31.9362 11.036 31.9353 18.9611 31.9312 26.8854C31.9312 27.1637 31.9045 27.4495 31.8387 27.7195C31.4962 29.1152 30.313 29.9968 28.8006 29.9968C21.1097 29.9976 13.4187 29.9968 5.72779 29.9968C4.80288 29.9968 3.87797 30.0059 2.95305 29.9934C1.67234 29.9759 0.551615 29.1452 0.150819 27.9345C0.0958243 27.7695 0.0499953 27.6012 0.000833255 27.4345L0 27.4353ZM1.99565 10.0136V10.3611C1.99565 15.8389 1.99565 21.3167 1.99565 26.7954C1.99565 27.6253 2.36561 27.9978 3.19053 27.9978C11.7139 27.9978 20.2373 27.9978 28.7598 27.9978C29.5655 27.9978 29.938 27.622 29.938 26.8104C29.938 21.3217 29.938 15.8339 29.938 10.3453V10.0136H1.99565ZM1.99565 7.978H29.9388C29.9388 6.37398 29.9388 4.79247 29.9388 3.21011C29.9388 2.36603 29.5705 2.00023 28.7206 2.00023C20.2289 2.00023 11.7372 2.00023 3.24636 2.00023C3.21553 2.00023 3.18387 2.00023 3.15304 2.00023C2.38644 2.00356 1.99814 2.38769 1.99731 3.14929C1.99648 4.36751 1.99731 5.58572 1.99731 6.80478C1.99731 7.18891 1.99731 7.57304 1.99731 7.978H1.99565Z" fill="#607EFF"/>
<path id="Vector_2" d="M5.98777 17.1672C5.98777 16.1464 5.9861 15.1257 5.98777 14.1058C5.98944 13.4467 6.40356 12.9942 6.99517 13.0001C7.57095 13.0059 7.98175 13.4567 7.98175 14.0966C7.98425 16.0756 7.97092 18.0537 7.98675 20.0327C8.00008 21.7101 9.37578 23.0274 11.0448 22.9966C12.6496 22.9666 13.9529 21.6542 13.9654 20.0194C13.9804 18.0304 13.9662 16.0414 13.9712 14.0525C13.9729 13.3034 14.6336 12.8184 15.3036 13.0609C15.6835 13.1984 15.9593 13.5492 15.9602 13.9625C15.9652 16.0764 16.0127 18.1921 15.9443 20.3035C15.8635 22.8216 13.7162 24.9006 11.2181 24.9939C8.61252 25.0914 6.32107 23.2316 6.0586 20.6918C5.93861 19.5286 6.03776 18.3429 6.03776 17.1672C6.02027 17.1672 6.00277 17.1672 5.98444 17.1672H5.98777Z" fill="#607EFF"/>
<path id="Vector_3" d="M21.9496 20.9584C21.8229 21.1684 21.7163 21.3426 21.6113 21.5184C21.018 22.5083 20.4272 23.4999 19.8306 24.4881C19.5981 24.8739 19.2465 25.0455 18.8015 24.9847C18.3883 24.9281 18.0266 24.6081 17.9983 24.1865C17.98 23.9165 18.0533 23.6015 18.1899 23.3665C18.9815 21.9992 19.7998 20.6468 20.6205 19.2961C20.748 19.0861 20.763 18.9328 20.6289 18.7128C19.7898 17.3371 18.9632 15.9531 18.1408 14.5674C17.7825 13.9633 18.0175 13.275 18.6391 13.0575C19.1065 12.8942 19.5673 13.0758 19.8556 13.5533C20.4947 14.6124 21.1288 15.6756 21.7654 16.7363C21.8179 16.8238 21.8746 16.9096 21.9529 17.033C22.0287 16.9171 22.0904 16.828 22.1462 16.7347C22.7937 15.6556 23.4361 14.574 24.0885 13.4983C24.3185 13.1183 24.7293 12.93 25.1235 13.015C25.5484 13.1058 25.8634 13.3633 25.9075 13.7966C25.935 14.0641 25.865 14.3849 25.7301 14.6182C24.9451 15.9772 24.1335 17.3221 23.3145 18.6611C23.1661 18.9036 23.1536 19.0761 23.307 19.3253C24.1377 20.6818 24.9501 22.0492 25.7634 23.4165C26.1109 24.0015 25.9184 24.6664 25.3451 24.9147C24.8693 25.1205 24.3585 24.9439 24.0644 24.4573C23.4244 23.3982 22.7912 22.3358 22.1537 21.2751C22.0971 21.1801 22.0346 21.0884 21.9504 20.9584H21.9496Z" fill="#607EFF"/>
<path id="Vector_4" d="M5.98608 5.00995C5.98108 5.55323 5.52863 5.99985 4.98701 5.99902C4.43373 5.99735 3.97877 5.52906 3.99294 4.97328C4.00627 4.42834 4.46206 3.99171 5.00701 4.00087C5.54779 4.01004 5.99192 4.46666 5.98608 5.00995Z" fill="#607EFF"/>
<path id="Vector_5" d="M7.99677 5.999C7.45515 6.0065 6.99686 5.56237 6.98603 5.02076C6.9752 4.46164 7.42682 4.00002 7.98427 4.00086C8.52589 4.00086 8.97668 4.45081 8.98001 4.9941C8.98334 5.53738 8.53839 5.99234 7.99677 5.999Z" fill="#607EFF"/>
<path id="Vector_6" d="M11.9739 5.01247C11.9672 5.55492 11.5139 6.00155 10.9723 5.99905C10.419 5.99655 9.96571 5.52659 9.98071 4.97081C9.99571 4.42586 10.4523 3.9909 10.9973 4.0009C11.5381 4.0109 11.9805 4.46919 11.9739 5.01247Z" fill="#607EFF"/>
</g>
</g>
</svg>
