<svg width="34" height="30" viewBox="0 0 34 30" fill="none" xmlns="http://www.w3.org/2000/svg">
<g id="web">
<g id="web_2">
<path id="Vector" d="M16.6682 0.000959619C21.2263 0.000959619 25.7853 0.000959619 30.3434 0.000959619C32.1695 0.000959619 33.3278 1.16207 33.3278 2.99298C33.3278 9.1488 33.3278 15.3036 33.3278 21.4595C33.3278 23.2846 32.1647 24.4428 30.3348 24.4428C21.2176 24.4428 12.1015 24.4428 2.98435 24.4428C1.15919 24.4428 0 23.2808 0 21.4499C0 15.2941 0 9.1392 0 2.98339C0 1.15727 1.16111 0 2.99298 0C7.55107 0 12.1101 0 16.6682 0V0.000959619ZM19.4414 10.5277C19.4414 13.5706 19.4433 16.6125 19.4376 19.6554C19.4376 19.8972 19.4587 20.0086 19.7581 20.0076C23.8066 19.9951 27.8561 19.9961 31.9047 20.0057C32.1638 20.0057 32.2242 19.9452 32.2242 19.6861C32.2156 14.0984 32.2185 8.51066 32.2175 2.92293C32.2175 1.79828 31.5275 1.11217 30.4 1.11217C26.8601 1.11121 23.3201 1.11697 19.7802 1.10354C19.4741 1.10258 19.4347 1.19758 19.4357 1.46914C19.4453 4.48899 19.4424 7.50789 19.4424 10.5277H19.4414ZM18.3302 10.5604C18.3302 7.529 18.3264 4.49763 18.3369 1.46626C18.3369 1.19086 18.2918 1.10258 17.9905 1.10354C12.9814 1.11505 7.97233 1.11121 2.96323 1.11217C1.78581 1.11217 1.11217 1.78389 1.11217 2.95844C1.11217 8.52314 1.11505 14.0888 1.1045 19.6535C1.1045 19.9452 1.17647 20.0066 1.46147 20.0057C6.96763 19.9961 12.4748 19.9961 17.9809 20.0057C18.265 20.0057 18.3398 19.9462 18.3389 19.6535C18.3264 16.6221 18.3312 13.5908 18.3312 10.5604H18.3302Z" fill="#607EFF"/>
<path id="Vector_2" d="M16.6557 25.554C18.3782 25.554 20.1007 25.5578 21.8241 25.5492C22.0333 25.5482 22.1494 25.5972 22.2444 25.7987C22.5093 26.361 22.8067 26.909 23.086 27.4646C23.7222 28.7312 22.9574 29.9941 21.5458 29.996C18.2851 30.0008 15.0254 30.0017 11.7647 29.996C10.3752 29.9931 9.60844 28.7264 10.2331 27.4799C10.5172 26.9128 10.8195 26.3553 11.0929 25.7833C11.1822 25.5962 11.2935 25.5492 11.4873 25.5502C13.2098 25.5569 14.9323 25.554 16.6557 25.554Z" fill="#607EFF"/>
<path id="Vector_3" d="M25.8314 11.6658C27.1374 11.6658 28.4434 11.6658 29.7485 11.6658C29.8291 11.6658 29.9106 11.662 29.9912 11.6677C30.3194 11.6908 30.5449 11.9134 30.5488 12.2147C30.5526 12.516 30.329 12.7501 30.0047 12.7741C29.8665 12.7847 29.7274 12.777 29.5892 12.777C27.0702 12.777 24.5503 12.777 22.0314 12.777C21.9623 12.777 21.8922 12.777 21.8232 12.777C21.3625 12.7741 21.1035 12.5678 21.1102 12.2109C21.1169 11.8654 21.3683 11.6668 21.8097 11.6668C22.7808 11.6648 23.751 11.6668 24.7221 11.6668H25.8314V11.6658Z" fill="#607EFF"/>
<path id="Vector_4" d="M25.794 15.5551C24.488 15.5551 23.1819 15.5551 21.8769 15.5551C21.7848 15.5551 21.6898 15.5646 21.6005 15.5483C21.3031 15.4936 21.1284 15.3132 21.1131 15.0071C21.0987 14.7192 21.3174 14.4774 21.6188 14.4506C21.8136 14.4333 22.0112 14.4448 22.208 14.4448C24.6808 14.4448 27.1537 14.4448 29.6266 14.4448C29.6842 14.4448 29.7417 14.4448 29.8003 14.4448C30.2926 14.4467 30.5564 14.6454 30.5497 15.009C30.543 15.3641 30.2887 15.5551 29.8166 15.5551C28.9155 15.556 28.0135 15.5551 27.1125 15.5551C26.673 15.5551 26.2344 15.5551 25.7949 15.5551H25.794Z" fill="#607EFF"/>
<path id="Vector_5" d="M25.8295 17.2209C27.124 17.2209 28.4185 17.2209 29.712 17.2209C29.7811 17.2209 29.8511 17.219 29.9202 17.2209C30.3012 17.2315 30.544 17.4426 30.5488 17.767C30.5545 18.0932 30.3108 18.3178 29.9375 18.3312C29.8569 18.3341 29.7753 18.3312 29.6947 18.3312C27.1182 18.3312 24.5407 18.3312 21.9642 18.3312C21.8721 18.3312 21.779 18.335 21.6869 18.3302C21.3395 18.311 21.1054 18.0817 21.1102 17.767C21.115 17.4522 21.3491 17.2277 21.7042 17.2229C22.3049 17.2152 22.9056 17.22 23.5072 17.22C24.2816 17.22 25.056 17.22 25.8304 17.22L25.8295 17.2209Z" fill="#607EFF"/>
<path id="Vector_6" d="M30.5507 6.11454C30.5555 6.27575 30.473 6.40146 30.3828 6.52237C29.8703 7.20656 29.3579 7.89172 28.8416 8.57303C28.5873 8.90889 28.286 8.9799 28.0087 8.78318C27.7208 8.57879 27.6988 8.25348 27.9579 7.90323C28.3503 7.37449 28.739 6.84288 29.1458 6.32565C29.2783 6.15676 29.2658 6.05025 29.1391 5.88808C28.7332 5.36989 28.3436 4.83828 27.9521 4.30954C27.7036 3.97368 27.7199 3.66181 27.9886 3.45262C28.2668 3.23575 28.5845 3.30676 28.8464 3.65414C29.355 4.32681 29.8588 5.00333 30.3655 5.67793C30.4634 5.80843 30.5564 5.9399 30.5507 6.11454Z" fill="#607EFF"/>
<path id="Vector_7" d="M23.3297 3.87491C23.3249 4.07546 23.2318 4.20597 23.133 4.33647C22.7511 4.8441 22.3816 5.36132 21.9872 5.85935C21.8443 6.04072 21.8164 6.15491 21.9757 6.35163C22.3826 6.85446 22.7588 7.38127 23.1435 7.90138C23.4026 8.25259 23.3825 8.57693 23.0956 8.78229C22.8192 8.97996 22.5179 8.90991 22.2636 8.57501C21.7473 7.8937 21.2397 7.20567 20.7206 6.52627C20.5085 6.24799 20.4979 5.98986 20.7119 5.70774C21.2435 5.00915 21.7665 4.30385 22.2933 3.60238C22.4622 3.37688 22.6791 3.27036 22.9574 3.37112C23.2011 3.4594 23.3163 3.64748 23.3278 3.87491H23.3297Z" fill="#607EFF"/>
<path id="Vector_8" d="M26.6653 3.90268C26.6537 3.96218 26.6442 4.03031 26.6269 4.09748C26.2718 5.51576 25.9177 6.93405 25.5598 8.35233C25.4591 8.75152 25.198 8.95016 24.8823 8.88011C24.5417 8.8043 24.3853 8.49915 24.486 8.0942C24.8392 6.67592 25.1923 5.25667 25.5493 3.83935C25.6404 3.47662 25.8822 3.28662 26.1845 3.34324C26.4839 3.39889 26.6374 3.59369 26.6653 3.9046V3.90268Z" fill="#607EFF"/>
<path id="Vector_9" d="M10.0345 2.77808C12.0122 2.77808 13.99 2.77808 15.9667 2.77808C16.7699 2.77808 17.218 3.21949 17.218 4.01308C17.22 5.78257 17.22 7.55207 17.218 9.32157C17.218 10.0998 16.769 10.5537 15.9974 10.5537C11.9959 10.5556 7.99441 10.5556 3.99385 10.5537C3.23673 10.5537 2.779 10.1017 2.77804 9.35323C2.77516 7.56071 2.77516 5.76818 2.77804 3.97565C2.779 3.22333 3.23289 2.77904 3.99769 2.77904C6.00996 2.77712 8.02223 2.77904 10.0345 2.77904V2.77808Z" fill="#607EFF"/>
<path id="Vector_10" d="M6.09152 18.3321C5.38621 18.3321 4.68091 18.335 3.97657 18.3321C3.24151 18.3282 2.78187 17.8763 2.77995 17.1479C2.77611 15.7143 2.77611 14.2807 2.77995 12.848C2.78187 12.1312 3.23576 11.6706 3.94586 11.6686C5.39101 11.6638 6.8352 11.6638 8.28036 11.6686C8.97031 11.6706 9.43955 12.1321 9.44243 12.8173C9.44819 14.2739 9.44914 15.7306 9.44243 17.1873C9.43955 17.8705 8.96839 18.3273 8.27748 18.333C7.54914 18.3388 6.82081 18.334 6.09248 18.334L6.09152 18.3321Z" fill="#607EFF"/>
<path id="Vector_11" d="M13.869 18.3321C13.1753 18.3321 12.4815 18.334 11.7886 18.3321C11.0066 18.3302 10.5565 17.8868 10.5546 17.1144C10.5527 15.7037 10.5527 14.2941 10.5546 12.8835C10.5556 12.1081 11.0037 11.6677 11.7886 11.6667C13.1877 11.6648 14.5859 11.6648 15.985 11.6667C16.7651 11.6667 17.218 12.112 17.219 12.8835C17.2219 14.2941 17.2219 15.7037 17.219 17.1144C17.2171 17.8839 16.7632 18.3292 15.985 18.3321C15.2797 18.334 14.5744 18.3321 13.87 18.3321H13.869Z" fill="#607EFF"/>
</g>
</g>
</svg>
