<svg width="58" height="59" viewBox="0 0 58 59" fill="none" xmlns="http://www.w3.org/2000/svg">
<g id="35, Online, Tutorials, Video, Computer">
<g id="Group">
<path id="Vector" d="M53.2401 9.3H4.08008C2.26008 9.3 0.840088 10.7 0.840088 12.5V46.1C0.840088 47.9 2.26008 49.3 4.08008 49.3H53.2401C55.0601 49.3 56.4801 47.9 56.4801 46.1V12.5C56.4801 10.7 55.0601 9.3 53.2401 9.3Z" fill="#618BAA"/>
<path id="Vector_2" d="M52.7399 13.1H4.68994V41.9H52.7399V13.1Z" fill="#E3F4FF"/>
<path id="Vector_3" d="M31.1899 18.9V27.2C31.1899 28.4 30.2799 29.3 29.0699 29.3H10.5599C9.34994 29.3 8.43994 28.4 8.43994 27.2V18.9C8.43994 17.7 9.34994 16.8 10.5599 16.8H29.0699C30.2799 16.8 31.1899 17.7 31.1899 18.9Z" fill="#FD6096"/>
<path id="Vector_4" d="M38.87 33.1H35.03V38.1H38.87V33.1Z" fill="#006BE0"/>
<path id="Vector_5" d="M48.9 33.1H38.78V38.1H48.9V33.1Z" fill="#43A3F9"/>
<path id="Vector_6" d="M38.87 24.9H35.03V29.9H38.87V24.9Z" fill="#009959"/>
<path id="Vector_7" d="M48.9 24.9H38.78V29.9H48.9V24.9Z" fill="#00D27E"/>
<path id="Vector_8" d="M38.87 16.8H35.03V21.8H38.87V16.8Z" fill="#FDB659"/>
<path id="Vector_9" d="M48.9 16.8H38.78V21.8H48.9V16.8Z" fill="#FEDE93"/>
<path id="Vector_10" d="M52.33 0.6C53.95 0.6 55.16 1.9 55.16 3.4C55.16 5 53.84 6.2 52.33 6.2C50.82 6.2 49.5 4.9 49.5 3.4C49.5 1.8 50.82 0.6 52.33 0.6Z" fill="#FD9426"/>
<path id="Vector_11" d="M6.50998 51.8C7.92998 51.8 9.03995 52.9 9.03995 54.3C9.03995 55.7 7.92998 56.8 6.50998 56.8C5.08998 56.8 3.97998 55.7 3.97998 54.3C3.97998 52.9 5.08998 51.8 6.50998 51.8Z" fill="#FD9426"/>
<path id="Vector_12" d="M32.5099 49.3H24.9199V54.3H32.5099V49.3Z" fill="#4E7693"/>
<path id="Vector_13" d="M39.38 54.3C40.39 54.3 41.3 55.1 41.3 56.2C41.3 57.2 40.49 58.1 39.38 58.1H17.93C16.92 58.1 16.01 57.3 16.01 56.2C16.01 55.2 16.82 54.3 17.93 54.3H39.38Z" fill="#618BAA"/>
<path id="Vector_14" d="M21.6799 22.2C22.2899 22.6 22.2899 23.5 21.6799 23.8L18.8499 25.4C18.2399 25.8 17.4299 25.3 17.4299 24.6V21.4C17.4299 20.7 18.2399 20.2 18.8499 20.6L21.6799 22.2Z" fill="#E3F4FF"/>
<path id="Vector_15" d="M54.8599 54.9C55.3699 54.9 55.77 55.3 55.77 55.8C55.77 56.3 55.3699 56.7 54.8599 56.7C54.3499 56.7 53.95 56.3 53.95 55.8C53.95 55.3 54.3499 54.9 54.8599 54.9Z" fill="black"/>
<path id="Vector_16" d="M44.7501 51.2C45.2601 51.2 45.66 51.6 45.66 52.1C45.66 52.6 45.2501 53 44.7501 53C44.2501 53 43.8401 52.6 43.8401 52.1C43.8401 51.6 44.2401 51.2 44.7501 51.2Z" fill="black"/>
<path id="Vector_17" d="M43.5302 1.2C44.0302 1.2 44.4401 1.6 44.4401 2.1C44.4401 2.6 44.0302 3 43.5302 3C43.0302 3 42.6201 2.6 42.6201 2.1C42.6201 1.6 43.0302 1.2 43.5302 1.2Z" fill="black"/>
<path id="Vector_18" d="M29.5701 44.7C29.7701 44.9 29.9701 45.2 29.9701 45.6C29.9701 45.9 29.8701 46.3 29.5701 46.5C29.3701 46.7 29.0601 46.9 28.6601 46.9C27.9501 46.9 27.3501 46.3 27.3501 45.6C27.3501 45.3 27.4501 44.9 27.7501 44.7C27.9501 44.5 28.2601 44.3 28.6601 44.3C29.0601 44.3 29.3701 44.4 29.5701 44.7Z" fill="black"/>
<path id="Vector_19" d="M18.8499 1.2C19.3499 1.2 19.7599 1.6 19.7599 2.1C19.7599 2.6 19.3499 3 18.8499 3C18.3499 3 17.9399 2.6 17.9399 2.1C17.9399 1.6 18.3499 1.2 18.8499 1.2Z" fill="black"/>
<path id="Vector_20" d="M13.7899 51.2C14.2999 51.2 14.6999 51.6 14.6999 52.1C14.6999 52.6 14.2999 53 13.7899 53C13.2799 53 12.8799 52.6 12.8799 52.1C12.8799 51.6 13.2799 51.2 13.7899 51.2Z" fill="black"/>
<path id="Vector_21" d="M11.2601 5.6C11.7601 5.6 12.1701 6 12.1701 6.5C12.1701 7 11.7601 7.4 11.2601 7.4C10.7601 7.4 10.3501 7 10.3501 6.5C10.3501 6 10.7601 5.6 11.2601 5.6Z" fill="black"/>
<path id="Vector_22" d="M18.4401 26.2C17.5301 26.2 16.8201 25.5 16.8201 24.6V21.4C16.8201 20.5 17.5301 19.8 18.4401 19.8C18.7401 19.8 18.9501 19.9 19.2501 20L22.0801 21.6C22.5901 21.9 22.8901 22.4 22.8901 22.9C22.8901 23.5 22.5901 24 22.0801 24.2L19.2501 25.8C18.9501 26.1 18.6401 26.2 18.4401 26.2ZM18.4401 21.1C18.3401 21.1 18.1401 21.2 18.1401 21.4V24.6C18.1401 24.8 18.3401 24.9 18.4401 24.9H18.6401L21.47 23.3C21.57 23.2 21.67 23.1 21.67 23C21.67 22.9 21.67 22.8 21.47 22.7L18.6401 21.1C18.5401 21.2 18.4401 21.1 18.4401 21.1Z" fill="black"/>
<path id="Vector_23" d="M29.0701 29.9H10.5601C9.04006 29.9 7.83008 28.7 7.83008 27.2V18.9C7.83008 17.4 9.04006 16.2 10.5601 16.2H29.0701C30.5901 16.2 31.8 17.4 31.8 18.9V27.2C31.8 28.7 30.5901 29.9 29.0701 29.9ZM10.5601 17.4C9.75006 17.4 9.04004 18.1 9.04004 18.9V27.2C9.04004 28 9.75006 28.7 10.5601 28.7H29.0701C29.8801 28.7 30.5901 28 30.5901 27.2V18.9C30.5901 18.1 29.8801 17.4 29.0701 17.4H10.5601Z" fill="black"/>
<path id="Vector_24" d="M24.92 54.9C24.62 54.9 24.3101 54.6 24.3101 54.3V49.3C24.3101 49 24.61 48.7 24.92 48.7C25.23 48.7 25.5301 49 25.5301 49.3V54.3C25.5301 54.6 25.23 54.9 24.92 54.9Z" fill="black"/>
<path id="Vector_25" d="M32.5099 54.9C32.2099 54.9 31.8999 54.6 31.8999 54.3V49.3C31.8999 49 32.1999 48.7 32.5099 48.7C32.8199 48.7 33.1199 49 33.1199 49.3V54.3C33.1199 54.6 32.8199 54.9 32.5099 54.9Z" fill="black"/>
<path id="Vector_26" d="M39.3799 58.7H17.9299C16.5099 58.7 15.3999 57.6 15.3999 56.2C15.3999 55.5 15.6999 54.9 16.1099 54.4C16.6199 53.9 17.2199 53.7 17.9299 53.7H39.4799C40.8999 53.7 42.0099 54.8 42.0099 56.2C42.0099 56.9 41.7099 57.5 41.2999 58C40.6899 58.4 40.0899 58.7 39.3799 58.7ZM17.9299 54.9C17.6299 54.9 17.3199 55 17.0199 55.3C16.8199 55.5 16.6199 55.9 16.6199 56.2C16.6199 56.9 17.2299 57.5 17.9399 57.5H39.4899C39.7899 57.5 40.0999 57.4 40.3999 57.1C40.5999 56.9 40.7999 56.5 40.7999 56.2C40.7999 55.5 40.1899 54.9 39.4899 54.9H17.9399H17.9299Z" fill="black"/>
<path id="Vector_27" d="M6.51013 57.4C4.79013 57.4 3.37012 56 3.37012 54.3C3.37012 52.6 4.79013 51.2 6.51013 51.2C8.23013 51.2 9.65015 52.6 9.65015 54.3C9.75015 56 8.23013 57.4 6.51013 57.4ZM6.51013 52.4C5.50013 52.4 4.59012 53.2 4.59012 54.3C4.59012 55.4 5.40013 56.2 6.51013 56.2C7.62013 56.2 8.43011 55.4 8.43011 54.3C8.43011 53.2 7.62013 52.4 6.51013 52.4Z" fill="black"/>
<path id="Vector_28" d="M53.24 49.9H4.07999C1.95999 49.9 0.23999 48.2 0.23999 46.1V12.5C0.23999 10.4 1.95999 8.7 4.07999 8.7H53.24C55.36 8.7 57.08 10.4 57.08 12.5V46.1C57.08 48.2 55.36 49.9 53.24 49.9ZM4.07999 9.9C2.65999 9.9 1.45001 11.1 1.45001 12.5V46.1C1.45001 47.5 2.65999 48.7 4.07999 48.7H53.24C54.66 48.7 55.87 47.5 55.87 46.1V12.5C55.87 11.1 54.66 9.9 53.24 9.9H4.07999Z" fill="black"/>
<path id="Vector_29" d="M52.7401 42.4H4.69009C4.39009 42.4 4.08008 42.1 4.08008 41.8V13.1C4.08008 12.8 4.38009 12.5 4.69009 12.5H52.7401C53.0401 12.5 53.3501 12.8 53.3501 13.1V41.8C53.3501 42.1 53.0501 42.4 52.7401 42.4ZM5.30008 41.2H52.1401V13.7H5.30008V41.2Z" fill="black"/>
<path id="Vector_30" d="M52.3301 6.8C50.4101 6.8 48.8901 5.3 48.8901 3.4C48.8901 1.5 50.4101 0 52.3301 0C54.2501 0 55.7701 1.5 55.7701 3.4C55.8701 5.3 54.2501 6.8 52.3301 6.8ZM52.3301 1.2C51.1201 1.2 50.1001 2.2 50.1001 3.4C50.1001 4.6 51.1101 5.6 52.3301 5.6C53.5501 5.6 54.5601 4.6 54.5601 3.4C54.5601 2.2 53.5501 1.2 52.3301 1.2Z" fill="black"/>
<path id="Vector_31" d="M38.7801 22.4H34.9401C34.6401 22.4 34.3301 22.1 34.3301 21.8V16.8C34.3301 16.5 34.6301 16.2 34.9401 16.2H38.7801C39.0801 16.2 39.3901 16.5 39.3901 16.8C39.3901 17.1 39.0901 17.4 38.7801 17.4H35.6401V21.2H38.7801C39.0801 21.2 39.3901 21.5 39.3901 21.8C39.3901 22.1 39.0901 22.4 38.7801 22.4Z" fill="black"/>
<path id="Vector_32" d="M48.89 22.4H38.77C38.47 22.4 38.1599 22.1 38.1599 21.8V16.8C38.1599 16.5 38.46 16.2 38.77 16.2H48.89C49.19 16.2 49.4999 16.5 49.4999 16.8V21.8C49.4999 22.1 49.2 22.4 48.89 22.4ZM39.3799 21.2H48.28V17.4H39.3799V21.2Z" fill="black"/>
<path id="Vector_33" d="M38.7801 30.6H34.9401C34.6401 30.6 34.3301 30.3 34.3301 30V25C34.3301 24.7 34.6301 24.4 34.9401 24.4H38.7801C39.0801 24.4 39.3901 24.7 39.3901 25C39.3901 25.3 39.0901 25.6 38.7801 25.6H35.6401V29.4H38.7801C39.0801 29.4 39.3901 29.7 39.3901 30C39.3901 30.3 39.0901 30.6 38.7801 30.6Z" fill="black"/>
<path id="Vector_34" d="M48.89 30.6H38.77C38.47 30.6 38.1599 30.3 38.1599 30V25C38.1599 24.7 38.46 24.4 38.77 24.4H48.89C49.19 24.4 49.4999 24.7 49.4999 25V30C49.4999 30.3 49.2 30.6 48.89 30.6ZM39.3799 29.3H48.28V25.5H39.3799V29.3Z" fill="black"/>
<path id="Vector_35" d="M38.7801 38.7H34.9401C34.6401 38.7 34.3301 38.4 34.3301 38.1V33.1C34.3301 32.8 34.6301 32.5 34.9401 32.5H38.7801C39.0801 32.5 39.3901 32.8 39.3901 33.1C39.3901 33.4 39.0901 33.7 38.7801 33.7H35.6401V37.5H38.7801C39.0801 37.5 39.3901 37.8 39.3901 38.1C39.3901 38.4 39.0901 38.7 38.7801 38.7Z" fill="black"/>
<path id="Vector_36" d="M48.89 38.7H38.77C38.47 38.7 38.1599 38.4 38.1599 38.1V33.1C38.1599 32.8 38.46 32.5 38.77 32.5H48.89C49.19 32.5 49.4999 32.8 49.4999 33.1V38.1C49.4999 38.4 49.2 38.7 48.89 38.7ZM39.3799 37.4H48.28V33.6H39.3799V37.4Z" fill="black"/>
</g>
</g>
</svg>
