<svg width="60" height="58" viewBox="0 0 60 58" fill="none" xmlns="http://www.w3.org/2000/svg">
<path d="M50.5799 8.99999V52.8H12.6499V1.49999H43.0999V8.99999H50.5899H50.5799Z" fill="#E3F4FF"/>
<path d="M2.8301 41.5C4.0401 41.5 5.0601 42.5 5.0601 43.7C5.0601 44.9 4.0501 45.9 2.8301 45.9C1.6101 45.9 0.600098 44.9 0.600098 43.7C0.700098 42.5 1.6101 41.5 2.8301 41.5Z" fill="#FD9426"/>
<path d="M55.9401 1.49999C57.5601 1.49999 58.7701 2.79999 58.7701 4.29999C58.7701 5.89999 57.4501 7.09999 55.9401 7.09999C54.4301 7.09999 53.1101 5.79999 53.1101 4.29999C53.1101 2.69999 54.4201 1.49999 55.9401 1.49999Z" fill="#FD9426"/>
<path d="M43.6999 35.9V44.7H12.6499V35.9H43.7099H43.6999Z" fill="#FD6096"/>
<path d="M43.19 52.7V57H8.29004V7.69999H12.65V35.9V44.6V52.7H43.19Z" fill="#BDDFF4"/>
<path d="M43.1899 1.49999C45.5199 3.79999 48.3499 6.69999 50.6799 8.99999H43.1899V1.49999Z" fill="#BDDFF4"/>
<path d="M56.65 8.99999C57.15 8.99999 57.56 9.39999 57.56 9.89999C57.56 10.4 57.15 10.8 56.65 10.8C56.15 10.8 55.74 10.4 55.74 9.89999C55.74 9.39999 56.15 8.99999 56.65 8.99999Z" fill="black"/>
<path d="M54.1199 31.5C54.6299 31.5 55.0299 31.9 55.0299 32.4C55.0299 32.9 54.6299 33.3 54.1199 33.3C53.6099 33.3 53.2099 32.9 53.2099 32.4C53.1099 31.9 53.5099 31.5 54.1199 31.5Z" fill="black"/>
<path d="M50.2801 55.9C50.7901 55.9 51.1901 56.3 51.1901 56.8C51.1901 57.3 50.7901 57.7 50.2801 57.7C49.7701 57.7 49.3701 57.3 49.3701 56.8C49.3701 56.3 49.7701 55.9 50.2801 55.9Z" fill="black"/>
<path d="M34.3899 41.1C34.3899 41.3 34.39 41.6 34.29 41.7C33.68 42.7 31.86 42.5 30.95 41.9L31.35 41C31.65 41.3 33.3699 41.9 33.3699 41.2C33.3699 40.8 32.46 40.8 31.75 40.4C30.13 39.6 31.5499 36.9 34.2799 38.5L33.88 39.3C33.68 39.1 32.16 38.5 32.16 39.2C32.06 40 34.3899 39.5 34.3899 41.1Z" fill="black"/>
<path d="M30.0401 40.6C30.2401 41 30.1401 41.8 29.6401 42.1C28.8301 42.6 27.4101 42.4 26.6001 41.9L27.0001 41C27.3001 41.3 29.0201 41.9 29.0201 41.2C29.0201 40.8 28.1101 40.8 27.4001 40.4C25.7801 39.6 27.2001 36.9 29.9301 38.5L29.5301 39.3C29.4301 39.2 28.8201 38.9 28.3201 38.9C27.7101 38.9 27.7101 39.3 27.8101 39.4C28.2101 39.8 29.6301 39.8 30.0401 40.6Z" fill="black"/>
<path d="M25.1899 40.9L25.9999 41.4C25.6999 42.1 24.8899 42.4 24.1799 42.4C21.9499 42.4 21.1499 39.2 23.2699 38.2C24.1799 37.8 25.3899 38 25.8999 39L25.1899 39.5C25.0899 39.2 24.7899 39 24.4799 38.9C22.6599 38.6 22.5599 41.5 24.1799 41.5C24.5799 41.5 24.9899 41.3 25.1899 40.9Z" fill="black"/>
<path d="M8.59994 1.49999C9.09994 1.49999 9.50994 1.89999 9.50994 2.39999C9.50994 2.89999 9.09994 3.29999 8.59994 3.29999C8.09994 3.29999 7.68994 2.89999 7.68994 2.39999C7.68994 1.89999 8.09994 1.49999 8.59994 1.49999Z" fill="black"/>
<path d="M5.35995 35.2C5.86995 35.2 6.26995 35.6 6.26995 36.1C6.26995 36.6 5.86995 37 5.35995 37C4.84995 37 4.44995 36.6 4.44995 36.1C4.44995 35.7 4.84995 35.2 5.35995 35.2Z" fill="black"/>
<path d="M2.82992 16.5C3.32992 16.5 3.73992 16.9 3.73992 17.4C3.73992 17.9 3.32992 18.3 2.82992 18.3C2.32992 18.3 1.91992 17.9 1.91992 17.4C1.91992 16.9 2.32992 16.5 2.82992 16.5Z" fill="black"/>
<path d="M43.1899 57.6H8.28993C7.98993 57.6 7.67993 57.3 7.67993 57V7.69999C7.67993 7.39999 7.97993 7.09999 8.28993 7.09999H12.7399C13.0399 7.09999 13.3499 7.39999 13.3499 7.69999C13.3499 7.99999 13.0499 8.29999 12.7399 8.29999H8.89993V56.3H42.5899V52.7C42.5899 52.4 42.8899 52.1 43.1999 52.1C43.5099 52.1 43.8099 52.4 43.8099 52.7V57C43.8099 57.3 43.5099 57.6 43.1999 57.6H43.1899Z" fill="black"/>
<path d="M50.58 9.59999H43.09C42.79 9.59999 42.48 9.29999 42.48 8.99999V1.49999C42.48 1.19999 42.78 0.899994 43.09 0.899994C43.4 0.899994 43.7 1.19999 43.7 1.49999V8.39999H50.58C50.88 8.39999 51.19 8.69999 51.19 8.99999C51.29 9.29999 50.99 9.59999 50.58 9.59999Z" fill="black"/>
<path d="M50.58 53.4H12.65C12.35 53.4 12.04 53.1 12.04 52.8V44.7C12.04 44.4 12.34 44.1 12.65 44.1C12.96 44.1 13.26 44.4 13.26 44.7V52.2H49.97V9.19999C48.86 8.09999 47.64 6.79999 46.43 5.59999C45.22 4.39999 44 3.09999 42.89 1.99999H13.35V35.8C13.35 36.1 13.05 36.4 12.74 36.4C12.43 36.4 12.03 36.2 12.03 35.9V1.49999C12.03 1.19999 12.33 0.899994 12.64 0.899994H43.09C43.29 0.899994 43.39 0.999991 43.49 1.09999C44.7 2.29999 45.92 3.59999 47.23 4.89999C48.44 6.19999 49.76 7.49999 50.97 8.59999C51.07 8.69999 51.17 8.89999 51.17 8.99999V52.8C51.27 53.1 50.97 53.4 50.56 53.4H50.58Z" fill="black"/>
<path d="M2.83 46.5C1.21 46.5 0 45.2 0 43.7C0 42.2 1.32 40.9 2.83 40.9C4.34 40.9 5.66 42.2 5.66 43.7C5.66 45.2 4.45 46.5 2.83 46.5ZM2.83 42.1C1.92 42.1 1.21 42.8 1.21 43.7C1.21 44.6 1.92 45.3 2.83 45.3C3.74 45.3 4.45 44.6 4.45 43.7C4.45 42.8 3.74 42.1 2.83 42.1Z" fill="black"/>
<path d="M55.94 7.69999C54.02 7.69999 52.5 6.19999 52.5 4.29999C52.5 2.39999 54.02 0.899994 55.94 0.899994C57.86 0.899994 59.38 2.39999 59.38 4.29999C59.48 6.19999 57.86 7.69999 55.94 7.69999ZM55.94 2.09999C54.73 2.09999 53.71 3.09999 53.71 4.29999C53.71 5.49999 54.72 6.49999 55.94 6.49999C57.16 6.49999 58.17 5.49999 58.17 4.29999C58.17 3.09999 57.16 2.09999 55.94 2.09999Z" fill="black"/>
<path d="M43.7 45.2H12.65C12.35 45.2 12.04 44.9 12.04 44.6V35.8C12.04 35.5 12.34 35.2 12.65 35.2H43.6C43.9 35.2 44.21 35.5 44.21 35.8V44.6C44.31 45 44.01 45.2 43.7 45.2ZM13.35 44H43.09V36.5H13.35V44Z" fill="black"/>
<path d="M20.2299 9.59999H18.3099C18.0099 9.59999 17.7 9.29999 17.7 8.99999C17.7 8.69999 17.9999 8.39999 18.3099 8.39999H20.2299C20.5299 8.39999 20.84 8.69999 20.84 8.99999C20.94 9.29999 20.64 9.59999 20.2299 9.59999Z" fill="black"/>
<path d="M20.2299 12.7H18.3099C18.0099 12.7 17.7 12.4 17.7 12.1C17.7 11.8 17.9999 11.5 18.3099 11.5H20.2299C20.5299 11.5 20.84 11.8 20.84 12.1C20.94 12.5 20.64 12.7 20.2299 12.7Z" fill="black"/>
<path d="M20.2299 15.9H18.3099C18.0099 15.9 17.7 15.6 17.7 15.3C17.7 15 17.9999 14.7 18.3099 14.7H20.2299C20.5299 14.7 20.84 15 20.84 15.3C20.94 15.6 20.64 15.9 20.2299 15.9Z" fill="black"/>
<path d="M20.2299 19H18.3099C18.0099 19 17.7 18.7 17.7 18.4C17.7 18.1 17.9999 17.8 18.3099 17.8H20.2299C20.5299 17.8 20.84 18.1 20.84 18.4C20.94 18.7 20.64 19 20.2299 19Z" fill="black"/>
<path d="M20.2299 22.1H18.3099C18.0099 22.1 17.7 21.8 17.7 21.5C17.7 21.2 17.9999 20.9 18.3099 20.9H20.2299C20.5299 20.9 20.84 21.2 20.84 21.5C20.94 21.8 20.64 22.1 20.2299 22.1Z" fill="black"/>
<path d="M20.2299 25.2H18.3099C18.0099 25.2 17.7 24.9 17.7 24.6C17.7 24.3 17.9999 24 18.3099 24H20.2299C20.5299 24 20.84 24.3 20.84 24.6C20.94 25 20.64 25.2 20.2299 25.2Z" fill="black"/>
<path d="M20.2299 28.4H18.3099C18.0099 28.4 17.7 28.1 17.7 27.8C17.7 27.5 17.9999 27.2 18.3099 27.2H20.2299C20.5299 27.2 20.84 27.5 20.84 27.8C20.94 28.1 20.64 28.4 20.2299 28.4Z" fill="black"/>
<path d="M20.2299 31.5H18.3099C18.0099 31.5 17.7 31.2 17.7 30.9C17.7 30.6 17.9999 30.3 18.3099 30.3H20.2299C20.5299 30.3 20.84 30.6 20.84 30.9C20.84 31.2 20.64 31.5 20.2299 31.5Z" fill="black"/>
<path d="M26 9.59999H22.86C22.56 9.59999 22.25 9.29999 22.25 8.99999C22.25 8.69999 22.55 8.39999 22.86 8.39999H26C26.3 8.39999 26.61 8.69999 26.61 8.99999C26.61 9.29999 26.31 9.59999 26 9.59999Z" fill="black"/>
<path d="M32.88 9.59999H27.82C27.52 9.59999 27.21 9.29999 27.21 8.99999C27.21 8.69999 27.51 8.39999 27.82 8.39999H32.88C33.18 8.39999 33.49 8.69999 33.49 8.99999C33.59 9.29999 33.29 9.59999 32.88 9.59999Z" fill="black"/>
<path d="M28.53 12.7H22.86C22.56 12.7 22.25 12.4 22.25 12.1C22.25 11.8 22.55 11.5 22.86 11.5H28.53C28.83 11.5 29.14 11.8 29.14 12.1C29.14 12.5 28.84 12.7 28.53 12.7Z" fill="black"/>
<path d="M32.2701 12.7H30.9601C30.6601 12.7 30.3501 12.4 30.3501 12.1C30.3501 11.8 30.6501 11.5 30.9601 11.5H32.2701C32.5701 11.5 32.8801 11.8 32.8801 12.1C32.8801 12.5 32.5801 12.7 32.2701 12.7Z" fill="black"/>
<path d="M36.1101 12.7H34.1901C33.8901 12.7 33.5801 12.4 33.5801 12.1C33.5801 11.8 33.8801 11.5 34.1901 11.5H36.1101C36.4101 11.5 36.7201 11.8 36.7201 12.1C36.7201 12.5 36.4201 12.7 36.1101 12.7Z" fill="black"/>
<path d="M24.6799 15.9H22.7599C22.4599 15.9 22.1499 15.6 22.1499 15.3C22.1499 15 22.4499 14.7 22.7599 14.7H24.6799C24.9799 14.7 25.2899 15 25.2899 15.3C25.2899 15.6 24.9899 15.9 24.6799 15.9Z" fill="black"/>
<path d="M31.6601 15.9H27.2101C26.9101 15.9 26.6001 15.6 26.6001 15.3C26.6001 15 26.9001 14.7 27.2101 14.7H31.6601C31.9601 14.7 32.2701 15 32.2701 15.3C32.2701 15.6 31.9701 15.9 31.6601 15.9Z" fill="black"/>
<path d="M25.2899 19H22.7599C22.4599 19 22.1499 18.7 22.1499 18.4C22.1499 18.1 22.4499 17.8 22.7599 17.8H25.2899C25.5899 17.8 25.8999 18.1 25.8999 18.4C25.9999 18.7 25.6999 19 25.2899 19Z" fill="black"/>
<path d="M33.5801 19H27.9201C27.6201 19 27.3101 18.7 27.3101 18.4C27.3101 18.1 27.6101 17.8 27.9201 17.8H33.5801C33.8801 17.8 34.1901 18.1 34.1901 18.4C34.1901 18.7 33.8901 19 33.5801 19Z" fill="black"/>
<path d="M26 22.1H22.86C22.56 22.1 22.25 21.8 22.25 21.5C22.25 21.2 22.55 20.9 22.86 20.9H26C26.3 20.9 26.61 21.2 26.61 21.5C26.61 21.8 26.31 22.1 26 22.1Z" fill="black"/>
<path d="M37.3301 22.1H28.4301C28.1301 22.1 27.8201 21.8 27.8201 21.5C27.8201 21.2 28.1201 20.9 28.4301 20.9H37.3301C37.6301 20.9 37.9401 21.2 37.9401 21.5C37.9401 21.8 37.6401 22.1 37.3301 22.1Z" fill="black"/>
<path d="M28.53 25.2H22.86C22.56 25.2 22.25 24.9 22.25 24.6C22.25 24.3 22.55 24 22.86 24H28.53C28.83 24 29.14 24.3 29.14 24.6C29.14 25 28.84 25.2 28.53 25.2Z" fill="black"/>
<path d="M32.2701 25.2H30.9601C30.6601 25.2 30.3501 24.9 30.3501 24.6C30.3501 24.3 30.6501 24 30.9601 24H32.2701C32.5701 24 32.8801 24.3 32.8801 24.6C32.8801 25 32.5801 25.2 32.2701 25.2Z" fill="black"/>
<path d="M36.7199 25.2H34.7999C34.4999 25.2 34.1899 24.9 34.1899 24.6C34.1899 24.3 34.4899 24 34.7999 24H36.7199C37.0199 24 37.3299 24.3 37.3299 24.6C37.3299 25 37.0299 25.2 36.7199 25.2Z" fill="black"/>
<path d="M24.6799 28.4H22.7599C22.4599 28.4 22.1499 28.1 22.1499 27.8C22.1499 27.5 22.4499 27.2 22.7599 27.2H24.6799C24.9799 27.2 25.2899 27.5 25.2899 27.8C25.2899 28.1 24.9899 28.4 24.6799 28.4Z" fill="black"/>
<path d="M31.6601 28.4H27.2101C26.9101 28.4 26.6001 28.1 26.6001 27.8C26.6001 27.5 26.9001 27.2 27.2101 27.2H31.6601C31.9601 27.2 32.2701 27.5 32.2701 27.8C32.2701 28.1 31.9701 28.4 31.6601 28.4Z" fill="black"/>
<path d="M36.7201 28.4H34.1901C33.8901 28.4 33.5801 28.1 33.5801 27.8C33.5801 27.5 33.8801 27.2 34.1901 27.2H36.7201C37.0201 27.2 37.3301 27.5 37.3301 27.8C37.3301 28.1 37.0301 28.4 36.7201 28.4Z" fill="black"/>
<path d="M25.2899 31.5H22.7599C22.4599 31.5 22.1499 31.2 22.1499 30.9C22.1499 30.6 22.4499 30.3 22.7599 30.3H25.2899C25.5899 30.3 25.8999 30.6 25.8999 30.9C25.8999 31.2 25.6999 31.5 25.2899 31.5Z" fill="black"/>
<path d="M33.5801 31.5H27.9201C27.6201 31.5 27.3101 31.2 27.3101 30.9C27.3101 30.6 27.6101 30.3 27.9201 30.3H33.5801C33.8801 30.3 34.1901 30.6 34.1901 30.9C34.1901 31.2 33.8901 31.5 33.5801 31.5Z" fill="black"/>
</svg>
