<svg width="60" height="58" viewBox="0 0 60 58" fill="none" xmlns="http://www.w3.org/2000/svg">
<g id="30, Page, Html, Coding, Document">
<g id="Group">
<path id="Vector" d="M50.9598 52.7H13.0298V1.39999H43.4798V8.89999H50.9698V52.7H50.9598Z" fill="#E3F4FF"/>
<path id="Vector_2" d="M56.3198 1.49999C57.9398 1.49999 59.1497 2.79999 59.1497 4.29999C59.1497 5.89999 57.8298 7.09999 56.3198 7.09999C54.8098 7.09999 53.4897 5.79999 53.4897 4.29999C53.4897 2.69999 54.8098 1.49999 56.3198 1.49999Z" fill="#FD9426"/>
<path id="Vector_3" d="M3.20999 41.5C4.41999 41.5 5.43999 42.5 5.43999 43.7C5.43999 44.9 4.42999 45.9 3.20999 45.9C1.98999 45.9 0.97998 44.9 0.97998 43.7C1.07998 42.5 1.98999 41.5 3.20999 41.5Z" fill="#FD9426"/>
<path id="Vector_4" d="M43.5798 1.49999C45.9098 3.79999 48.7398 6.69999 51.0698 8.99999H43.5798V1.49999Z" fill="#BDDFF4"/>
<path id="Vector_5" d="M43.5799 52.7V57H8.67993V7.69999H13.0299V35.9V44.6V52.7H43.5799Z" fill="#BDDFF4"/>
<path id="Vector_6" d="M44.0798 35.9V44.7H13.0198V35.9H44.0798Z" fill="#FD9426"/>
<path id="Vector_7" d="M57.0299 8.99999C57.5299 8.99999 57.9399 9.39999 57.9399 9.89999C57.9399 10.4 57.5299 10.8 57.0299 10.8C56.5299 10.8 56.1199 10.4 56.1199 9.89999C56.1199 9.39999 56.5299 8.99999 57.0299 8.99999Z" fill="black"/>
<path id="Vector_8" d="M54.5 31.5C55.01 31.5 55.41 31.9 55.41 32.4C55.41 32.9 55.01 33.3 54.5 33.3C53.99 33.3 53.59 32.9 53.59 32.4C53.49 31.9 53.89 31.5 54.5 31.5Z" fill="black"/>
<path id="Vector_9" d="M50.66 55.9C51.17 55.9 51.57 56.3 51.57 56.8C51.57 57.3 51.16 57.7 50.66 57.7C50.16 57.7 49.75 57.3 49.75 56.8C49.75 56.3 50.16 55.9 50.66 55.9Z" fill="black"/>
<path id="Vector_10" d="M37.61 41.5V42.4H34.47V38.1H35.48V41.5H37.61Z" fill="black"/>
<path id="Vector_11" d="M33.2598 38.1V42.4H32.2498V39.8L31.2298 41.7H30.7298L29.8198 39.8V42.4H28.8098V38.1H29.8198L31.0298 40.3L32.1398 38.1H33.2598Z" fill="black"/>
<path id="Vector_12" d="M27.7899 38.1V39H26.4799V42.4H25.4699V39H24.1499V38.1H27.7899Z" fill="black"/>
<path id="Vector_13" d="M23.2399 38.1V42.4H22.2299V40.6H20.4099V42.4H19.3999V38.1H20.4099V39.7H22.2299V38.1H23.2399Z" fill="black"/>
<path id="Vector_14" d="M8.97981 1.49999C9.47981 1.49999 9.88982 1.89999 9.88982 2.39999C9.88982 2.89999 9.47981 3.29999 8.97981 3.29999C8.47981 3.29999 8.06982 2.89999 8.06982 2.39999C8.06982 1.89999 8.47981 1.49999 8.97981 1.49999Z" fill="black"/>
<path id="Vector_15" d="M5.73984 35.2C6.24984 35.2 6.64983 35.6 6.64983 36.1C6.64983 36.6 6.24984 37 5.73984 37C5.22984 37 4.82983 36.6 4.82983 36.1C4.82983 35.7 5.22984 35.2 5.73984 35.2Z" fill="black"/>
<path id="Vector_16" d="M3.20981 16.5C3.70981 16.5 4.1198 16.9 4.1198 17.4C4.1198 17.9 3.70981 18.3 3.20981 18.3C2.70981 18.3 2.2998 17.9 2.2998 17.4C2.2998 16.9 2.70981 16.5 3.20981 16.5Z" fill="black"/>
<path id="Vector_17" d="M43.5798 57.6H8.67981C8.37981 57.6 8.06982 57.3 8.06982 57V7.69999C8.06982 7.39999 8.36981 7.09999 8.67981 7.09999H13.1298C13.4298 7.09999 13.7398 7.39999 13.7398 7.69999C13.7398 7.99999 13.4398 8.29999 13.1298 8.29999H9.28981V56.3H42.9798V52.7C42.9798 52.4 43.2798 52.1 43.5898 52.1C43.8998 52.1 44.1998 52.4 44.1998 52.7V57C44.1998 57.3 43.8998 57.6 43.5898 57.6H43.5798Z" fill="black"/>
<path id="Vector_18" d="M50.9599 9.59999H43.4699C43.1699 9.59999 42.8599 9.29999 42.8599 8.99999V1.49999C42.8599 1.19999 43.1599 0.899994 43.4699 0.899994C43.7799 0.899994 44.0799 1.19999 44.0799 1.49999V8.39999H50.9599C51.2599 8.39999 51.5699 8.69999 51.5699 8.99999C51.6699 9.29999 51.3699 9.59999 50.9599 9.59999Z" fill="black"/>
<path id="Vector_19" d="M50.9599 53.4H13.0299C12.7299 53.4 12.4199 53.1 12.4199 52.8V44.7C12.4199 44.4 12.7199 44.1 13.0299 44.1C13.3399 44.1 13.6399 44.4 13.6399 44.7V52.2H50.3599V9.19999C49.2499 8.09999 48.0299 6.79999 46.8199 5.59999C45.6099 4.39999 44.3899 3.09999 43.2799 1.99999H13.7399V35.8C13.7399 36.1 13.4399 36.4 13.1299 36.4C12.8199 36.4 12.4199 36.2 12.4199 35.9V1.49999C12.4199 1.19999 12.7199 0.899994 13.0299 0.899994H43.4799C43.6799 0.899994 43.7799 0.999991 43.8799 1.09999C45.0899 2.29999 46.3099 3.59999 47.6199 4.89999C48.8299 6.19999 50.1499 7.49999 51.3599 8.59999C51.4599 8.69999 51.5599 8.89999 51.5599 8.99999V52.8C51.6599 53.1 51.3599 53.4 50.9499 53.4H50.9599Z" fill="black"/>
<path id="Vector_20" d="M3.20988 46.5C1.58988 46.5 0.379883 45.2 0.379883 43.7C0.379883 42.2 1.68988 40.9 3.20988 40.9C4.72988 40.9 6.03987 42.2 6.03987 43.7C6.03987 45.2 4.82988 46.5 3.20988 46.5ZM3.20988 42.1C2.29988 42.1 1.58987 42.8 1.58987 43.7C1.58987 44.6 2.29988 45.3 3.20988 45.3C4.11988 45.3 4.82988 44.6 4.82988 43.7C4.82988 42.8 4.11988 42.1 3.20988 42.1Z" fill="black"/>
<path id="Vector_21" d="M56.3199 7.69999C54.3999 7.69999 52.8799 6.19999 52.8799 4.29999C52.8799 2.39999 54.3999 0.899994 56.3199 0.899994C58.2399 0.899994 59.7599 2.39999 59.7599 4.29999C59.8599 6.19999 58.2399 7.69999 56.3199 7.69999ZM56.3199 2.09999C55.1099 2.09999 54.0899 3.09999 54.0899 4.29999C54.0899 5.49999 55.0999 6.49999 56.3199 6.49999C57.5399 6.49999 58.5499 5.49999 58.5499 4.29999C58.5499 3.09999 57.5399 2.09999 56.3199 2.09999Z" fill="black"/>
<path id="Vector_22" d="M44.0799 45.2H13.0199C12.7199 45.2 12.4099 44.9 12.4099 44.6V35.8C12.4099 35.5 12.7099 35.2 13.0199 35.2H43.9799C44.2799 35.2 44.5899 35.5 44.5899 35.8V44.6C44.6899 45 44.3899 45.2 44.0799 45.2ZM13.7299 44H43.4699V36.5H13.7299V44Z" fill="black"/>
<path id="Vector_23" d="M20.6098 15.9H18.6898C18.3898 15.9 18.0798 15.6 18.0798 15.3C18.0798 15 18.3798 14.7 18.6898 14.7H20.6098C20.9098 14.7 21.2198 15 21.2198 15.3C21.3198 15.6 21.0198 15.9 20.6098 15.9Z" fill="black"/>
<path id="Vector_24" d="M20.6098 19H18.6898C18.3898 19 18.0798 18.7 18.0798 18.4C18.0798 18.1 18.3798 17.8 18.6898 17.8H20.6098C20.9098 17.8 21.2198 18.1 21.2198 18.4C21.3198 18.7 21.0198 19 20.6098 19Z" fill="black"/>
<path id="Vector_25" d="M20.6098 22.1H18.6898C18.3898 22.1 18.0798 21.8 18.0798 21.5C18.0798 21.2 18.3798 20.9 18.6898 20.9H20.6098C20.9098 20.9 21.2198 21.2 21.2198 21.5C21.3198 21.8 21.0198 22.1 20.6098 22.1Z" fill="black"/>
<path id="Vector_26" d="M20.6098 25.2H18.6898C18.3898 25.2 18.0798 24.9 18.0798 24.6C18.0798 24.3 18.3798 24 18.6898 24H20.6098C20.9098 24 21.2198 24.3 21.2198 24.6C21.3198 25 21.0198 25.2 20.6098 25.2Z" fill="black"/>
<path id="Vector_27" d="M20.6098 28.4H18.6898C18.3898 28.4 18.0798 28.1 18.0798 27.8C18.0798 27.5 18.3798 27.2 18.6898 27.2H20.6098C20.9098 27.2 21.2198 27.5 21.2198 27.8C21.3198 28.1 21.0198 28.4 20.6098 28.4Z" fill="black"/>
<path id="Vector_28" d="M20.6098 31.5H18.6898C18.3898 31.5 18.0798 31.2 18.0798 30.9C18.0798 30.6 18.3798 30.3 18.6898 30.3H20.6098C20.9098 30.3 21.2198 30.6 21.2198 30.9C21.2198 31.2 21.0198 31.5 20.6098 31.5Z" fill="black"/>
<path id="Vector_29" d="M25.0598 15.9H23.1398C22.8398 15.9 22.5298 15.6 22.5298 15.3C22.5298 15 22.8298 14.7 23.1398 14.7H25.0598C25.3598 14.7 25.6698 15 25.6698 15.3C25.6698 15.6 25.3698 15.9 25.0598 15.9Z" fill="black"/>
<path id="Vector_30" d="M32.04 15.9H27.59C27.29 15.9 26.98 15.6 26.98 15.3C26.98 15 27.28 14.7 27.59 14.7H32.04C32.34 14.7 32.65 15 32.65 15.3C32.65 15.6 32.35 15.9 32.04 15.9Z" fill="black"/>
<path id="Vector_31" d="M25.6698 19H23.1398C22.8398 19 22.5298 18.7 22.5298 18.4C22.5298 18.1 22.8298 17.8 23.1398 17.8H25.6698C25.9698 17.8 26.2798 18.1 26.2798 18.4C26.3798 18.7 26.0798 19 25.6698 19Z" fill="black"/>
<path id="Vector_32" d="M33.97 19H28.31C28.01 19 27.7 18.7 27.7 18.4C27.7 18.1 28 17.8 28.31 17.8H33.97C34.27 17.8 34.58 18.1 34.58 18.4C34.58 18.7 34.28 19 33.97 19Z" fill="black"/>
<path id="Vector_33" d="M26.3799 22.1H23.2399C22.9399 22.1 22.6299 21.8 22.6299 21.5C22.6299 21.2 22.9299 20.9 23.2399 20.9H26.3799C26.6799 20.9 26.9899 21.2 26.9899 21.5C26.9899 21.8 26.6899 22.1 26.3799 22.1Z" fill="black"/>
<path id="Vector_34" d="M37.71 22.1H28.81C28.51 22.1 28.2 21.8 28.2 21.5C28.2 21.2 28.5 20.9 28.81 20.9H37.71C38.01 20.9 38.32 21.2 38.32 21.5C38.32 21.8 38.02 22.1 37.71 22.1Z" fill="black"/>
<path id="Vector_35" d="M28.9099 25.2H23.2499C22.9499 25.2 22.6399 24.9 22.6399 24.6C22.6399 24.3 22.9399 24 23.2499 24H28.9099C29.2099 24 29.5199 24.3 29.5199 24.6C29.5199 25 29.2199 25.2 28.9099 25.2Z" fill="black"/>
<path id="Vector_36" d="M32.65 25.2H31.33C31.03 25.2 30.72 24.9 30.72 24.6C30.72 24.3 31.02 24 31.33 24H32.65C32.95 24 33.26 24.3 33.26 24.6C33.26 25 32.96 25.2 32.65 25.2Z" fill="black"/>
<path id="Vector_37" d="M37.0998 25.2H35.1798C34.8798 25.2 34.5698 24.9 34.5698 24.6C34.5698 24.3 34.8698 24 35.1798 24H37.0998C37.3998 24 37.7098 24.3 37.7098 24.6C37.7098 25 37.4098 25.2 37.0998 25.2Z" fill="black"/>
<path id="Vector_38" d="M25.0598 28.4H23.1398C22.8398 28.4 22.5298 28.1 22.5298 27.8C22.5298 27.5 22.8298 27.2 23.1398 27.2H25.0598C25.3598 27.2 25.6698 27.5 25.6698 27.8C25.6698 28.1 25.3698 28.4 25.0598 28.4Z" fill="black"/>
<path id="Vector_39" d="M32.04 28.4H27.59C27.29 28.4 26.98 28.1 26.98 27.8C26.98 27.5 27.28 27.2 27.59 27.2H32.04C32.34 27.2 32.65 27.5 32.65 27.8C32.65 28.1 32.35 28.4 32.04 28.4Z" fill="black"/>
<path id="Vector_40" d="M37.1 28.4H34.57C34.27 28.4 33.96 28.1 33.96 27.8C33.96 27.5 34.26 27.2 34.57 27.2H37.1C37.4 27.2 37.71 27.5 37.71 27.8C37.71 28.1 37.41 28.4 37.1 28.4Z" fill="black"/>
<path id="Vector_41" d="M25.6698 31.5H23.1398C22.8398 31.5 22.5298 31.2 22.5298 30.9C22.5298 30.6 22.8298 30.3 23.1398 30.3H25.6698C25.9698 30.3 26.2798 30.6 26.2798 30.9C26.2798 31.2 26.0798 31.5 25.6698 31.5Z" fill="black"/>
<path id="Vector_42" d="M33.97 31.5H28.31C28.01 31.5 27.7 31.2 27.7 30.9C27.7 30.6 28 30.3 28.31 30.3H33.97C34.27 30.3 34.58 30.6 34.58 30.9C34.58 31.2 34.28 31.5 33.97 31.5Z" fill="black"/>
<path id="Vector_43" d="M22.5298 12.1C22.4298 12.1 22.2298 12.1 22.1298 12L18.9898 9.49999C18.8898 9.39999 18.7898 9.19999 18.7898 8.99999C18.7898 8.79999 18.8898 8.59999 18.9898 8.49999L22.1298 5.99999C22.4298 5.79999 22.8398 5.79999 23.0398 6.09999C23.2398 6.39999 23.2398 6.79999 22.9398 6.99999L20.4098 8.99999L22.9398 11C23.2398 11.2 23.2398 11.6 23.0398 11.9C22.9398 12 22.7398 12.1 22.5298 12.1Z" fill="black"/>
<path id="Vector_44" d="M30.1198 12.1C29.9198 12.1 29.7198 12 29.6098 11.9C29.4098 11.6 29.4099 11.2 29.7099 11L32.2398 8.99999L29.7099 6.99999C29.4099 6.79999 29.4098 6.39999 29.6098 6.09999C29.8098 5.79999 30.2198 5.79999 30.5198 5.99999L33.6598 8.49999C33.7598 8.59999 33.8598 8.79999 33.8598 8.99999C33.8598 9.19999 33.7598 9.39999 33.6598 9.49999L30.5198 12C30.4198 12.1 30.2198 12.1 30.1098 12.1H30.1198Z" fill="black"/>
<path id="Vector_45" d="M25.0599 11.5C24.9599 11.5 24.8599 11.5 24.7599 11.4C24.4599 11.2 24.3599 10.8 24.5599 10.5L27.0899 6.09999C27.2899 5.79999 27.6999 5.69999 27.9999 5.89999C28.2999 6.09999 28.3999 6.49999 28.1999 6.79999L25.5699 11.2C25.4699 11.4 25.2699 11.5 25.0599 11.5Z" fill="black"/>
</g>
</g>
</svg>
