<svg width="55" height="56" viewBox="0 0 55 56" fill="none" xmlns="http://www.w3.org/2000/svg">
<g id="26, Magnifier, Optimization, Scan, Search, Seo">
<g id="Group">
<path id="Vector" d="M48.97 12.1C51.4277 12.1 53.42 10.13 53.42 7.69999C53.42 5.26994 51.4277 3.29999 48.97 3.29999C46.5124 3.29999 44.52 5.26994 44.52 7.69999C44.52 10.13 46.5124 12.1 48.97 12.1Z" fill="#FD9426"/>
<path id="Vector_2" d="M3.45016 35.8C4.87016 35.8 5.98016 36.9 5.98016 38.3C5.98016 39.7 4.87016 40.8 3.45016 40.8C2.03016 40.8 0.920166 39.7 0.920166 38.3C0.920166 36.9 2.03016 35.8 3.45016 35.8Z" fill="#FD9426"/>
<path id="Vector_3" d="M51.8 44.4C53.42 46 53.42 48.6 51.8 50.1L51.39 50.5C49.77 52.1 47.14 52.1 45.62 50.5L35 40.1L36.42 38.7L39.76 35.4L41.18 34L51.8 44.4ZM49.68 48.4C50.39 47.7 50.39 46.7 49.68 46C48.97 45.3 47.96 45.3 47.25 46C46.54 46.7 46.54 47.7 47.25 48.4C47.96 49.1 49.07 49.1 49.68 48.4Z" fill="#618BAA"/>
<path id="Vector_4" d="M35.7201 7.99999C28.2301 0.599989 16.2001 0.599989 8.81013 7.99999C1.32013 15.4 1.32013 27.3 8.81013 34.6C15.6901 41.4 26.5101 41.9 34.0001 36.2L36.5301 38.7L39.8701 35.4L37.3401 32.9C43.1101 25.5 42.6001 14.8 35.7201 7.99999Z" fill="#E3F4FF"/>
<path id="Vector_5" d="M33.7001 13.8C34.7101 15.2 35.4201 16.9 35.7201 18.7C34.3001 18.8 33.2901 20 33.2901 21.4C33.2901 22.8 34.4001 23.9 35.7201 24.1C35.3201 25.9 34.7101 27.5 33.7001 29C32.6901 28.1 31.0701 28.2 30.0601 29.2C29.0501 30.2 29.0501 31.7 29.8601 32.8C28.4401 33.8 26.7201 34.5 24.9001 34.8C24.8001 33.4 23.5901 32.4 22.1701 32.4C20.7501 32.4 19.6401 33.5 19.4401 34.8C17.6201 34.4 16.0001 33.8 14.4801 32.8C15.3901 31.8 15.2901 30.2 14.2801 29.2C13.2701 28.2 11.7501 28.2 10.6401 29C9.63014 27.6 8.92012 25.9 8.62012 24.1C10.0401 24 11.0501 22.8 11.0501 21.4C11.0501 20 9.94012 18.9 8.62012 18.7C9.02012 16.9 9.63014 15.3 10.6401 13.8C11.6501 14.7 13.2701 14.6 14.2801 13.6C15.2901 12.6 15.2901 11.1 14.4801 9.99999C15.9001 8.99999 17.6201 8.29999 19.4401 7.99999C19.5401 9.39999 20.7501 10.4 22.1701 10.4C23.5901 10.4 24.7001 9.29999 24.9001 7.99999C26.7201 8.39999 28.3401 8.99999 29.8601 9.99999C28.9501 11 29.0501 12.6 30.0601 13.6C31.0701 14.6 32.5901 14.7 33.7001 13.8ZM28.4401 21.3C28.4401 17.9 25.7101 15.2 22.2701 15.2C18.8301 15.2 16.1001 17.9 16.1001 21.3C16.1001 24.7 18.8301 27.4 22.2701 27.4C25.7101 27.4 28.4401 24.7 28.4401 21.3Z" fill="#006BE0"/>
<path id="Vector_6" d="M51.2 17.7C51.7 17.7 52.11 18.1 52.11 18.6C52.11 19.1 51.7 19.5 51.2 19.5C50.7 19.5 50.29 19.1 50.29 18.6C50.29 18.1 50.7 17.7 51.2 17.7Z" fill="black"/>
<path id="Vector_7" d="M49.28 28.9C49.79 28.9 50.19 29.3 50.19 29.8C50.19 30.3 49.79 30.7 49.28 30.7C48.77 30.7 48.37 30.3 48.37 29.8C48.27 29.3 48.77 28.9 49.28 28.9Z" fill="black"/>
<path id="Vector_8" d="M45.43 53.9C45.93 53.9 46.34 54.3 46.34 54.8C46.34 55.3 45.93 55.7 45.43 55.7C44.93 55.7 44.52 55.3 44.52 54.8C44.52 54.3 44.93 53.9 45.43 53.9Z" fill="black"/>
<path id="Vector_9" d="M36.0201 2.09999C36.5201 2.09999 36.9301 2.49999 36.9301 2.99999C36.9301 3.49999 36.5201 3.89999 36.0201 3.89999C35.5201 3.89999 35.1101 3.49999 35.1101 2.99999C35.1101 2.49999 35.5201 2.09999 36.0201 2.09999Z" fill="black"/>
<path id="Vector_10" d="M29.65 43.3C30.16 43.3 30.56 43.7 30.56 44.2C30.56 44.7 30.16 45.1 29.65 45.1C29.14 45.1 28.74 44.7 28.74 44.2C28.74 43.7 29.14 43.3 29.65 43.3Z" fill="black"/>
<path id="Vector_11" d="M6.88998 0.799988C7.38998 0.799988 7.79996 1.19999 7.79996 1.69999C7.79996 2.19999 7.38998 2.59999 6.88998 2.59999C6.38998 2.59999 5.97998 2.19999 5.97998 1.69999C5.97998 1.19999 6.38998 0.799988 6.88998 0.799988Z" fill="black"/>
<path id="Vector_12" d="M1.83014 50.2C2.34014 50.2 2.74014 50.6 2.74014 51.1C2.74014 51.6 2.34014 52 1.83014 52C1.32014 52 0.920166 51.6 0.920166 51.1C0.920166 50.6 1.33014 50.2 1.83014 50.2Z" fill="black"/>
<path id="Vector_13" d="M1.22006 14.6C1.72006 14.6 2.13007 15 2.13007 15.5C2.13007 16 1.72006 16.4 1.22006 16.4C0.720062 16.4 0.310059 16 0.310059 15.5C0.310059 15 0.720062 14.6 1.22006 14.6Z" fill="black"/>
<path id="Vector_14" d="M19.6401 35.2H19.5401C17.7201 34.8 16.0001 34.1 14.3801 33.1C14.2801 33 14.18 32.8 14.08 32.7C14.08 32.5 14.0801 32.3 14.1801 32.2C14.8901 31.4 14.79 30.2 14.08 29.5C13.67 29.1 13.1701 28.9 12.6601 28.9C12.1501 28.9 11.7501 29.1 11.3501 29.4C11.2501 29.5 11.0501 29.6 10.8401 29.5C10.6401 29.5 10.5401 29.4 10.4401 29.2C9.43006 27.7 8.72007 25.9 8.32007 24.1C8.32007 23.9 8.32007 23.7 8.42007 23.6C8.52007 23.5 8.72007 23.4 8.82007 23.4C9.93007 23.3 10.6401 22.4 10.6401 21.4C10.6401 20.3 9.83007 19.5 8.82007 19.4C8.62007 19.4 8.52007 19.3 8.42007 19.2C8.32007 19.1 8.32007 18.9 8.32007 18.7C8.73007 16.9 9.43006 15.2 10.4401 13.6C10.5401 13.5 10.7401 13.4 10.8401 13.3C11.0401 13.3 11.2401 13.3 11.3501 13.4C11.7501 13.7 12.1601 13.9 12.6601 13.9C13.1601 13.9 13.77 13.7 14.08 13.3C14.79 12.6 14.8901 11.4 14.1801 10.6C14.0801 10.5 13.98 10.3 14.08 10.1C14.08 9.89999 14.1801 9.79999 14.3801 9.69999C15.9001 8.69999 17.7201 7.99999 19.5401 7.59999C19.7401 7.59999 19.95 7.59999 20.05 7.69999C20.15 7.79999 20.2501 7.99999 20.2501 8.09999C20.3501 9.19999 21.26 9.89999 22.2701 9.89999C23.38 9.89999 24.1901 9.09999 24.2901 8.09999C24.2901 7.89999 24.3901 7.79999 24.4901 7.69999C24.5901 7.59999 24.7901 7.59999 25.0001 7.59999C26.8201 7.99999 28.5401 8.69999 30.1601 9.69999C30.2601 9.79999 30.3601 9.99999 30.4601 10.1C30.4601 10.3 30.46 10.5 30.36 10.6C29.65 11.4 29.7501 12.6 30.4601 13.3C30.8601 13.7 31.3701 13.9 31.8801 13.9C32.3901 13.9 32.7901 13.7 33.2001 13.4C33.3001 13.3 33.5001 13.2 33.7001 13.3C33.9001 13.3 34 13.4 34.11 13.6C35.12 15.1 35.8301 16.9 36.2301 18.7C36.2301 18.9 36.2301 19.1 36.1301 19.2C36.0301 19.3 35.8301 19.4 35.7201 19.4C34.6101 19.5 33.9001 20.4 33.9001 21.4C33.9001 22.5 34.7101 23.3 35.7201 23.4C35.9201 23.4 36.0201 23.5 36.1301 23.6C36.2301 23.7 36.2301 23.9 36.2301 24.1C35.8301 25.9 35.12 27.6 34.11 29.2C34.01 29.3 33.8101 29.4 33.7001 29.5C33.5001 29.5 33.3001 29.5 33.2001 29.4C32.7901 29.1 32.3901 28.9 31.8801 28.9C31.3701 28.9 30.7701 29.1 30.4601 29.5C29.6501 30.2 29.65 31.4 30.36 32.2C30.46 32.3 30.5601 32.5 30.4601 32.7C30.3601 32.9 30.3601 33 30.1601 33.1C28.6401 34.1 26.8201 34.8 25.0001 35.2C24.8001 35.2 24.6001 35.2 24.4901 35.1C24.3901 35 24.2901 34.8 24.2901 34.7C24.1901 33.6 23.2801 32.9 22.2701 32.9C21.1601 32.9 20.3501 33.7 20.2501 34.7C20.2501 34.9 20.15 35 20.05 35.1C19.85 35.2 19.7501 35.2 19.6501 35.2H19.6401ZM22.2701 31.6C23.7901 31.6 25.0001 32.5 25.4101 33.9C26.6201 33.6 27.8401 33.1 28.9501 32.4C28.2401 31.1 28.5501 29.6 29.5601 28.6C30.1701 28 30.9801 27.6 31.8901 27.6C32.4001 27.6 32.9001 27.7 33.4101 28C34.1201 26.9 34.5201 25.7 34.9301 24.5C33.6101 24 32.7001 22.8 32.7001 21.3C32.7001 19.8 33.6101 18.6 35.0301 18.2C34.7301 17 34.2201 15.8 33.5101 14.7C33.0001 14.9 32.5001 15.1 31.9901 15.1C31.0801 15.1 30.2701 14.8 29.6601 14.1C28.6501 13.1 28.34 11.5 29.05 10.3C27.94 9.59999 26.7201 9.19999 25.5101 8.79999C25.1101 10.1 23.7901 11.1 22.3701 11.1C20.8501 11.1 19.6401 10.2 19.2301 8.79999C18.0201 9.09999 16.8001 9.59999 15.6901 10.3C16.3001 11.6 16.09 13.1 15.08 14.1C14.47 14.7 13.6601 15.1 12.7501 15.1C12.2401 15.1 11.7401 15 11.2301 14.7C10.5201 15.8 10.1201 17 9.71005 18.2C11.0301 18.6 12.0401 19.9 12.0401 21.3C12.0401 22.8 11.1301 24 9.71005 24.4C10.0101 25.6 10.5201 26.8 11.2301 27.9C11.7401 27.7 12.2401 27.5 12.7501 27.5C13.6601 27.5 14.47 27.8 15.08 28.5C16.09 29.5 16.3901 31.1 15.6901 32.3C16.8001 33 18.0201 33.4 19.2301 33.8C19.5301 32.5 20.7501 31.6 22.2601 31.6H22.2701Z" fill="black"/>
<path id="Vector_15" d="M22.27 28C18.53 28 15.49 25 15.49 21.3C15.49 17.6 18.53 14.6 22.27 14.6C26.01 14.6 29.05 17.6 29.05 21.3C29.05 25 26.01 28 22.27 28ZM22.27 15.9C19.24 15.9 16.71 18.3 16.71 21.4C16.71 24.5 19.24 26.9 22.27 26.9C25.3 26.9 27.83 24.4 27.83 21.4C27.83 18.4 25.3 15.9 22.27 15.9Z" fill="black"/>
<path id="Vector_16" d="M22.27 40.8C17.21 40.8 12.15 38.9 8.31003 35.1C4.57003 31.4 2.54004 26.5 2.54004 21.3C2.54004 16.1 4.56003 11.2 8.31003 7.49999C12.05 3.79999 17.01 1.79999 22.27 1.79999C27.53 1.79999 32.49 3.79999 36.23 7.49999C43.11 14.3 43.92 25 38.15 32.7L40.27 34.8C40.47 35 40.47 35.4 40.27 35.7C40.07 35.9 39.66 35.9 39.36 35.7L36.83 33.2C36.63 33 36.63 32.6 36.73 32.4C42.39 25.2 41.79 14.8 35.21 8.39999C31.77 4.99999 27.12 3.09999 22.16 3.09999C17.2 3.09999 12.65 4.99999 9.11002 8.39999C5.67002 11.8 3.75003 16.4 3.75003 21.3C3.75003 26.2 5.67002 30.7 9.11002 34.2C15.69 40.7 26.11 41.3 33.39 35.7C33.59 35.5 34 35.5 34.2 35.8L36.73 38.3C36.93 38.5 36.93 38.9 36.73 39.2C36.53 39.4 36.12 39.4 35.82 39.2L33.7 37.1C30.46 39.5 26.32 40.8 22.27 40.8Z" fill="black"/>
<path id="Vector_17" d="M48.4702 52.4C47.1602 52.4 46.0402 51.9 45.1302 51L34.6101 40.5C34.5101 40.4 34.4102 40.2 34.4102 40.1C34.4102 40 34.5101 39.8 34.6101 39.7L40.8802 33.5C40.9802 33.4 41.1802 33.3 41.2802 33.3C41.4802 33.3 41.5802 33.4 41.6902 33.5L52.2101 43.9C54.0301 45.7 54.0301 48.7 52.2101 50.5L51.8102 50.9C50.9002 51.9 49.7902 52.4 48.4702 52.4ZM35.9301 40.1L46.0501 50.1C46.6601 50.7 47.5702 51.1 48.4802 51.1C49.3902 51.1 50.3002 50.7 50.9102 50.1L51.3202 49.7C52.6302 48.4 52.6302 46.2 51.3202 44.8L41.2002 34.8L35.9402 40.1H35.9301Z" fill="black"/>
<path id="Vector_18" d="M48.47 49.5C47.86 49.5 47.26 49.3 46.85 48.8C45.94 47.9 45.94 46.4 46.85 45.5C47.25 45.1 47.86 44.8 48.47 44.8C49.08 44.8 49.68 45 50.09 45.5C51 46.4 51 47.9 50.09 48.8C49.68 49.3 49.08 49.5 48.47 49.5ZM48.47 46.2C48.17 46.2 47.96 46.3 47.76 46.5C47.36 46.9 47.36 47.6 47.76 48C47.96 48.2 48.27 48.3 48.47 48.3C48.67 48.3 48.98 48.2 49.18 48C49.59 47.6 49.59 46.9 49.18 46.5C49.08 46.3 48.78 46.2 48.47 46.2Z" fill="black"/>
<path id="Vector_19" d="M39.3601 41.2C39.1601 41.2 39.0601 41.1 38.9601 41C38.7601 40.8 38.7601 40.4 38.9601 40.1L41.3901 37.7C41.5901 37.5 42.0001 37.5 42.3001 37.7C42.5001 37.9 42.5001 38.3 42.3001 38.6L39.7701 41C39.6701 41.1 39.4701 41.2 39.3601 41.2Z" fill="black"/>
<path id="Vector_20" d="M19.2302 48.3H5.27014C4.97014 48.3 4.66016 48 4.66016 47.7C4.66016 47.4 4.96014 47.1 5.27014 47.1H19.2302C19.5302 47.1 19.8401 47.4 19.8401 47.7C19.8401 48 19.5402 48.3 19.2302 48.3Z" fill="black"/>
<path id="Vector_21" d="M39.4601 52.1H5.98013C5.68013 52.1 5.37012 51.8 5.37012 51.5C5.37012 51.2 5.67013 50.9 5.98013 50.9H39.4601C39.7601 50.9 40.0701 51.2 40.0701 51.5C40.0701 51.8 39.7701 52.1 39.4601 52.1Z" fill="black"/>
<path id="Vector_22" d="M48.9702 12.7C46.1402 12.7 43.9102 10.5 43.9102 7.69999C43.9102 4.89999 46.1402 2.69999 48.9702 2.69999C51.8002 2.69999 54.0302 4.89999 54.0302 7.69999C54.0302 10.5 51.7002 12.7 48.9702 12.7ZM48.9702 3.89999C46.8502 3.89999 45.1302 5.59999 45.1302 7.69999C45.1302 9.79999 46.8502 11.5 48.9702 11.5C51.0902 11.5 52.8102 9.79999 52.8102 7.69999C52.7101 5.59999 50.9902 3.89999 48.9702 3.89999Z" fill="black"/>
<path id="Vector_23" d="M3.45007 41.4C1.73007 41.4 0.310059 40 0.310059 38.3C0.310059 36.6 1.73007 35.2 3.45007 35.2C5.17007 35.2 6.59006 36.6 6.59006 38.3C6.59006 40 5.17007 41.4 3.45007 41.4ZM3.45007 36.4C2.44007 36.4 1.53006 37.2 1.53006 38.3C1.53006 39.4 2.34007 40.2 3.45007 40.2C4.56007 40.2 5.37006 39.4 5.37006 38.3C5.37006 37.2 4.46007 36.4 3.45007 36.4Z" fill="black"/>
</g>
</g>
</svg>
