<svg width="57" height="59" viewBox="0 0 57 59" fill="none" xmlns="http://www.w3.org/2000/svg">
<g id="37, Web Page, Edit, Tools, Write">
<g id="Group">
<path id="Vector" d="M10.19 3.1C11.2 3.1 12.11 3.9 12.11 5C12.11 6 11.3 6.9 10.19 6.9C9.08003 6.9 8.27002 6.1 8.27002 5C8.27002 3.9 9.18003 3.1 10.19 3.1Z" fill="#43A3F9"/>
<path id="Vector_2" d="M45.3 0.599998C46.92 0.599998 48.13 1.9 48.13 3.4C48.13 5 46.81 6.2 45.3 6.2C43.79 6.2 42.47 4.9 42.47 3.4C42.47 1.8 43.68 0.599998 45.3 0.599998Z" fill="#43A3F9"/>
<path id="Vector_3" d="M23.45 17.4H3.21997V13.3C3.21997 11.4 4.73997 9.9 6.65997 9.9H23.45V17.4Z" fill="#618BAA"/>
<path id="Vector_4" d="M52.5802 13.7H23.4502V17.5H52.5802V13.7Z" fill="#7FA6CC"/>
<path id="Vector_5" d="M52.5802 13.3V13.7H23.4502V9.9H49.1402C51.0602 9.9 52.5802 11.4 52.5802 13.3Z" fill="#99BCE4"/>
<path id="Vector_6" d="M23.45 17.4H3.21997V54.7C3.21997 56.6 4.73997 58.1 6.65997 58.1H49.15C51.07 58.1 52.59 56.6 52.59 54.7V17.4H23.46H23.45Z" fill="#BDDFF4"/>
<path id="Vector_7" d="M47.52 22.4V53H8.27002V22.4H47.52Z" fill="#E3F4FF"/>
<path id="Vector_8" d="M24.36 40.5L25.17 44.1L18.49 46.3L20.72 39.6L24.36 40.5Z" fill="#FEDE93"/>
<path id="Vector_9" d="M35.8901 33.5L25.1701 44.1L24.3601 40.5L33.6601 31.3L35.8901 33.5Z" fill="#FC3E81"/>
<path id="Vector_10" d="M31.44 29L33.66 31.3L24.36 40.5L20.72 39.6L31.44 29Z" fill="#FD6096"/>
<path id="Vector_11" d="M37.31 27.7C38.52 28.9 38.52 30.9 37.31 32.1L36 33.4L33.7701 31.2L31.54 29L32.86 27.7C34.07 26.5 36 26.5 37.31 27.7Z" fill="#00D27E"/>
<path id="Vector_12" d="M55.41 8.7C55.91 8.7 56.32 9.1 56.32 9.6C56.32 10.1 55.91 10.5 55.41 10.5C54.91 10.5 54.5 10.1 54.5 9.6C54.5 9.1 54.91 8.7 55.41 8.7Z" fill="black"/>
<path id="Vector_13" d="M36.4 3.7C36.9 3.7 37.31 4.1 37.31 4.6C37.31 5.1 36.9 5.5 36.4 5.5C35.9 5.5 35.49 5.1 35.49 4.6C35.49 4.1 35.9 3.7 36.4 3.7Z" fill="black"/>
<path id="Vector_14" d="M25.0702 6.2C25.5702 6.2 25.9801 6.6 25.9801 7.1C25.9801 7.6 25.5702 8 25.0702 8C24.5702 8 24.1602 7.6 24.1602 7.1C24.1602 6.6 24.5702 6.2 25.0702 6.2Z" fill="black"/>
<path id="Vector_15" d="M18.69 2.5C19.19 2.5 19.6 2.9 19.6 3.4C19.6 3.9 19.19 4.3 18.69 4.3C18.19 4.3 17.78 3.9 17.78 3.4C17.78 2.9 18.19 2.5 18.69 2.5Z" fill="black"/>
<path id="Vector_16" d="M15.86 12.4C16.57 12.4 17.18 13 17.18 13.7C17.18 14.4 16.57 15 15.86 15C15.15 15 14.55 14.4 14.55 13.7C14.65 13 15.16 12.4 15.86 12.4Z" fill="black"/>
<path id="Vector_17" d="M12.1201 12.4C12.8301 12.4 13.4301 13 13.4301 13.7C13.4301 14.4 12.8201 15 12.1201 15C11.4201 15 10.8101 14.4 10.8101 13.7C10.8101 13 11.4201 12.4 12.1201 12.4Z" fill="black"/>
<path id="Vector_18" d="M8.2702 12.4C8.9802 12.4 9.59019 13 9.59019 13.7C9.59019 14.4 8.9802 15 8.2702 15C7.5602 15 6.9502 14.4 6.9502 13.7C7.0502 13 7.5602 12.4 8.2702 12.4Z" fill="black"/>
<path id="Vector_19" d="M0.990074 8.7C1.49007 8.7 1.90008 9.1 1.90008 9.6C1.90008 10.1 1.49007 10.5 0.990074 10.5C0.490074 10.5 0.0800781 10.1 0.0800781 9.6C0.0800781 9.1 0.490074 8.7 0.990074 8.7Z" fill="black"/>
<path id="Vector_20" d="M52.5801 18.1H3.2101C2.9101 18.1 2.6001 17.8 2.6001 17.5C2.6001 17.2 2.9001 16.9 3.2101 16.9H52.5801C52.8801 16.9 53.1901 17.2 53.1901 17.5C53.1901 17.8 52.8901 18.1 52.5801 18.1Z" fill="black"/>
<path id="Vector_21" d="M52.5801 14.3H23.4501C23.1501 14.3 22.8401 14 22.8401 13.7C22.8401 13.4 23.1401 13.1 23.4501 13.1H52.5801C52.8801 13.1 53.1901 13.4 53.1901 13.7C53.1901 14 52.8901 14.3 52.5801 14.3Z" fill="black"/>
<path id="Vector_22" d="M10.1902 7.4C8.77016 7.4 7.66016 6.3 7.66016 4.9C7.66016 3.5 8.77016 2.4 10.1902 2.4C11.6102 2.4 12.7202 3.5 12.7202 4.9C12.7202 6.3 11.6102 7.4 10.1902 7.4ZM10.1902 3.7C9.48015 3.7 8.88015 4.3 8.88015 5C8.88015 5.7 9.49015 6.3 10.1902 6.3C10.8902 6.3 11.5102 5.7 11.5102 5C11.4102 4.2 10.9002 3.7 10.1902 3.7Z" fill="black"/>
<path id="Vector_23" d="M45.3001 6.8C43.3801 6.8 41.8601 5.3 41.8601 3.4C41.8601 1.5 43.3801 0 45.3001 0C47.2201 0 48.7401 1.5 48.7401 3.4C48.7401 5.3 47.2201 6.8 45.3001 6.8ZM45.3001 1.2C44.0901 1.2 43.0701 2.2 43.0701 3.4C43.0701 4.6 44.0801 5.6 45.3001 5.6C46.5201 5.6 47.5301 4.6 47.5301 3.4C47.5301 2.2 46.5201 1.2 45.3001 1.2Z" fill="black"/>
<path id="Vector_24" d="M23.4501 18.1C23.1501 18.1 22.8401 17.8 22.8401 17.5V10C22.8401 9.7 23.1401 9.4 23.4501 9.4C23.7601 9.4 24.0601 9.7 24.0601 10V17.5C24.0601 17.8 23.8601 18.1 23.4501 18.1Z" fill="black"/>
<path id="Vector_25" d="M49.1401 58.7H6.6501C4.4201 58.7 2.6001 56.9 2.6001 54.7V13.3C2.6001 11.1 4.4201 9.3 6.6501 9.3H49.1401C51.3701 9.3 53.1901 11.1 53.1901 13.3V54.7C53.1901 56.9 51.3701 58.7 49.1401 58.7ZM6.6501 10.6C5.1301 10.6 3.8201 11.8 3.8201 13.4V54.8C3.8201 56.3 5.0301 57.6 6.6501 57.6H49.1401C50.6601 57.6 51.9701 56.4 51.9701 54.8V13.3C51.9701 11.8 50.7601 10.5 49.1401 10.5H6.6501V10.6Z" fill="black"/>
<path id="Vector_26" d="M47.5202 53.7H8.27015C7.97015 53.7 7.66016 53.4 7.66016 53.1V22.4C7.66016 22.1 7.96015 21.8 8.27015 21.8H47.5202C47.8202 21.8 48.1302 22.1 48.1302 22.4V53C48.1302 53.4 47.8302 53.7 47.5202 53.7ZM8.88015 52.4H46.8102V23.1H8.88015V52.4Z" fill="black"/>
<path id="Vector_27" d="M18.4901 46.9C18.2901 46.9 18.1901 46.8 18.0901 46.7C17.8901 46.5 17.8901 46.3 17.8901 46.1L20.1201 39.5C20.1201 39.4 20.2201 39.3 20.3201 39.3L32.3601 27.4C33.0701 26.7 33.9801 26.3 35.0901 26.3C36.1001 26.3 37.0101 26.7 37.8201 27.4C39.3401 28.9 39.3401 31.2 37.8201 32.7L36.5101 34L25.6901 44.5C25.5901 44.6 25.4901 44.6 25.4901 44.7L18.8101 46.9H18.5101H18.4901ZM21.3201 40L19.5001 45.3L24.8601 43.5L35.4801 33L36.7901 31.7C37.8001 30.7 37.8001 29.1 36.7901 28.2C36.2801 27.7 35.6801 27.5 34.9701 27.5C34.2601 27.5 33.6601 27.8 33.1501 28.2L21.3101 40H21.3201Z" fill="black"/>
<path id="Vector_28" d="M25.1701 44.7C24.8701 44.7 24.6601 44.5 24.5601 44.2L23.7501 41L20.6101 40.3C20.3101 40.2 20.1001 39.9 20.1001 39.5C20.1001 39.1 20.5001 39 20.9101 39L24.4501 39.9C24.6501 40 24.8501 40.1 24.9601 40.4L25.8701 43.9C25.9701 44.2 25.7701 44.6 25.3601 44.7H25.1601H25.1701Z" fill="black"/>
<path id="Vector_29" d="M24.3601 41.2C24.1601 41.2 24.0601 41.1 23.9601 41C23.7601 40.8 23.7601 40.4 23.9601 40.1L33.37 30.8C33.57 30.6 33.9801 30.6 34.2801 30.8C34.4801 31 34.4801 31.4 34.2801 31.7L24.87 41C24.67 41.1 24.4701 41.2 24.3601 41.2Z" fill="black"/>
<path id="Vector_30" d="M35.8901 34.1C35.6901 34.1 35.5901 34 35.4901 33.9L31.0401 29.5C30.8401 29.3 30.8401 28.9 31.0401 28.6C31.2401 28.4 31.6501 28.4 31.9501 28.6L36.4001 33C36.6001 33.2 36.6001 33.6 36.4001 33.9C36.3001 34 36.1001 34.1 35.8901 34.1Z" fill="black"/>
<path id="Vector_31" d="M37.7101 49.9H27.9001C27.6001 49.9 27.2901 49.6 27.2901 49.3C27.2901 49 27.5901 48.7 27.9001 48.7H37.7101C37.9101 48.7 38.2201 48.6 38.3201 48.4C38.5201 48.2 38.6201 48 38.6201 47.8C38.6201 47.3 38.2201 46.9 37.7101 46.9H18.4901C18.1901 46.9 17.8801 46.6 17.8801 46.3C17.8801 46 18.1801 45.7 18.4901 45.7H37.7101C38.9201 45.7 39.8301 46.7 39.8301 47.8C39.8301 48.4 39.6301 48.9 39.2201 49.3C38.8201 49.7 38.3101 49.9 37.7001 49.9H37.7101Z" fill="black"/>
</g>
</g>
</svg>
