<svg width="57" height="57" viewBox="0 0 57 57" fill="none" xmlns="http://www.w3.org/2000/svg">
<g id="32, Cog, Gear, Globe, Settings">
<g id="Group">
<path id="Vector" d="M52.9599 3.30001C54.6799 3.30001 56.0999 4.70001 56.0999 6.40001C56.0999 8.10001 54.6799 9.50001 52.9599 9.50001C51.2399 9.50001 49.8199 8.10001 49.8199 6.40001C49.7199 4.70001 51.1399 3.30001 52.9599 3.30001Z" fill="#FD6096"/>
<path id="Vector_2" d="M5.52005 55.2C7.97772 55.2 9.97006 53.2301 9.97006 50.8C9.97006 48.37 7.97772 46.4 5.52005 46.4C3.06238 46.4 1.07007 48.37 1.07007 50.8C1.07007 53.2301 3.06238 55.2 5.52005 55.2Z" fill="#FD6096"/>
<path id="Vector_3" d="M51.2399 15C53.0599 17.7 54.3799 20.7 54.9799 24C52.4499 24.2 50.5299 26.3 50.5299 28.9C50.5299 31.5 52.5499 33.6 54.9799 33.8C54.2699 37.1 53.0599 40.1 51.2399 42.8C49.3199 41.2 46.3799 41.3 44.5599 43.1C42.7399 44.9 42.6399 47.8 44.2599 49.7C41.5299 51.5 38.4899 52.8 35.1599 53.4C34.9599 50.9 32.8299 49 30.1999 49C27.5699 49 25.4499 51 25.2399 53.4C21.8999 52.7 18.8699 51.5 16.1399 49.7C17.7599 47.8 17.6599 44.9 15.8399 43.1C14.0199 41.3 11.0899 41.2 9.15991 42.8C7.33991 40.1 6.01992 37.1 5.41992 33.8C7.94992 33.6 9.8699 31.5 9.8699 28.9C9.8699 26.3 7.94992 24.2 5.41992 24C6.12992 20.7 7.33991 17.7 9.15991 15C11.0799 16.6 14.0199 16.5 15.8399 14.7C17.6599 12.9 17.7599 10 16.1399 8.10001C18.8699 6.30001 21.9099 5.00001 25.2399 4.40001C25.4399 6.90001 27.5699 8.80001 30.1999 8.80001C32.8299 8.80001 34.9499 6.80001 35.1599 4.40001C38.4999 5.10001 41.5299 6.30001 44.2599 8.10001C42.6399 10 42.7399 12.9 44.5599 14.7C46.3799 16.5 49.2099 16.6 51.2399 15Z" fill="#003FCC"/>
<path id="Vector_4" d="M30.2 34.3C32.53 34.3 34.75 34.9 36.67 35.9C35.35 40.2 32.93 43.1 30.2 43.1V34.3Z" fill="#1685FB"/>
<path id="Vector_5" d="M23.62 35.9C24.94 40.2 27.36 43.1 30.09 43.1C26.04 43.1 22.4 41.4 19.77 38.7C20.98 37.5 22.2 36.6 23.61 35.9H23.62Z" fill="#1685FB"/>
<path id="Vector_6" d="M30.2 28.9V34.3C27.87 34.3 25.65 34.9 23.73 35.9C23.12 33.9 22.72 31.5 22.72 29H30.21V28.9H30.2Z" fill="#1685FB"/>
<path id="Vector_7" d="M54.4801 44.6C54.9901 44.6 55.3901 45 55.3901 45.5C55.3901 46 54.9901 46.4 54.4801 46.4C53.9701 46.4 53.5701 46 53.5701 45.5C53.5701 45 53.9701 44.6 54.4801 44.6Z" fill="black"/>
<path id="Vector_8" d="M48.8099 53.3C49.3199 53.3 49.7199 53.7 49.7199 54.2C49.7199 54.7 49.3199 55.1 48.8099 55.1C48.2999 55.1 47.8999 54.7 47.8999 54.2C47.8999 53.7 48.2999 53.3 48.8099 53.3Z" fill="black"/>
<path id="Vector_9" d="M44.3599 0.800011C44.8599 0.800011 45.2699 1.20001 45.2699 1.70001C45.2699 2.20001 44.8599 2.60001 44.3599 2.60001C43.8599 2.60001 43.45 2.20001 43.45 1.70001C43.45 1.20001 43.8599 0.800011 44.3599 0.800011Z" fill="black"/>
<path id="Vector_10" d="M44.4599 28.9H37.6799C37.6799 26.4 37.3799 24 36.6699 22C38.0899 21.3 39.3999 20.3 40.5099 19.2C42.9399 21.7 44.4599 25.1 44.4599 28.9Z" fill="#43A3F9"/>
<path id="Vector_11" d="M37.6899 28.9H44.4699C44.4699 32.7 42.9499 36.1 40.5199 38.6C39.4099 37.5 38.0899 36.5 36.6799 35.8C37.2899 33.8 37.6899 31.4 37.6899 28.9Z" fill="#1685FB"/>
<path id="Vector_12" d="M30.2 14.8C34.25 14.8 37.8899 16.5 40.5199 19.2C39.4099 20.3 38.0899 21.3 36.6799 22C35.3599 17.7 32.9399 14.8 30.2099 14.8H30.2Z" fill="#1685FB"/>
<path id="Vector_13" d="M40.5199 38.7C37.8899 41.4 34.25 43.1 30.2 43.1C33.03 43.1 35.46 40.2 36.67 35.9C38.09 36.6 39.3999 37.5 40.5099 38.7H40.5199Z" fill="#43A3F9"/>
<path id="Vector_14" d="M37.6899 28.9H30.2V23.5C32.53 23.5 34.75 22.9 36.67 21.9C37.28 24 37.6799 26.4 37.6799 28.9H37.6899Z" fill="#1685FB"/>
<path id="Vector_15" d="M30.2 28.9H37.6899C37.6899 31.4 37.3899 33.8 36.6799 35.8C34.7599 34.8 32.5299 34.2 30.2099 34.2V28.9H30.2Z" fill="#43A3F9"/>
<path id="Vector_16" d="M36.67 22C34.75 23 32.52 23.6 30.2 23.6V14.8C32.93 14.8 35.36 17.7 36.67 22Z" fill="#43A3F9"/>
<path id="Vector_17" d="M30.2 34.3V43C27.37 43 24.94 40.1 23.73 35.8C25.65 34.9 27.78 34.3 30.2 34.3Z" fill="#43A3F9"/>
<path id="Vector_18" d="M30.2 23.5V28.9H22.71C22.71 26.4 23.01 24 23.72 22C25.64 23 27.77 23.5 30.19 23.5H30.2Z" fill="#43A3F9"/>
<path id="Vector_19" d="M30.2 14.8V23.5C27.87 23.5 25.65 22.9 23.73 21.9C24.94 17.7 27.37 14.8 30.2 14.8Z" fill="#1685FB"/>
<path id="Vector_20" d="M30.1999 14.8C27.3699 14.8 24.9399 17.7 23.7299 22C22.3099 21.3 20.9999 20.3 19.8899 19.2C22.4199 16.5 26.0599 14.8 30.2099 14.8H30.1999Z" fill="#43A3F9"/>
<path id="Vector_21" d="M23.6201 22C23.0101 24 22.6101 26.4 22.6101 28.9H15.8301C15.8301 25.1 17.3501 21.7 19.7801 19.2C20.8901 20.3 22.2101 21.3 23.6201 22Z" fill="#1685FB"/>
<path id="Vector_22" d="M22.71 28.9C22.71 31.4 23.01 33.8 23.72 35.8C22.3 36.5 20.99 37.5 19.98 38.6C17.55 36.1 16.03 32.6 16.03 28.9H22.71Z" fill="#43A3F9"/>
<path id="Vector_23" d="M14.0101 0.200012C14.5101 0.200012 14.9201 0.600012 14.9201 1.10001C14.9201 1.60001 14.5101 2.00001 14.0101 2.00001C13.5101 2.00001 13.1001 1.60001 13.1001 1.10001C13.1001 0.600012 13.5101 0.200012 14.0101 0.200012Z" fill="black"/>
<path id="Vector_24" d="M14.0101 54.6C14.5201 54.6 14.9201 55 14.9201 55.5C14.9201 56 14.5201 56.4 14.0101 56.4C13.5001 56.4 13.1001 56 13.1001 55.5C13.1001 55 13.5001 54.6 14.0101 54.6Z" fill="black"/>
<path id="Vector_25" d="M3.89999 10.2C4.39999 10.2 4.81 10.6 4.81 11.1C4.81 11.6 4.39999 12 3.89999 12C3.39999 12 2.98999 11.6 2.98999 11.1C2.98999 10.6 3.39999 10.2 3.89999 10.2Z" fill="black"/>
<path id="Vector_26" d="M30.1999 43.7C27.1599 43.7 24.5399 40.8 23.1199 36.1C22.5099 33.9 22.1099 31.5 22.1099 29C22.1099 26.5 22.4099 24.1 23.1199 21.9C24.5399 17.2 27.2699 14.3 30.1999 14.3C33.1299 14.3 35.8699 17.2 37.2799 21.9C37.8899 24.1 38.2899 26.5 38.2899 29C38.2899 31.5 37.9899 34 37.2799 36.1C35.8599 40.7 33.1299 43.7 30.1999 43.7ZM30.1999 15.4C27.7699 15.4 25.5499 18 24.3299 22.1C23.7199 24.1 23.4199 26.5 23.4199 28.9C23.4199 31.3 23.7199 33.6 24.3299 35.7C25.5399 39.9 27.8699 42.4 30.1999 42.4C32.5299 42.4 34.8499 39.8 36.0699 35.7C36.6799 33.7 36.9799 31.3 36.9799 28.9C36.9799 26.5 36.6799 24.2 36.0699 22.1C34.8599 18 32.5299 15.4 30.1999 15.4Z" fill="black"/>
<path id="Vector_27" d="M30.2001 24.2C27.8701 24.2 25.4501 23.6 23.4201 22.6C21.9001 21.9 20.5901 20.9 19.4701 19.7C19.2701 19.5 19.2701 19.1 19.4701 18.8C19.6701 18.6 20.0801 18.6 20.3801 18.8C21.4901 19.9 22.7101 20.8 24.0201 21.5C25.9401 22.5 28.0701 23 30.2901 23C32.5101 23 34.5401 22.5 36.5601 21.5C37.8801 20.8 39.1901 19.9 40.2001 18.8C40.4001 18.6 40.8101 18.5 41.1101 18.8C41.3101 19 41.4101 19.4 41.1101 19.7C40.0001 20.9 38.5801 21.9 37.1701 22.6C34.8401 23.6 32.5201 24.2 30.1901 24.2H30.2001Z" fill="black"/>
<path id="Vector_28" d="M40.52 39.3C40.32 39.3 40.22 39.2 40.12 39.1C39.11 38 37.79 37.1 36.48 36.4C34.56 35.4 32.43 34.9 30.21 34.9C27.99 34.9 25.96 35.4 23.94 36.4C22.62 37.1 21.41 38 20.3 39.1C20.1 39.3 19.69 39.4 19.39 39.1C19.19 38.9 19.09 38.5 19.39 38.2C20.5 37 21.82 36 23.34 35.3C25.46 34.2 27.79 33.7 30.12 33.7C32.45 33.7 34.77 34.2 36.9 35.3C38.42 36.1 39.73 37 40.85 38.2C41.05 38.4 41.05 38.8 40.85 39.1C40.85 39.2 40.65 39.3 40.55 39.3H40.52Z" fill="black"/>
<path id="Vector_29" d="M44.46 29.6H15.83C15.53 29.6 15.22 29.3 15.22 29C15.22 28.7 15.52 28.4 15.83 28.4H44.36C44.66 28.4 44.97 28.7 44.97 29C44.97 29.3 44.77 29.6 44.46 29.6Z" fill="black"/>
<path id="Vector_30" d="M30.1999 43.7C29.8999 43.7 29.5898 43.4 29.5898 43.1V14.8C29.5898 14.5 29.8899 14.2 30.1999 14.2C30.5099 14.2 30.8098 14.5 30.8098 14.8V43C30.8098 43.4 30.5099 43.7 30.1999 43.7Z" fill="black"/>
<path id="Vector_31" d="M30.2 43.7C26.05 43.7 22.21 42.1 19.38 39.1C16.75 36.3 15.23 32.7 15.23 28.9C15.23 25.1 16.65 21.5 19.38 18.7C22.21 15.8 26.06 14.1 30.2 14.1C34.34 14.1 38.19 15.7 41.02 18.7C43.65 21.5 45.17 25.1 45.17 28.9C45.17 32.7 43.75 36.3 41.02 39.1C38.09 42 34.24 43.7 30.2 43.7ZM30.2 15.4C26.46 15.4 22.92 16.9 20.29 19.6C17.86 22.1 16.55 25.4 16.55 28.9C16.55 32.4 17.86 35.7 20.29 38.2C22.92 40.9 26.36 42.4 30.2 42.4C34.04 42.4 37.48 40.9 40.11 38.2C42.54 35.7 43.85 32.4 43.85 28.9C43.85 25.4 42.54 22.1 40.11 19.6C37.48 16.9 33.94 15.4 30.2 15.4Z" fill="black"/>
<path id="Vector_32" d="M25.2401 54.1H25.1401C21.8001 53.4 18.67 52.2 15.83 50.3C15.73 50.2 15.6301 50 15.5301 49.9C15.5301 49.7 15.5301 49.5 15.6301 49.4C17.0501 47.7 16.94 45.2 15.33 43.6C14.52 42.8 13.4101 42.3 12.2901 42.3C11.2801 42.3 10.2701 42.6 9.56006 43.3C9.46006 43.4 9.26005 43.5 9.05005 43.4C8.85005 43.4 8.75005 43.3 8.65005 43.1C6.73005 40.3 5.41006 37.2 4.81006 33.9C4.81006 33.7 4.81006 33.5 4.91006 33.4C5.01006 33.3 5.21007 33.2 5.32007 33.2C7.55007 33 9.27005 31.1 9.27005 28.9C9.27005 26.7 7.55007 24.8 5.32007 24.6C5.12007 24.6 5.02006 24.5 4.91006 24.4C4.81006 24.3 4.81006 24.1 4.81006 23.9C5.52006 20.6 6.73005 17.5 8.65005 14.7C8.75005 14.6 8.95005 14.5 9.05005 14.4C9.25005 14.4 9.46006 14.4 9.56006 14.5C10.3701 15.1 11.2801 15.5 12.2901 15.5C13.4001 15.5 14.52 15.1 15.33 14.2C16.95 12.6 17.0501 10.2 15.6301 8.40001C15.5301 8.30001 15.4301 8.10001 15.5301 7.90001C15.5301 7.70001 15.63 7.60001 15.83 7.50001C18.66 5.60001 21.8001 4.30001 25.1401 3.70001C25.3401 3.70001 25.5401 3.70001 25.6501 3.80001C25.7501 3.90001 25.8501 4.10001 25.8501 4.20001C26.0501 6.40001 27.9701 8.10001 30.2001 8.10001C32.4301 8.10001 34.35 6.40001 34.55 4.20001C34.55 4.00001 34.6501 3.90001 34.7501 3.80001C34.8501 3.70001 35.0501 3.70001 35.2601 3.70001C38.6001 4.40001 41.7301 5.60001 44.5701 7.50001C44.6701 7.60001 44.7701 7.80001 44.8701 7.90001C44.8701 8.10001 44.87 8.30001 44.7701 8.40001C43.3501 10.1 43.4501 12.6 45.0701 14.2C45.8801 15 46.99 15.5 48.11 15.5C49.12 15.5 50.1301 15.2 50.8401 14.5C50.9401 14.4 51.1401 14.3 51.3501 14.4C51.5501 14.4 51.6501 14.5 51.7501 14.7C53.6701 17.5 54.9901 20.6 55.5901 23.9C55.5901 24.1 55.59 24.3 55.4901 24.4C55.3901 24.5 55.19 24.6 55.08 24.6C52.86 24.8 51.1401 26.7 51.1401 28.9C51.1401 31.1 52.86 33 55.08 33.2C55.28 33.2 55.3801 33.3 55.4901 33.4C55.59 33.5 55.5901 33.7 55.5901 33.9C54.8801 37.2 53.6701 40.3 51.7501 43.1C51.6501 43.2 51.4501 43.3 51.3501 43.4C51.1501 43.4 50.9401 43.4 50.8401 43.3C50.0301 42.7 49.12 42.3 48.11 42.3C46.9 42.3 45.8801 42.7 45.0701 43.6C43.4501 45.2 43.3501 47.7 44.7701 49.4C44.87 49.5 44.9701 49.7 44.8701 49.9C44.8701 50.1 44.7701 50.2 44.5701 50.3C41.7401 52.2 38.6001 53.5 35.2601 54.1C35.0601 54.1 34.8601 54.1 34.7501 54C34.6501 53.9 34.55 53.7 34.55 53.6C34.35 51.4 32.4301 49.7 30.2001 49.7C27.9701 49.7 26.0501 51.4 25.8501 53.6C25.8501 53.8 25.7501 53.9 25.6501 54C25.4501 54.1 25.3501 54.1 25.2401 54.1ZM30.2001 48.4C32.8301 48.4 35.1601 50.2 35.6601 52.7C38.3901 52.1 40.9201 51 43.3501 49.6C41.9301 47.4 42.2401 44.6 44.1601 42.7C45.1701 41.7 46.59 41.1 48.11 41.1C49.12 41.1 50.2301 41.4 51.1501 42C52.6701 39.7 53.6801 37.1 54.2901 34.4C51.7601 33.8 49.9401 31.6 49.9401 29C49.9401 26.4 51.7601 24.1 54.2901 23.6C53.6801 20.9 52.5701 18.4 51.1501 16C50.2401 16.6 49.23 16.9 48.11 16.9C46.59 16.9 45.1801 16.3 44.1601 15.3C42.2401 13.4 41.9301 10.6 43.3501 8.40001C41.0201 6.90001 38.3901 5.90001 35.6601 5.30001C35.0501 7.80001 32.8301 9.60001 30.2001 9.60001C27.5701 9.60001 25.2401 7.80001 24.7401 5.30001C22.0101 5.90001 19.48 7.00001 17.05 8.40001C18.47 10.6 18.1601 13.4 16.2401 15.3C15.2301 16.3 13.8101 16.9 12.2901 16.9C11.1801 16.9 10.1701 16.6 9.26007 16C7.74007 18.3 6.73006 20.9 6.12006 23.6C8.65006 24.2 10.4701 26.4 10.4701 29C10.4701 31.6 8.65006 33.9 6.12006 34.4C6.73006 37.1 7.84007 39.6 9.26007 42C10.1701 41.4 11.1801 41.1 12.2901 41.1C13.8101 41.1 15.2201 41.7 16.2401 42.7C18.1601 44.6 18.47 47.4 17.05 49.6C19.38 51.1 22.0101 52.1 24.7401 52.7C25.2501 50.2 27.4701 48.4 30.2001 48.4Z" fill="black"/>
<path id="Vector_33" d="M52.9599 10.2C50.8399 10.2 49.1199 8.50001 49.1199 6.40001C49.1199 4.30001 50.8399 2.60001 52.9599 2.60001C55.0799 2.60001 56.7999 4.30001 56.7999 6.40001C56.6999 8.50001 54.9799 10.2 52.9599 10.2ZM52.9599 3.90001C51.5399 3.90001 50.4299 5.00001 50.4299 6.40001C50.4299 7.80001 51.5399 8.90001 52.9599 8.90001C54.3799 8.90001 55.4899 7.80001 55.4899 6.40001C55.4899 5.00001 54.2799 3.90001 52.9599 3.90001Z" fill="black"/>
<path id="Vector_34" d="M5.51996 55.8C2.68996 55.8 0.459961 53.6 0.459961 50.8C0.459961 48 2.67996 45.8 5.51996 45.8C8.35996 45.8 10.58 48 10.58 50.8C10.58 53.6 8.24996 55.8 5.51996 55.8ZM5.51996 47.1C3.39996 47.1 1.67996 48.8 1.67996 50.9C1.67996 53 3.39996 54.7 5.51996 54.7C7.63996 54.7 9.35995 53 9.35995 50.9C9.25995 48.7 7.63996 47.1 5.51996 47.1Z" fill="black"/>
</g>
</g>
</svg>
