<svg width="137" height="32" viewBox="0 0 137 32" fill="none" xmlns="http://www.w3.org/2000/svg">
<g clip-path="url(#clip0_322_1984)">
<path d="M8.03315 16.675C8.02789 20.8487 8.01738 25.0224 8.00686 29.1961C8.00555 29.9835 7.99766 30.7696 8.00423 31.557C8.00686 31.833 7.97005 32.0223 7.61907 31.9987C5.63673 31.8646 3.59919 31.2822 2.18868 29.81C0.733475 28.289 0.0262494 26.3566 0.0104749 24.2639C-0.00924332 21.7242 0.00784578 19.1858 0.00127305 16.6461C0.00127305 16.583 0.00127305 16.5186 0.00127305 16.4555C-4.14992e-05 16.1098 0.115639 16.0059 0.454792 16.0085C2.83675 16.0217 5.21871 16.0309 7.60067 16.0125C8.16198 16.0085 8.03447 16.374 8.03447 16.6737L8.03315 16.675Z" fill="#4A6CFF"/>
<path d="M17.682 26.1319C17.3165 27.7107 16.4923 29.2224 15.2395 30.2674C14.1458 31.1797 12.7669 31.6648 11.3735 31.8804C9.88277 32.1104 9.8762 32.0815 9.87751 30.5698C9.88146 27.2492 9.88803 23.9274 9.89329 20.6055C9.89066 20.2953 9.88934 19.9851 9.88671 19.6735C9.87357 14.8202 9.86042 9.96691 9.84728 5.11492C9.84333 3.62817 9.86042 2.1401 9.8315 0.654662C9.82362 0.189313 9.91563 -0.00129639 10.4362 0.00921998C12.249 0.0460273 14.063 0.0328818 15.8784 0.03814C16.3188 0.03814 16.7592 0.0591727 17.1995 0.0131636C17.3454 -0.00261094 17.5019 -0.0210146 17.632 0.0486564C17.7898 0.131473 17.8608 0.319453 17.8778 0.496917C17.9633 1.44602 17.8857 2.43587 17.8857 3.38892C17.8857 4.41689 17.8857 5.44355 17.8857 6.47153C17.8857 8.38419 17.8897 10.2969 17.8923 12.2095C17.8949 14.1222 17.8989 16.0349 17.9015 17.9475C17.9041 19.8602 17.9094 21.7334 17.9054 23.6264C17.9028 24.4598 17.8752 25.3103 17.6846 26.1319H17.682Z" fill="#4A6CFF"/>
</g>
<path d="M29.4439 25.24C28.7559 25.24 28.1559 25.2 27.6439 25.12C27.1319 25.056 26.8759 25.024 26.8759 25.024V21.928C26.8759 21.928 27.0759 21.952 27.4759 22C27.8759 22.032 28.3079 22.048 28.7719 22.048C29.8759 22.048 30.7559 21.784 31.4119 21.256C32.0679 20.728 32.3959 19.784 32.3959 18.424V7.24H36.0679V18.496C36.0679 19.76 35.8439 20.904 35.3959 21.928C34.9479 22.936 34.2359 23.744 33.2599 24.352C32.2999 24.944 31.0279 25.24 29.4439 25.24ZM45.601 25.24C44.177 25.24 42.969 24.936 41.977 24.328C40.985 23.704 40.225 22.896 39.697 21.904C39.185 20.896 38.929 19.808 38.929 18.64C38.929 17.472 39.185 16.392 39.697 15.4C40.225 14.392 40.985 13.584 41.977 12.976C42.969 12.352 44.177 12.04 45.601 12.04C47.025 12.04 48.233 12.352 49.225 12.976C50.217 13.584 50.969 14.392 51.481 15.4C52.009 16.392 52.273 17.472 52.273 18.64C52.273 19.808 52.009 20.896 51.481 21.904C50.969 22.896 50.217 23.704 49.225 24.328C48.233 24.936 47.025 25.24 45.601 25.24ZM45.601 22.264C46.241 22.264 46.777 22.096 47.209 21.76C47.657 21.424 48.001 20.984 48.241 20.44C48.481 19.88 48.601 19.28 48.601 18.64C48.601 17.984 48.481 17.384 48.241 16.84C48.001 16.296 47.657 15.856 47.209 15.52C46.777 15.184 46.241 15.016 45.601 15.016C44.961 15.016 44.417 15.184 43.969 15.52C43.521 15.856 43.177 16.296 42.937 16.84C42.713 17.384 42.601 17.984 42.601 18.64C42.601 19.28 42.713 19.88 42.937 20.44C43.177 20.984 43.521 21.424 43.969 21.76C44.417 22.096 44.961 22.264 45.601 22.264ZM54.9932 25V6.76H58.6412V14.104H58.7612C58.9052 13.848 59.1132 13.56 59.3852 13.24C59.6732 12.92 60.0492 12.64 60.5132 12.4C60.9932 12.16 61.6012 12.04 62.3372 12.04C63.3292 12.04 64.1372 12.272 64.7612 12.736C65.3852 13.184 65.8412 13.768 66.1292 14.488C66.4172 15.192 66.5612 15.936 66.5612 16.72V25H62.9132V17.344C62.9132 16.736 62.7452 16.2 62.4092 15.736C62.0892 15.272 61.5692 15.04 60.8492 15.04C60.3052 15.04 59.8732 15.168 59.5532 15.424C59.2332 15.68 59.0012 16.008 58.8572 16.408C58.7132 16.808 58.6412 17.232 58.6412 17.68V25H54.9932ZM69.3548 25V12.28H73.0028V14.104H73.1228C73.2668 13.848 73.4748 13.56 73.7468 13.24C74.0348 12.92 74.4108 12.64 74.8748 12.4C75.3548 12.16 75.9628 12.04 76.6988 12.04C77.6908 12.04 78.4988 12.272 79.1228 12.736C79.7468 13.184 80.2028 13.768 80.4908 14.488C80.7788 15.192 80.9228 15.936 80.9228 16.72V25H77.2748V17.344C77.2748 16.736 77.1068 16.2 76.7708 15.736C76.4508 15.272 75.9308 15.04 75.2108 15.04C74.6668 15.04 74.2348 15.168 73.9148 15.424C73.5948 15.68 73.3628 16.008 73.2188 16.408C73.0748 16.808 73.0028 17.232 73.0028 17.68V25H69.3548ZM89.4698 25V7.24H96.1898C97.6298 7.24 98.8938 7.496 99.9818 8.008C101.086 8.504 101.998 9.176 102.718 10.024C103.438 10.872 103.982 11.824 104.35 12.88C104.718 13.936 104.902 15.016 104.902 16.12C104.902 17.224 104.718 18.304 104.35 19.36C103.982 20.416 103.438 21.368 102.718 22.216C101.998 23.064 101.086 23.744 99.9818 24.256C98.8938 24.752 97.6298 25 96.1898 25H89.4698ZM96.0218 10.48H93.1658V21.712H96.0218C97.1898 21.712 98.1498 21.44 98.9018 20.896C99.6698 20.352 100.238 19.648 100.606 18.784C100.99 17.92 101.182 17.024 101.182 16.096C101.182 15.168 100.99 14.28 100.606 13.432C100.238 12.568 99.6698 11.864 98.9018 11.32C98.1498 10.76 97.1898 10.48 96.0218 10.48ZM113.757 25.24C112.333 25.24 111.125 24.936 110.133 24.328C109.141 23.704 108.381 22.896 107.853 21.904C107.341 20.896 107.085 19.808 107.085 18.64C107.085 17.472 107.341 16.392 107.853 15.4C108.381 14.392 109.141 13.584 110.133 12.976C111.125 12.352 112.333 12.04 113.757 12.04C115.181 12.04 116.389 12.352 117.381 12.976C118.373 13.584 119.125 14.392 119.637 15.4C120.165 16.392 120.429 17.472 120.429 18.64C120.429 19.808 120.165 20.896 119.637 21.904C119.125 22.896 118.373 23.704 117.381 24.328C116.389 24.936 115.181 25.24 113.757 25.24ZM113.757 22.264C114.397 22.264 114.933 22.096 115.365 21.76C115.813 21.424 116.157 20.984 116.397 20.44C116.637 19.88 116.757 19.28 116.757 18.64C116.757 17.984 116.637 17.384 116.397 16.84C116.157 16.296 115.813 15.856 115.365 15.52C114.933 15.184 114.397 15.016 113.757 15.016C113.117 15.016 112.573 15.184 112.125 15.52C111.677 15.856 111.333 16.296 111.093 16.84C110.869 17.384 110.757 17.984 110.757 18.64C110.757 19.28 110.869 19.88 111.093 20.44C111.333 20.984 111.677 21.424 112.125 21.76C112.573 22.096 113.117 22.264 113.757 22.264ZM129.269 25.24C128.149 25.24 127.181 25.056 126.365 24.688C125.549 24.304 124.877 23.8 124.349 23.176C123.821 22.536 123.421 21.824 123.149 21.04C122.893 20.256 122.765 19.448 122.765 18.616C122.765 17.816 122.885 17.032 123.125 16.264C123.381 15.48 123.765 14.768 124.277 14.128C124.805 13.488 125.469 12.984 126.269 12.616C127.085 12.232 128.045 12.04 129.149 12.04C130.317 12.04 131.349 12.296 132.245 12.808C133.157 13.32 133.869 14.08 134.381 15.088C134.893 16.08 135.149 17.288 135.149 18.712V19.6H126.437C126.485 20.368 126.749 21.032 127.229 21.592C127.725 22.152 128.405 22.432 129.269 22.432C129.765 22.432 130.165 22.36 130.469 22.216C130.789 22.056 131.037 21.88 131.213 21.688C131.389 21.48 131.509 21.296 131.573 21.136C131.637 20.976 131.669 20.896 131.669 20.896H135.029C135.029 20.896 134.989 21.048 134.909 21.352C134.845 21.64 134.701 22 134.477 22.432C134.253 22.864 133.925 23.296 133.493 23.728C133.077 24.16 132.525 24.52 131.837 24.808C131.149 25.096 130.293 25.24 129.269 25.24ZM126.437 17.392H131.645C131.597 16.512 131.333 15.856 130.853 15.424C130.373 14.992 129.781 14.776 129.077 14.776C128.373 14.776 127.773 15.008 127.277 15.472C126.781 15.92 126.501 16.56 126.437 17.392Z" fill="#09090A"/>
<defs>
<clipPath id="clip0_322_1984">
<rect width="17.916" height="32" fill="white"/>
</clipPath>
</defs>
</svg>
