<svg width="137" height="32" viewBox="0 0 137 32" fill="none" xmlns="http://www.w3.org/2000/svg">
<g clip-path="url(#clip0_382_1447)">
<path d="M8.03254 16.6748C8.02728 20.8485 8.01677 25.0222 8.00625 29.1959C8.00494 29.9833 7.99705 30.7694 8.00362 31.5568C8.00625 31.8329 7.96944 32.0222 7.61846 31.9985C5.63612 31.8644 3.59858 31.2821 2.18807 29.8098C0.732865 28.2888 0.0256391 26.3565 0.00986452 24.2637C-0.00985368 21.724 0.00723543 19.1856 0.000662696 16.6459C0.000662696 16.5828 0.000662696 16.5184 0.000662696 16.4553C-0.000651851 16.1096 0.115028 16.0057 0.454181 16.0083C2.83614 16.0215 5.2181 16.0307 7.60005 16.0123C8.16137 16.0083 8.03386 16.3738 8.03386 16.6735L8.03254 16.6748Z" fill="#4A6CFF"/>
<path d="M17.681 26.1319C17.3156 27.7107 16.4913 29.2224 15.2386 30.2674C14.1449 31.1797 12.7659 31.6648 11.3725 31.8804C9.88179 32.1104 9.87522 32.0815 9.87654 30.5698C9.88048 27.2492 9.88705 23.9274 9.89231 20.6055C9.88968 20.2953 9.88837 19.9851 9.88574 19.6735C9.87259 14.8202 9.85945 9.96691 9.8463 5.11492C9.84236 3.62817 9.85945 2.1401 9.83053 0.654662C9.82264 0.189313 9.91466 -0.00129639 10.4352 0.00921998C12.248 0.0460273 14.0621 0.0328818 15.8774 0.03814C16.3178 0.03814 16.7582 0.0591727 17.1986 0.0131636C17.3445 -0.00261094 17.5009 -0.0210146 17.631 0.0486564C17.7888 0.131473 17.8598 0.319453 17.8769 0.496917C17.9623 1.44602 17.8848 2.43587 17.8848 3.38892C17.8848 4.41689 17.8848 5.44355 17.8848 6.47153C17.8848 8.38419 17.8887 10.2969 17.8913 12.2095C17.894 14.1222 17.8979 16.0349 17.9005 17.9475C17.9032 19.8602 17.9084 21.7334 17.9045 23.6264C17.9018 24.4598 17.8742 25.3103 17.6836 26.1319H17.681Z" fill="#4A6CFF"/>
</g>
<path d="M29.444 25.24C28.756 25.24 28.156 25.2 27.644 25.12C27.132 25.056 26.876 25.024 26.876 25.024V21.928C26.876 21.928 27.076 21.952 27.476 22C27.876 22.032 28.308 22.048 28.772 22.048C29.876 22.048 30.756 21.784 31.412 21.256C32.068 20.728 32.396 19.784 32.396 18.424V7.24H36.068V18.496C36.068 19.76 35.844 20.904 35.396 21.928C34.948 22.936 34.236 23.744 33.26 24.352C32.3 24.944 31.028 25.24 29.444 25.24ZM45.6011 25.24C44.1771 25.24 42.9691 24.936 41.9771 24.328C40.9851 23.704 40.2251 22.896 39.6971 21.904C39.1851 20.896 38.9291 19.808 38.9291 18.64C38.9291 17.472 39.1851 16.392 39.6971 15.4C40.2251 14.392 40.9851 13.584 41.9771 12.976C42.9691 12.352 44.1771 12.04 45.6011 12.04C47.0251 12.04 48.2331 12.352 49.2251 12.976C50.2171 13.584 50.9691 14.392 51.4811 15.4C52.0091 16.392 52.2731 17.472 52.2731 18.64C52.2731 19.808 52.0091 20.896 51.4811 21.904C50.9691 22.896 50.2171 23.704 49.2251 24.328C48.2331 24.936 47.0251 25.24 45.6011 25.24ZM45.6011 22.264C46.2411 22.264 46.7771 22.096 47.2091 21.76C47.6571 21.424 48.0011 20.984 48.2411 20.44C48.4811 19.88 48.6011 19.28 48.6011 18.64C48.6011 17.984 48.4811 17.384 48.2411 16.84C48.0011 16.296 47.6571 15.856 47.2091 15.52C46.7771 15.184 46.2411 15.016 45.6011 15.016C44.9611 15.016 44.4171 15.184 43.9691 15.52C43.5211 15.856 43.1771 16.296 42.9371 16.84C42.7131 17.384 42.6011 17.984 42.6011 18.64C42.6011 19.28 42.7131 19.88 42.9371 20.44C43.1771 20.984 43.5211 21.424 43.9691 21.76C44.4171 22.096 44.9611 22.264 45.6011 22.264ZM54.9933 25V6.76H58.6413V14.104H58.7613C58.9053 13.848 59.1133 13.56 59.3853 13.24C59.6733 12.92 60.0493 12.64 60.5133 12.4C60.9933 12.16 61.6013 12.04 62.3373 12.04C63.3293 12.04 64.1373 12.272 64.7613 12.736C65.3853 13.184 65.8413 13.768 66.1293 14.488C66.4173 15.192 66.5613 15.936 66.5613 16.72V25H62.9133V17.344C62.9133 16.736 62.7453 16.2 62.4093 15.736C62.0893 15.272 61.5693 15.04 60.8493 15.04C60.3053 15.04 59.8733 15.168 59.5533 15.424C59.2333 15.68 59.0013 16.008 58.8573 16.408C58.7133 16.808 58.6413 17.232 58.6413 17.68V25H54.9933ZM69.3549 25V12.28H73.0029V14.104H73.1229C73.2669 13.848 73.4749 13.56 73.7469 13.24C74.0349 12.92 74.4109 12.64 74.8749 12.4C75.3549 12.16 75.9629 12.04 76.6989 12.04C77.6909 12.04 78.4989 12.272 79.1229 12.736C79.7469 13.184 80.2029 13.768 80.4909 14.488C80.7789 15.192 80.9229 15.936 80.9229 16.72V25H77.2749V17.344C77.2749 16.736 77.1069 16.2 76.7709 15.736C76.4509 15.272 75.9309 15.04 75.2109 15.04C74.6669 15.04 74.2349 15.168 73.9149 15.424C73.5949 15.68 73.3629 16.008 73.2189 16.408C73.0749 16.808 73.0029 17.232 73.0029 17.68V25H69.3549ZM89.4699 25V7.24H96.1899C97.6299 7.24 98.8939 7.496 99.9819 8.008C101.086 8.504 101.998 9.176 102.718 10.024C103.438 10.872 103.982 11.824 104.35 12.88C104.718 13.936 104.902 15.016 104.902 16.12C104.902 17.224 104.718 18.304 104.35 19.36C103.982 20.416 103.438 21.368 102.718 22.216C101.998 23.064 101.086 23.744 99.9819 24.256C98.8939 24.752 97.6299 25 96.1899 25H89.4699ZM96.0219 10.48H93.1659V21.712H96.0219C97.1899 21.712 98.1499 21.44 98.9019 20.896C99.6699 20.352 100.238 19.648 100.606 18.784C100.99 17.92 101.182 17.024 101.182 16.096C101.182 15.168 100.99 14.28 100.606 13.432C100.238 12.568 99.6699 11.864 98.9019 11.32C98.1499 10.76 97.1899 10.48 96.0219 10.48ZM113.757 25.24C112.333 25.24 111.125 24.936 110.133 24.328C109.141 23.704 108.381 22.896 107.853 21.904C107.341 20.896 107.085 19.808 107.085 18.64C107.085 17.472 107.341 16.392 107.853 15.4C108.381 14.392 109.141 13.584 110.133 12.976C111.125 12.352 112.333 12.04 113.757 12.04C115.181 12.04 116.389 12.352 117.381 12.976C118.373 13.584 119.125 14.392 119.637 15.4C120.165 16.392 120.429 17.472 120.429 18.64C120.429 19.808 120.165 20.896 119.637 21.904C119.125 22.896 118.373 23.704 117.381 24.328C116.389 24.936 115.181 25.24 113.757 25.24ZM113.757 22.264C114.397 22.264 114.933 22.096 115.365 21.76C115.813 21.424 116.157 20.984 116.397 20.44C116.637 19.88 116.757 19.28 116.757 18.64C116.757 17.984 116.637 17.384 116.397 16.84C116.157 16.296 115.813 15.856 115.365 15.52C114.933 15.184 114.397 15.016 113.757 15.016C113.117 15.016 112.573 15.184 112.125 15.52C111.677 15.856 111.333 16.296 111.093 16.84C110.869 17.384 110.757 17.984 110.757 18.64C110.757 19.28 110.869 19.88 111.093 20.44C111.333 20.984 111.677 21.424 112.125 21.76C112.573 22.096 113.117 22.264 113.757 22.264ZM129.269 25.24C128.149 25.24 127.181 25.056 126.365 24.688C125.549 24.304 124.877 23.8 124.349 23.176C123.821 22.536 123.421 21.824 123.149 21.04C122.893 20.256 122.765 19.448 122.765 18.616C122.765 17.816 122.885 17.032 123.125 16.264C123.381 15.48 123.765 14.768 124.277 14.128C124.805 13.488 125.469 12.984 126.269 12.616C127.085 12.232 128.045 12.04 129.149 12.04C130.317 12.04 131.349 12.296 132.245 12.808C133.157 13.32 133.869 14.08 134.381 15.088C134.893 16.08 135.149 17.288 135.149 18.712V19.6H126.437C126.485 20.368 126.749 21.032 127.229 21.592C127.725 22.152 128.405 22.432 129.269 22.432C129.765 22.432 130.165 22.36 130.469 22.216C130.789 22.056 131.037 21.88 131.213 21.688C131.389 21.48 131.509 21.296 131.573 21.136C131.637 20.976 131.669 20.896 131.669 20.896H135.029C135.029 20.896 134.989 21.048 134.909 21.352C134.845 21.64 134.701 22 134.477 22.432C134.253 22.864 133.925 23.296 133.493 23.728C133.077 24.16 132.525 24.52 131.837 24.808C131.149 25.096 130.293 25.24 129.269 25.24ZM126.437 17.392H131.645C131.597 16.512 131.333 15.856 130.853 15.424C130.373 14.992 129.781 14.776 129.077 14.776C128.373 14.776 127.773 15.008 127.277 15.472C126.781 15.92 126.501 16.56 126.437 17.392Z" fill="white"/>
<defs>
<clipPath id="clip0_382_1447">
<rect width="17.916" height="32" fill="white"/>
</clipPath>
</defs>
</svg>
